{"glyphs":{"0":{"ha":779,"x_min":28,"x_max":751,"o":"m 371 100 q 428 143 400 100 q 468 236 457 186 q 479 335 479 286 q 458 483 479 419 q 421 546 436 546 q 419 544 419 546 q 399 513 399 532 l 401 492 q 399 478 401 482 q 396 467 396 474 q 398 457 396 464 q 400 439 400 450 q 394 405 400 422 q 372 388 388 388 q 359 391 367 388 q 348 402 351 394 q 344 418 344 410 l 346 426 q 349 478 349 453 l 349 510 q 343 527 349 518 q 329 536 338 536 q 319 529 324 536 q 269 343 269 460 q 299 176 269 251 q 371 100 329 100 m 604 -371 q 593 -362 597 -371 q 585 -324 585 -343 q 588 -293 585 -310 q 590 -232 590 -271 q 586 -165 590 -204 l 588 -142 q 576 -114 588 -125 q 575 -110 576 -111 q 572 -108 574 -110 q 525 -101 536 -101 q 506 -107 517 -101 q 408 -136 489 -121 l 381 -137 q 264 -107 332 -137 q 225 -86 240 -101 q 211 -78 217 -78 q 204 -86 207 -78 q 199 -128 199 -107 l 199 -136 q 196 -171 199 -153 q 192 -228 192 -200 q 182 -247 192 -237 q 172 -260 176 -253 q 167 -264 172 -264 q 155 -260 161 -264 q 147 -250 149 -256 q 144 -239 146 -244 q 138 -204 138 -225 l 139 -186 q 135 -151 139 -169 q 126 -78 129 -124 q 117 0 124 -32 q 90 57 111 32 q 60 147 75 79 q 51 181 56 169 q 28 347 28 264 q 31 433 28 390 l 31 438 q 101 647 31 493 q 215 785 140 726 q 371 847 290 843 q 574 781 490 847 q 705 604 658 714 q 751 365 751 494 q 731 193 751 281 q 694 89 717 144 q 663 3 676 44 q 650 -83 650 -39 q 646 -110 650 -96 q 642 -139 642 -125 q 644 -172 642 -151 l 636 -308 q 624 -354 633 -337 q 604 -371 614 -371 z "},"1":{"ha":338,"x_min":28,"x_max":310,"o":"m 106 -307 q 79 -285 92 -307 q 67 -242 67 -264 q 71 -203 67 -222 q 82 -108 82 -154 q 76 -55 82 -67 q 71 -33 71 -43 q 69 -15 71 -24 q 81 150 69 43 l 81 224 q 76 426 81 392 q 68 544 74 436 q 63 663 63 653 q 45 690 63 674 q 28 722 28 707 q 32 742 28 731 q 48 792 42 764 q 65 844 54 821 q 104 867 76 867 q 117 865 111 867 q 169 860 144 860 q 204 863 188 860 q 263 869 240 869 q 299 851 290 869 q 308 783 308 833 q 306 682 308 744 q 299 372 299 576 q 308 -21 299 211 l 310 -72 q 306 -144 310 -125 q 301 -183 301 -162 l 303 -196 q 296 -208 303 -203 q 279 -214 289 -214 q 251 -199 267 -214 q 244 -178 244 -187 l 246 -157 q 238 -121 246 -144 l 235 -119 q 233 -105 233 -117 q 224 -90 232 -93 q 185 -82 208 -82 q 115 -124 117 -82 q 111 -178 111 -157 q 125 -235 111 -221 q 136 -265 136 -249 q 127 -294 136 -281 q 106 -307 118 -307 z "},"2":{"ha":717,"x_min":31,"x_max":689,"o":"m 614 -294 q 588 -283 601 -294 q 575 -253 575 -271 q 588 -211 575 -235 q 606 -156 606 -185 q 589 -114 606 -135 q 547 -99 575 -99 q 526 -100 536 -99 q 506 -101 515 -101 q 490 -103 497 -101 q 443 -104 471 -104 q 346 -97 403 -104 q 296 -93 329 -93 q 272 -96 283 -93 q 215 -100 244 -100 l 204 -100 q 145 -108 172 -100 q 111 -150 118 -115 q 104 -162 108 -157 q 99 -173 100 -167 q 96 -186 97 -179 q 97 -204 96 -196 q 99 -221 99 -212 q 90 -243 99 -232 q 74 -256 82 -254 q 47 -238 53 -256 q 42 -196 42 -221 l 43 -142 q 41 -115 43 -128 q 36 -87 39 -101 q 31 -37 31 -64 l 32 0 q 38 63 33 40 q 60 104 43 85 q 114 156 76 124 l 143 178 q 324 349 218 231 q 344 372 331 358 q 393 429 367 396 q 440 503 419 463 q 460 590 460 544 q 456 626 460 608 q 368 676 443 676 q 222 636 282 676 l 200 622 l 199 622 q 195 620 197 621 q 193 608 193 619 q 200 532 193 593 q 189 503 200 514 q 167 493 178 493 q 146 518 149 493 l 144 524 q 147 544 144 532 q 150 575 150 557 q 111 661 150 619 q 85 699 96 675 q 75 744 75 722 q 89 781 75 767 q 163 829 122 814 q 217 854 203 844 q 250 864 232 864 q 419 876 375 876 q 506 860 469 876 q 592 797 542 843 q 654 697 635 753 l 661 683 q 674 619 674 651 q 683 567 675 593 q 689 536 689 551 q 684 495 689 515 q 678 454 679 475 q 676 383 676 411 q 675 337 676 356 q 667 293 674 318 q 655 282 665 286 q 638 278 644 278 q 631 279 633 278 q 617 306 617 286 q 631 374 617 328 l 635 397 q 633 411 635 404 q 632 426 632 418 l 633 439 q 554 314 583 357 q 479 215 513 253 q 419 138 446 178 l 418 132 q 419 131 418 131 q 436 123 428 128 q 454 118 444 118 q 460 119 458 118 q 532 124 479 124 q 615 122 583 124 q 647 110 633 122 q 664 81 661 99 q 668 61 664 71 q 672 42 672 51 l 671 33 q 663 -56 663 -1 q 658 -69 663 -62 q 639 -136 639 -107 q 642 -172 639 -154 q 646 -210 646 -189 q 628 -286 646 -242 q 614 -294 624 -294 z "},"3":{"ha":675,"x_min":28,"x_max":647,"o":"m 53 -344 q 36 -337 44 -344 q 28 -312 28 -329 q 31 -292 28 -303 q 36 -212 36 -260 l 35 -115 l 38 -75 q 34 -42 38 -53 q 31 -25 31 -32 q 38 -3 31 -14 q 97 103 74 47 q 139 132 113 132 q 183 104 165 132 q 269 60 210 60 l 296 60 q 329 63 308 63 q 379 89 361 63 l 388 101 q 407 140 407 121 l 406 154 q 350 250 406 221 q 254 272 307 272 q 208 299 219 276 q 196 353 196 321 q 200 408 196 379 q 243 472 200 454 l 292 489 q 353 511 321 501 q 401 569 401 531 q 378 621 401 597 q 321 644 356 644 q 199 598 229 640 q 157 493 168 556 q 154 476 154 485 q 158 444 154 460 q 161 418 161 429 q 146 399 161 403 q 111 433 117 399 l 113 451 l 113 494 q 61 679 113 613 q 38 729 38 704 q 75 790 38 763 q 169 847 113 818 q 250 875 226 875 l 272 876 q 357 871 332 876 q 410 851 382 865 q 443 838 424 846 q 483 814 463 831 q 519 781 504 797 q 538 757 535 764 q 560 718 546 738 q 585 674 574 699 q 597 614 597 649 q 594 586 597 600 l 594 561 q 588 508 594 542 q 551 438 582 475 q 522 393 522 407 q 554 367 522 376 q 610 314 590 347 l 617 304 q 642 242 638 275 q 647 158 647 210 q 643 85 647 103 q 631 46 639 67 q 604 -83 604 -19 l 606 -140 q 588 -206 606 -176 l 585 -212 l 586 -225 q 584 -245 586 -235 q 582 -267 582 -256 q 585 -287 582 -276 q 561 -310 585 -304 l 558 -310 q 543 -281 543 -310 q 544 -257 543 -269 q 546 -232 546 -244 q 543 -211 546 -219 q 536 -174 536 -192 q 540 -149 536 -160 l 542 -137 q 538 -124 542 -129 q 531 -112 535 -118 q 524 -102 526 -107 q 513 -95 521 -97 q 497 -93 506 -93 q 479 -97 486 -93 q 306 -147 415 -147 q 242 -142 275 -147 l 229 -142 l 224 -143 q 142 -126 197 -143 q 118 -121 128 -121 q 83 -145 92 -121 q 75 -201 75 -169 q 79 -271 75 -236 q 82 -317 82 -296 q 53 -344 79 -344 z "},"4":{"ha":644,"x_min":28,"x_max":617,"o":"m 365 497 q 375 506 375 497 q 374 520 375 511 q 372 542 372 529 q 376 572 372 565 q 379 586 379 579 q 375 597 379 592 q 342 547 353 576 q 315 503 332 524 q 338 499 328 499 q 365 497 358 499 m 407 -229 q 392 -222 397 -229 q 388 -204 388 -214 q 392 -164 392 -187 q 384 -112 392 -135 q 369 -50 376 -89 q 361 61 363 -11 l 361 207 q 354 303 361 272 q 319 333 347 333 q 294 329 308 333 q 226 324 265 324 l 211 324 q 147 321 175 324 q 114 306 118 318 q 106 281 110 293 q 94 240 94 260 q 96 217 96 229 q 82 188 96 199 q 74 172 74 181 q 76 160 74 167 q 79 142 79 153 q 64 124 74 124 q 50 129 57 124 l 50 131 q 42 143 42 139 q 44 151 42 146 q 47 160 47 156 q 42 182 47 165 q 35 314 35 231 q 31 364 35 343 q 28 400 28 378 q 31 464 28 421 q 48 508 33 490 q 81 542 63 525 l 83 543 q 146 593 119 574 q 217 653 181 615 q 311 788 253 692 l 326 810 q 354 857 343 832 q 389 879 368 879 l 400 879 q 493 867 450 867 l 554 867 q 599 859 582 867 q 617 821 617 851 l 615 806 q 610 719 611 776 q 601 610 607 642 q 596 546 596 578 l 597 503 q 593 446 597 474 q 589 306 589 392 q 600 72 589 151 q 606 -31 606 17 q 599 -114 606 -86 q 600 -124 599 -119 q 595 -149 600 -140 q 585 -164 590 -157 q 574 -171 581 -171 l 571 -169 q 561 -162 564 -168 q 558 -149 558 -157 q 554 -129 557 -140 q 550 -106 551 -118 q 526 -82 549 -82 l 510 -85 q 497 -83 503 -85 q 487 -81 492 -82 q 476 -79 482 -79 q 440 -108 446 -79 q 433 -171 433 -137 q 432 -203 433 -189 q 407 -229 429 -229 z "},"5":{"ha":740,"x_min":28,"x_max":713,"o":"m 44 -258 q 28 -231 28 -258 q 31 -169 28 -204 q 35 -71 35 -135 q 31 -10 31 -35 q 39 54 31 36 q 56 81 47 72 l 57 83 q 86 119 74 101 q 120 160 104 144 q 158 175 136 175 q 224 146 181 175 q 250 129 236 136 q 367 107 274 117 q 435 131 403 107 q 482 194 482 164 q 485 218 482 207 q 460 276 485 243 q 382 329 421 329 q 343 324 363 329 q 313 315 324 319 q 289 311 303 311 l 282 313 q 235 303 254 313 q 214 258 217 294 q 207 235 213 247 q 192 224 201 224 l 183 225 q 170 241 171 229 q 167 267 169 253 q 163 319 163 288 q 176 593 176 485 q 169 767 176 707 q 167 824 167 801 q 177 864 167 853 q 215 878 188 875 q 277 876 257 878 q 317 875 297 875 l 358 878 q 415 869 386 878 l 447 871 q 479 872 457 872 q 508 869 493 869 q 554 872 531 869 l 557 872 q 600 875 579 875 q 659 860 635 875 q 683 797 683 846 q 671 719 679 750 q 660 646 660 683 l 660 618 q 624 535 660 535 q 608 549 608 535 l 610 556 q 617 590 617 572 l 617 596 q 622 636 617 617 q 603 679 622 661 l 596 692 q 568 697 589 697 l 547 697 q 457 704 494 697 q 443 707 450 707 q 399 688 418 707 q 375 644 379 669 q 372 597 372 625 q 368 535 372 563 l 368 528 q 382 513 368 513 l 404 514 q 537 478 444 514 q 674 371 629 443 q 684 355 678 363 q 694 340 690 347 q 713 233 713 307 q 710 178 713 196 l 708 167 q 692 110 701 139 l 635 -72 q 618 -208 618 -131 q 610 -247 618 -240 q 596 -254 603 -254 q 583 -249 589 -254 q 576 -236 576 -244 q 581 -225 576 -232 q 585 -211 585 -218 q 581 -193 585 -203 q 571 -125 575 -176 q 557 -87 569 -100 q 526 -75 544 -75 q 499 -82 514 -75 l 486 -87 q 357 -108 451 -108 q 133 -68 225 -108 q 119 -64 125 -64 q 110 -69 114 -64 q 97 -82 106 -74 q 82 -91 92 -87 q 72 -107 72 -94 l 74 -122 q 60 -207 74 -172 l 58 -217 l 61 -244 q 44 -258 61 -258 z "},"6":{"ha":721,"x_min":28,"x_max":693,"o":"m 382 78 q 418 85 401 78 l 428 88 q 470 106 453 93 q 492 149 488 119 l 493 176 q 474 242 493 219 q 421 281 454 265 l 415 282 q 407 276 411 282 q 399 268 403 271 q 373 249 379 261 q 367 217 367 236 q 369 188 367 204 q 371 146 371 171 l 369 136 q 363 122 369 128 q 347 115 357 115 q 328 128 336 115 q 319 156 319 140 q 324 200 324 176 q 326 242 324 224 q 322 249 326 249 q 317 247 319 249 q 310 244 315 246 q 294 231 296 239 q 289 217 292 224 q 278 178 278 199 l 279 168 q 285 124 279 136 q 313 100 290 111 q 382 78 354 78 m 607 -265 q 596 -254 596 -265 q 597 -249 596 -253 q 599 -242 599 -246 q 594 -225 599 -232 q 585 -182 588 -210 q 575 -139 583 -160 q 535 -93 556 -93 q 507 -101 524 -93 l 494 -106 q 415 -118 468 -118 l 404 -119 q 356 -124 379 -124 q 231 -93 297 -124 q 119 11 178 -68 q 92 46 103 33 q 78 72 82 58 l 74 85 q 38 197 46 157 q 29 274 29 236 l 31 361 q 28 456 31 399 q 34 495 28 478 q 43 533 40 513 q 64 600 49 567 q 86 646 76 622 q 151 753 107 699 q 303 857 194 807 q 383 865 324 865 q 474 858 449 865 q 551 815 504 849 q 631 739 597 782 q 644 711 639 726 q 652 697 649 704 q 656 682 656 690 q 631 613 656 656 q 597 503 597 542 l 597 490 q 593 475 597 482 q 585 463 589 468 q 576 451 581 457 q 568 446 572 446 q 561 450 565 446 q 551 483 551 460 q 555 509 551 499 q 558 529 558 519 q 546 558 558 543 q 533 581 538 568 q 521 603 528 593 q 500 622 514 614 q 471 639 486 631 q 421 667 444 656 q 372 679 397 679 q 328 665 351 679 q 258 599 275 633 q 239 540 242 565 l 236 528 q 228 482 228 500 q 246 451 228 451 q 254 454 250 451 q 375 479 311 479 q 483 465 431 479 q 566 428 535 450 q 614 384 597 406 q 640 343 631 363 q 661 308 650 324 q 693 229 693 272 q 687 190 693 211 q 681 146 681 169 q 664 67 679 110 q 651 24 656 46 q 639 -76 646 3 q 631 -135 638 -101 q 622 -206 625 -169 q 624 -228 622 -224 q 625 -237 625 -233 q 619 -254 625 -243 q 607 -265 614 -265 z "},"7":{"ha":686,"x_min":28,"x_max":658,"o":"m 60 -257 q 47 -240 49 -257 q 43 -203 46 -222 q 38 -140 38 -171 l 38 -110 q 29 -47 38 -79 q 28 -37 28 -43 q 94 122 28 6 q 247 378 161 238 q 396 635 396 615 q 375 671 396 671 l 228 668 q 153 672 168 668 l 144 674 q 121 592 121 674 l 122 546 q 111 517 122 526 q 101 514 107 514 q 83 522 92 514 q 74 542 74 529 q 76 553 74 547 q 78 574 78 558 q 72 661 78 626 q 64 691 69 676 q 51 738 58 706 q 40 807 42 782 q 57 844 40 829 q 99 860 74 860 l 108 860 q 242 858 143 858 q 583 867 386 858 q 634 845 613 867 q 657 793 656 824 q 658 731 658 763 q 654 680 658 699 q 638 640 650 661 q 600 586 625 619 l 574 550 q 507 443 519 471 q 482 406 500 421 q 474 395 476 403 q 469 382 472 388 q 367 206 375 231 q 343 169 358 181 q 331 151 335 165 l 326 143 q 281 11 288 69 q 256 -75 272 -31 q 246 -118 246 -103 q 248 -135 246 -131 q 250 -147 250 -140 q 247 -165 250 -158 q 232 -172 244 -172 q 214 -147 215 -172 l 203 -103 q 174 -81 197 -83 l 157 -79 q 107 -107 128 -79 q 88 -144 92 -125 q 85 -182 85 -162 q 60 -257 83 -257 z "},"8":{"ha":736,"x_min":28,"x_max":708,"o":"m 379 49 q 493 113 456 49 q 508 167 508 138 q 489 219 508 194 q 484 228 485 226 q 479 229 483 229 q 474 222 474 229 q 463 157 463 200 q 447 131 460 143 q 435 125 442 125 q 415 154 415 132 l 417 176 l 417 182 q 424 217 417 200 q 426 224 426 219 q 422 255 426 242 q 402 272 418 268 q 369 276 386 276 q 285 241 318 276 q 251 163 251 206 q 278 94 251 126 q 379 49 325 49 m 386 488 q 442 508 417 488 q 468 572 468 529 l 467 586 l 468 594 q 457 624 468 611 q 421 649 435 649 q 406 638 414 649 q 394 620 397 628 q 392 607 392 613 l 394 588 q 365 550 394 553 q 356 553 358 550 q 351 559 353 556 q 349 564 350 563 q 343 586 343 576 q 347 606 343 597 q 350 624 350 615 q 347 638 349 631 q 335 644 344 644 q 323 638 326 644 q 315 626 319 632 q 299 582 299 607 q 326 511 299 535 q 386 488 354 488 m 618 -296 q 590 -243 590 -296 q 595 -189 590 -215 q 600 -126 600 -162 q 598 -91 600 -110 q 592 -72 596 -72 q 585 -74 589 -72 q 576 -78 581 -75 q 531 -97 553 -86 q 488 -117 510 -108 q 436 -126 465 -126 q 419 -129 426 -126 q 371 -133 407 -133 q 259 -116 308 -133 q 176 -77 210 -99 q 126 -42 143 -56 l 114 -33 q 110 -96 110 -78 q 112 -118 110 -108 q 114 -139 114 -128 l 113 -157 q 96 -178 108 -178 q 85 -174 90 -178 q 69 -132 69 -162 l 72 -90 l 71 -51 q 74 -26 71 -39 q 69 -16 74 -21 q 64 -6 65 -11 q 49 67 57 32 q 28 183 32 124 q 54 269 28 207 q 131 369 81 331 q 142 385 142 376 q 135 400 142 390 q 99 459 121 414 q 76 564 76 504 l 78 593 q 192 792 100 724 q 394 860 285 860 q 578 803 492 860 q 703 629 664 747 q 708 579 708 604 q 703 515 708 547 l 700 494 q 672 430 696 471 q 621 364 647 389 q 617 357 617 360 q 626 344 617 351 q 651 320 636 336 q 679 274 665 304 q 708 158 708 201 q 699 97 708 122 q 692 65 694 81 q 678 36 690 50 q 655 0 665 22 q 644 -71 644 -22 l 644 -83 q 643 -104 644 -94 q 642 -125 642 -114 l 643 -171 l 642 -262 q 634 -288 642 -281 q 618 -296 626 -296 z "},"9":{"ha":721,"x_min":28,"x_max":693,"o":"m 278 482 q 271 511 271 497 q 273 534 271 522 q 275 557 275 546 q 271 582 275 569 q 254 533 254 560 q 278 482 254 501 m 340 436 q 375 446 356 436 l 388 451 q 428 485 411 461 q 444 542 444 508 q 442 568 444 554 l 443 576 q 436 596 443 589 q 379 635 422 621 l 368 638 q 344 629 357 638 q 315 568 315 611 l 317 524 q 313 494 317 507 q 292 468 308 481 q 289 464 289 467 q 292 461 289 463 q 340 436 319 436 m 49 -296 q 39 -290 43 -296 q 31 -256 31 -275 l 32 -246 q 43 -157 43 -190 q 40 -130 43 -142 q 38 -103 38 -118 q 46 -35 38 -72 q 67 25 54 3 q 92 72 79 47 q 117 119 104 96 q 151 138 131 138 q 185 119 171 138 q 249 73 199 101 q 357 44 299 44 q 517 219 481 44 l 518 229 q 511 263 518 246 q 500 276 507 271 q 489 282 493 282 q 483 278 486 282 q 475 274 479 275 q 424 189 424 263 q 426 143 424 168 q 410 119 426 126 q 382 128 393 119 q 369 149 371 138 l 369 163 q 360 206 369 182 q 304 246 350 231 l 251 258 q 156 292 197 269 q 54 385 115 314 q 28 488 28 419 q 69 667 28 571 q 192 806 110 764 l 199 810 q 270 840 238 828 q 340 851 303 851 q 501 803 404 851 q 593 714 554 774 q 658 599 629 657 l 693 389 q 691 352 693 365 q 689 325 689 339 l 690 308 q 681 217 690 257 q 660 139 671 176 q 633 4 633 63 q 638 -39 633 -17 q 632 -96 638 -69 q 626 -129 626 -117 l 628 -136 q 608 -156 628 -156 q 593 -151 596 -156 q 589 -139 590 -146 q 583 -104 583 -118 q 589 -69 583 -81 q 594 -49 594 -57 l 593 -44 l 594 -31 q 583 -19 594 -22 q 564 -36 572 -19 q 503 -97 550 -64 q 381 -144 456 -129 q 321 -151 347 -151 q 240 -140 275 -151 q 173 -116 204 -129 q 108 -93 142 -103 l 103 -92 q 83 -116 88 -92 q 78 -176 79 -140 q 74 -214 76 -203 q 72 -236 72 -225 l 74 -257 q 65 -285 74 -275 q 49 -296 57 -296 z "},"\u0000":{"ha":0,"x_min":0,"x_max":0,"o":""}," ":{"ha":556,"x_min":0,"x_max":0,"o":""},"!":{"ha":264,"x_min":28,"x_max":236,"o":"m 83 128 q 60 138 74 128 q 38 163 47 149 q 28 186 28 176 q 35 276 28 231 q 44 398 42 321 q 46 540 46 475 l 44 642 l 46 647 q 42 669 46 658 q 36 689 38 679 q 28 790 28 736 q 90 850 28 850 l 144 851 q 206 842 175 851 q 236 800 236 833 q 224 621 236 776 q 215 518 215 529 q 217 510 215 515 q 221 482 219 506 q 224 369 224 415 l 222 304 q 231 207 222 244 q 236 172 236 190 q 233 151 236 161 q 210 140 229 140 l 203 140 q 100 131 158 140 l 83 128 m 96 -201 q 83 -189 85 -201 q 81 -169 82 -176 q 71 -139 81 -149 q 56 -100 56 -119 l 58 -76 q 53 -35 58 -58 q 49 13 49 -11 q 63 63 49 40 q 118 97 76 86 q 130 103 124 99 q 147 108 136 108 q 183 92 161 108 q 211 60 206 76 q 222 11 222 39 q 202 -51 219 -36 q 168 -70 185 -65 q 139 -83 151 -75 q 121 -115 126 -92 q 111 -169 114 -151 q 106 -194 108 -187 q 96 -201 103 -201 z "},"\"":{"ha":364,"x_min":28,"x_max":336,"o":"m 268 664 q 254 677 254 664 q 253 706 254 690 l 254 733 q 238 781 254 761 q 225 801 231 790 q 220 810 224 806 q 215 822 217 814 q 212 852 215 836 q 208 886 208 868 q 197 950 208 917 q 194 964 194 957 q 200 986 196 975 l 203 997 q 225 1032 210 1021 q 268 1046 249 1046 q 317 1019 299 1046 q 336 960 336 993 q 331 927 336 943 q 321 876 325 911 q 293 749 310 792 q 289 724 289 736 l 290 689 q 268 664 290 665 m 110 660 q 99 663 103 660 q 94 675 94 665 l 94 686 q 67 790 94 761 q 43 875 47 814 q 29 956 40 919 l 28 961 q 33 977 28 969 q 39 994 38 985 q 58 1026 44 1015 q 104 1042 85 1042 q 155 1010 138 1042 q 172 947 172 979 l 171 940 q 160 878 164 919 q 135 763 153 824 q 125 703 125 725 q 126 687 125 692 q 129 680 128 682 q 131 675 131 678 q 124 664 131 668 q 110 660 118 660 z "},"#":{"ha":629,"x_min":38,"x_max":601,"o":"m 124 -129 q 110 -113 114 -129 q 106 -81 106 -97 l 107 -31 q 99 24 107 -6 q 94 65 94 39 q 99 153 94 140 q 94 158 99 158 q 88 156 89 158 q 86 153 88 153 q 79 132 79 143 q 77 110 79 113 q 67 106 75 107 q 56 117 58 106 q 51 147 53 129 q 40 208 50 175 l 39 217 q 44 269 44 242 l 44 300 q 60 340 47 329 q 89 353 74 350 q 115 372 111 356 q 118 406 118 389 q 116 447 118 426 q 114 488 114 467 q 115 507 114 499 q 113 525 115 522 q 106 528 110 528 q 99 518 99 528 q 85 497 96 497 q 72 505 78 497 q 64 525 65 513 q 58 545 63 538 q 49 558 54 553 q 41 569 44 563 q 38 585 38 575 q 41 609 38 594 q 44 640 44 624 l 44 647 q 51 679 44 664 q 88 699 57 694 q 97 708 97 701 l 97 711 q 92 754 92 733 q 97 813 92 783 l 100 835 q 146 874 101 867 q 181 881 163 881 q 194 878 189 881 q 208 876 199 876 l 211 878 q 238 883 225 883 q 286 828 286 879 q 281 782 285 803 q 278 738 278 761 q 304 707 278 707 l 306 707 q 340 712 331 708 q 350 728 350 715 l 349 751 l 347 758 q 349 795 347 781 q 351 824 351 810 q 399 871 354 871 q 438 872 422 871 q 471 874 453 874 q 527 862 501 874 q 553 810 553 850 q 549 753 549 789 q 561 701 549 707 q 592 683 582 697 q 601 650 601 668 q 598 628 601 638 q 594 608 594 618 l 599 579 q 560 535 599 549 q 532 510 532 532 q 535 494 533 501 q 537 481 536 488 q 538 464 538 474 q 533 411 538 436 q 529 371 529 386 q 540 356 529 356 l 544 357 q 582 340 567 357 q 597 300 597 324 q 596 262 597 282 q 594 219 594 242 q 585 187 594 197 q 567 170 576 176 q 549 156 557 164 q 542 131 542 147 l 540 57 q 538 30 540 42 q 532 -9 536 18 q 522 -97 528 -36 q 508 -121 519 -121 q 500 -118 503 -121 q 494 -93 497 -115 q 486 -31 492 -71 q 468 -7 483 -7 l 453 -10 q 435 -6 443 -10 q 418 -1 426 -1 q 395 -27 403 -1 q 386 -65 388 -53 q 383 -81 385 -76 q 372 -86 381 -86 q 361 -79 363 -86 q 360 -57 360 -72 l 360 -47 q 349 29 360 -21 q 347 50 347 39 q 349 78 347 64 q 351 146 351 93 l 353 160 q 347 176 353 172 q 319 181 340 181 q 292 176 300 181 q 285 156 285 172 l 286 132 q 289 75 289 110 q 281 -12 289 39 q 279 -35 279 -21 q 277 -64 279 -50 q 264 -78 275 -78 q 251 -65 251 -76 q 247 -40 251 -49 q 242 -21 242 -31 l 243 -14 q 199 -4 243 -4 q 149 -11 154 -4 q 147 -19 147 -14 q 140 -60 140 -44 q 142 -77 140 -69 q 143 -94 143 -85 q 139 -120 142 -111 q 124 -129 136 -129 m 351 344 q 356 345 354 344 q 357 350 357 346 q 361 375 357 364 q 365 397 365 386 q 364 407 365 403 q 358 463 358 435 l 360 507 q 357 531 360 525 q 342 538 354 538 l 324 536 q 305 538 310 536 q 297 540 300 540 q 289 529 292 540 q 286 504 286 518 l 288 468 q 285 443 288 456 q 283 417 283 431 q 300 344 283 344 q 311 346 304 344 q 328 347 318 347 q 342 347 336 347 q 351 344 347 346 z "},"$":{"ha":590,"x_min":28,"x_max":563,"o":"m 238 -146 q 224 -133 226 -146 q 221 -99 222 -121 l 221 -92 q 208 -3 221 -54 q 210 12 208 6 q 213 26 213 18 q 151 85 213 57 q 127 98 136 92 q 113 104 118 104 q 92 51 99 104 q 75 4 85 4 q 60 19 60 4 l 60 96 l 57 96 q 60 176 57 158 q 69 200 63 193 q 92 235 82 213 q 143 278 113 278 q 204 253 171 278 q 263 229 238 229 q 303 226 282 226 q 343 239 318 226 q 350 243 347 240 q 364 283 364 261 q 331 353 364 324 q 269 371 301 371 q 235 378 251 374 q 176 389 206 386 q 118 400 146 392 q 107 390 110 400 q 104 354 104 379 q 101 335 104 340 q 88 329 97 329 q 76 337 78 329 q 72 358 74 344 q 57 426 72 385 q 28 572 28 508 q 49 678 28 646 q 88 731 74 714 q 115 756 101 749 q 147 768 128 763 q 193 786 165 774 q 208 806 208 793 l 208 815 q 207 828 207 821 q 212 851 207 839 q 230 876 217 863 q 256 890 243 890 q 276 888 264 888 q 299 890 288 888 q 321 892 310 892 q 376 833 376 892 q 381 804 376 813 q 401 790 386 796 q 484 743 447 772 q 524 667 521 714 l 525 654 q 526 624 526 640 q 511 586 526 586 q 503 588 506 588 q 494 589 501 589 q 479 571 482 589 q 476 533 476 553 q 460 511 476 514 q 445 519 449 511 q 440 539 442 526 q 427 585 440 560 q 364 629 414 610 q 350 637 357 631 q 335 643 343 643 q 281 586 288 639 q 264 568 278 568 q 249 589 249 568 q 232 618 244 618 q 218 606 224 618 q 213 579 213 594 q 227 538 213 558 q 285 518 242 518 l 290 518 q 361 503 326 518 q 378 499 369 499 q 407 497 400 499 q 445 475 431 490 q 475 454 460 460 q 513 424 500 447 q 532 393 519 407 q 563 296 563 358 q 549 206 563 250 q 513 142 536 161 l 483 117 q 394 65 447 78 q 382 47 386 63 q 378 15 378 32 q 381 -15 378 -4 q 383 -33 383 -26 q 367 -61 379 -61 q 351 -49 358 -61 q 341 -31 344 -36 q 335 -25 338 -25 q 327 -27 332 -25 q 314 -32 322 -29 q 292 -36 306 -35 q 256 -60 263 -37 q 250 -106 250 -82 q 248 -133 250 -122 q 238 -146 246 -144 z "},"%":{"ha":636,"x_min":28,"x_max":608,"o":"m 57 -206 q 40 -197 44 -206 q 34 -173 36 -187 q 28 -142 32 -158 l 28 -90 q 30 -26 28 -47 q 39 15 32 -4 q 61 67 46 35 q 129 228 83 113 q 186 343 131 228 q 276 546 228 429 q 307 624 301 606 q 338 688 311 635 q 376 776 364 740 q 403 837 389 811 q 434 863 417 863 q 467 867 451 864 q 497 869 482 869 q 520 867 513 869 q 539 863 528 864 l 561 864 q 593 853 581 864 q 603 847 597 850 q 608 832 608 843 q 540 683 608 790 q 535 674 536 676 q 500 597 533 672 q 407 399 461 507 q 339 238 353 290 q 312 174 331 208 q 263 65 293 139 q 253 53 260 58 q 231 1 243 43 l 218 -39 l 219 -53 q 211 -74 219 -64 q 193 -83 203 -83 q 171 -50 175 -83 q 140 -1 165 -6 q 131 -6 135 -1 q 124 -13 126 -10 q 119 -19 122 -17 q 90 -81 96 -47 q 83 -143 83 -115 q 78 -187 82 -171 q 57 -206 74 -204 m 510 -32 q 438 -1 471 -32 q 396 79 406 31 l 394 85 q 403 118 394 101 l 406 125 q 444 177 419 161 q 496 193 468 193 q 572 163 538 193 q 607 86 607 133 q 590 26 607 58 q 553 -19 574 -6 q 510 -32 532 -32 m 174 668 q 156 671 165 668 q 139 668 147 668 q 94 686 114 668 q 66 702 82 694 q 50 760 50 710 q 82 847 50 815 q 143 878 114 878 q 156 876 150 878 q 204 855 182 868 q 240 813 226 842 q 254 761 254 785 q 235 707 254 735 q 174 668 214 668 z "},"&":{"ha":704,"x_min":28,"x_max":676,"o":"m 504 -217 q 482 -158 482 -217 l 482 -126 q 465 -60 482 -94 q 443 -46 456 -46 l 424 -47 q 357 -51 403 -50 q 238 -44 285 -51 q 158 -7 192 -37 q 155 -4 157 -7 q 150 -1 153 -1 q 144 -8 144 -4 q 143 -12 144 -11 l 144 -82 q 142 -110 144 -103 q 131 -117 139 -117 q 113 -97 113 -114 l 106 -44 l 101 -3 q 65 75 94 42 q 38 131 43 103 q 32 217 32 160 q 28 267 32 238 q 45 331 28 292 q 96 406 63 371 q 117 443 117 425 q 99 485 117 463 q 74 531 86 504 q 63 596 63 557 l 65 644 q 82 711 67 681 l 93 731 q 226 856 138 817 q 277 865 249 865 q 318 867 306 865 q 343 868 331 868 q 375 864 360 868 q 483 811 435 850 l 499 800 q 525 779 514 793 q 540 755 532 765 q 552 734 547 744 q 557 707 557 724 q 543 610 557 678 q 522 588 543 590 q 513 594 517 588 q 501 618 508 601 q 450 596 468 596 q 430 603 438 596 q 417 617 422 610 q 407 628 411 624 q 396 632 403 632 q 388 625 388 632 l 389 619 q 382 590 389 603 q 374 563 375 576 q 364 554 374 554 q 350 567 350 554 l 353 585 q 346 624 353 606 q 341 646 343 635 q 331 660 339 657 q 308 664 324 664 q 246 632 278 664 q 239 613 239 624 q 263 561 239 589 q 332 533 288 533 l 333 535 q 374 532 351 535 q 440 528 403 528 q 484 531 461 528 q 536 535 507 535 q 622 519 581 535 q 672 472 664 504 q 676 410 676 436 q 666 327 676 356 q 656 261 656 299 l 657 243 q 654 222 657 232 q 651 206 651 213 q 647 196 651 200 q 638 192 643 192 q 624 206 626 192 q 619 242 621 221 q 614 292 619 269 q 583 315 608 315 q 567 312 571 315 q 563 297 563 308 l 564 265 q 571 165 568 235 q 558 111 571 138 q 557 101 557 107 l 560 81 q 563 44 563 65 q 553 -7 563 4 q 542 -28 544 -18 q 539 -58 540 -39 l 539 -64 q 524 -199 539 -99 q 504 -217 521 -217 m 339 149 q 356 160 351 149 q 374 258 374 208 q 369 301 374 281 q 364 313 369 310 q 353 318 358 317 q 344 321 349 319 q 336 310 340 321 l 336 307 q 321 244 321 263 l 321 239 q 319 227 321 231 q 308 224 317 224 q 294 240 299 224 q 289 267 294 254 q 281 297 283 281 q 267 281 274 286 q 255 268 260 275 q 250 247 250 261 q 261 206 250 224 q 275 168 272 188 q 290 159 276 164 q 318 151 303 154 q 339 149 333 149 z "},"'":{"ha":197,"x_min":28,"x_max":169,"o":"m 101 686 q 88 700 88 686 l 89 707 q 88 740 88 719 q 86 774 88 761 q 69 807 81 793 q 57 825 63 815 q 54 830 56 828 q 51 834 53 832 q 50 840 50 836 q 46 874 49 857 q 42 913 43 892 q 38 947 42 933 q 31 969 35 960 q 28 988 28 978 q 33 1010 28 997 q 38 1024 36 1017 q 44 1039 40 1032 q 57 1053 47 1046 q 103 1068 82 1068 q 152 1039 135 1068 q 169 976 169 1010 q 164 943 169 958 q 151 881 153 913 q 140 818 150 849 q 122 728 122 774 l 124 706 q 104 686 124 686 l 101 686 z "},"(":{"ha":378,"x_min":28,"x_max":350,"o":"m 222 -142 q 207 -131 214 -140 q 200 -111 200 -121 q 201 -97 200 -104 q 203 -78 203 -89 q 192 -26 203 -47 q 164 17 181 -6 q 112 101 139 47 q 65 260 85 156 l 67 285 q 53 314 67 314 l 50 314 q 28 336 28 317 q 39 397 29 369 q 44 431 43 411 q 74 544 46 468 q 93 610 89 589 q 121 681 101 643 q 199 800 165 768 q 256 828 218 819 l 267 829 q 299 810 288 829 l 314 778 q 343 701 332 742 l 344 686 q 335 653 344 668 q 310 624 326 639 q 282 590 294 608 q 256 557 269 571 q 236 500 236 532 l 239 446 l 238 421 q 242 383 238 403 q 246 343 246 364 l 244 321 q 256 279 244 299 q 264 258 261 269 q 310 183 279 217 q 331 153 322 169 l 339 138 q 350 104 350 121 q 339 69 350 86 q 265 -24 300 4 q 250 -49 250 -37 l 251 -69 l 251 -107 q 242 -131 251 -119 q 222 -142 233 -142 z "},")":{"ha":363,"x_min":28,"x_max":335,"o":"m 175 -135 q 151 -117 156 -132 q 147 -80 147 -103 q 144 -47 147 -57 q 134 -32 142 -37 q 115 -22 126 -26 q 94 -8 104 -17 q 81 18 83 0 q 74 6 75 14 q 71 -13 72 -3 q 67 -33 69 -24 q 54 -43 64 -43 q 32 -7 32 -40 l 35 33 q 31 54 35 47 q 28 67 28 61 q 31 84 28 76 q 36 97 35 92 q 93 199 51 156 q 176 433 176 308 q 106 632 176 547 q 75 660 92 647 q 47 688 58 674 q 35 722 35 703 q 42 754 35 736 l 46 763 q 124 851 78 851 q 192 806 153 851 q 305 619 275 697 q 335 458 335 542 q 324 301 335 389 l 322 288 l 315 264 q 270 113 275 135 q 250 58 265 90 q 217 -46 225 7 q 212 -74 215 -60 q 208 -103 208 -87 l 208 -110 q 202 -119 208 -114 q 188 -130 196 -125 q 175 -135 179 -135 z "},"*":{"ha":239,"x_min":28,"x_max":211,"o":"m 167 783 q 142 803 157 783 q 119 824 128 824 q 96 804 110 824 q 74 785 82 785 q 59 791 67 785 q 51 806 51 797 q 56 819 51 811 q 61 832 61 826 q 40 849 61 844 q 28 868 28 851 q 51 894 28 883 q 64 906 64 901 q 59 916 64 908 q 54 936 54 924 q 60 951 54 944 q 75 957 67 957 q 99 937 85 957 q 122 917 114 917 q 145 936 132 917 q 167 956 158 956 q 182 949 176 956 q 188 936 188 942 q 184 922 188 929 q 181 908 181 914 q 204 890 181 896 q 210 885 208 889 q 211 872 211 881 q 206 853 211 857 q 193 848 200 850 q 182 844 186 846 q 178 833 178 842 q 182 822 178 829 q 186 804 186 814 q 180 790 186 796 q 167 783 174 783 z "},"+":{"ha":611,"x_min":28,"x_max":583,"o":"m 244 -24 q 232 -7 232 -22 q 221 100 232 67 q 214 165 214 128 q 214 182 214 175 q 215 197 214 189 q 217 222 215 206 q 203 268 217 257 q 172 279 190 279 q 141 275 156 279 q 117 271 126 271 l 108 272 q 92 267 99 272 q 86 253 86 263 q 83 235 86 243 q 81 219 81 228 l 82 206 q 75 193 82 197 q 61 189 68 189 q 47 192 53 189 q 40 202 42 196 q 38 213 39 208 q 29 278 31 243 l 32 325 q 31 344 32 338 q 28 356 29 351 q 30 366 28 361 q 32 376 32 371 l 32 394 q 36 450 32 422 q 64 469 39 463 q 119 475 89 475 q 161 472 146 475 l 176 469 q 194 472 186 469 q 208 476 203 475 q 214 485 214 478 q 211 504 214 492 q 206 550 206 525 q 213 599 207 578 q 218 626 215 611 q 244 648 221 642 q 299 654 268 654 l 371 651 l 388 653 q 414 588 414 653 q 413 568 414 575 q 413 556 413 561 q 411 542 413 550 q 413 517 411 529 q 415 494 415 506 l 414 479 q 431 472 415 472 l 493 476 q 551 465 525 476 q 578 418 578 454 l 576 407 q 580 365 576 388 q 583 331 583 343 l 583 322 q 576 243 576 282 q 576 219 576 232 q 571 193 576 206 q 565 165 565 181 q 553 158 565 158 q 535 170 540 158 q 529 194 529 182 l 529 219 q 515 267 529 253 q 482 281 500 281 q 468 278 475 281 q 454 276 461 276 l 428 279 q 408 249 408 279 l 411 110 q 409 69 411 74 q 407 53 407 65 q 389 42 407 42 q 374 45 381 42 q 365 56 367 49 l 365 74 q 364 83 365 79 q 361 92 363 88 q 364 99 361 94 q 368 106 367 103 l 346 108 q 310 113 329 108 l 301 111 q 290 99 296 104 q 278 88 283 94 q 274 72 274 82 l 276 51 q 271 15 276 33 q 267 -10 268 1 q 249 -22 265 -22 l 244 -24 l 244 -24 z "},",":{"ha":231,"x_min":28,"x_max":203,"o":"m 74 -183 q 46 -164 46 -182 l 56 -131 q 76 -54 76 -60 q 74 -50 76 -50 q 44 -26 61 -46 q 28 22 28 -6 q 55 81 28 49 q 107 114 82 114 l 114 113 q 178 89 154 111 q 203 38 203 67 q 185 -28 203 7 l 179 -43 q 161 -83 172 -64 q 143 -121 150 -101 q 111 -169 132 -154 q 74 -183 90 -183 z "},"-":{"ha":621,"x_min":28,"x_max":593,"o":"m 75 117 q 55 143 58 119 q 50 196 51 167 q 35 289 49 265 q 28 313 28 301 l 32 360 l 32 375 q 40 425 32 401 q 83 460 49 449 l 89 461 q 99 459 94 461 q 110 457 104 457 l 133 458 q 188 460 160 460 q 235 458 211 460 q 282 456 258 456 l 340 457 q 390 453 368 456 q 465 451 413 451 q 546 458 506 451 l 561 460 q 593 401 593 460 q 590 349 593 376 q 586 301 586 321 l 588 281 q 585 261 588 274 q 581 234 583 249 q 577 210 578 219 q 569 194 576 200 q 554 189 563 189 q 542 199 542 189 q 544 211 542 204 q 546 225 546 218 q 541 255 544 247 q 529 263 538 263 l 517 260 q 433 262 443 260 q 403 267 424 264 q 299 271 350 271 q 210 267 228 271 l 190 265 q 165 267 179 265 q 139 269 150 269 q 106 260 118 269 q 94 210 94 250 l 94 163 q 89 135 94 147 q 85 124 88 131 q 75 117 82 117 z "},".":{"ha":256,"x_min":28,"x_max":228,"o":"m 122 -143 q 56 -109 85 -140 q 28 -37 28 -78 q 60 29 31 -1 q 126 60 90 60 q 195 32 163 60 q 228 -33 228 4 l 228 -49 q 194 -117 228 -90 q 122 -143 160 -143 z "},"/":{"ha":632,"x_min":28,"x_max":604,"o":"m 158 -39 q 136 -33 149 -33 q 97 -32 104 -33 q 82 -31 90 -31 l 69 -31 q 41 -23 54 -31 q 28 -6 28 -15 l 29 0 q 38 24 35 11 q 50 51 40 38 q 83 122 71 85 q 144 251 125 219 q 156 277 151 267 q 165 301 161 288 q 183 343 171 324 q 206 394 197 368 q 238 468 217 428 q 263 524 253 494 q 293 581 274 554 q 314 617 304 594 l 357 719 l 399 825 q 417 843 406 839 l 436 857 q 453 863 444 863 q 466 861 460 863 q 479 860 472 860 q 491 861 485 860 q 508 863 497 863 q 542 860 525 863 q 574 857 558 857 q 594 842 585 854 q 604 817 604 829 l 603 810 q 577 740 588 761 q 556 700 567 719 q 404 376 514 638 q 388 344 397 360 q 371 313 378 328 q 315 196 332 219 l 304 176 q 254 53 269 97 q 221 -18 238 1 q 158 -39 204 -37 z "},":":{"ha":283,"x_min":28,"x_max":256,"o":"m 156 442 q 76 464 111 442 q 53 493 61 476 l 42 510 q 28 543 28 526 q 35 572 28 558 l 38 583 q 81 645 49 619 q 146 671 113 671 q 186 658 168 671 l 204 644 q 250 578 244 622 l 256 556 q 231 478 254 514 q 156 442 208 442 m 140 85 q 72 117 101 85 q 42 182 42 149 q 77 269 46 242 q 146 296 108 296 q 219 269 186 296 q 253 193 253 242 q 226 116 253 147 q 150 85 199 85 l 140 85 z "},";":{"ha":271,"x_min":28,"x_max":243,"o":"m 129 443 q 61 472 94 443 q 28 538 28 501 q 132 663 32 660 q 216 628 189 663 q 243 553 243 593 q 219 477 243 511 q 149 443 194 443 l 129 443 m 88 -4 q 54 13 71 -4 q 50 28 50 19 q 63 76 50 49 q 85 118 75 103 q 90 131 90 125 q 85 142 90 138 q 69 153 79 147 q 48 170 58 158 q 38 204 38 182 q 43 238 38 218 q 78 286 56 271 q 126 301 101 301 q 186 274 163 301 q 214 235 210 246 q 217 222 217 229 q 203 156 211 182 q 177 99 196 129 q 121 15 158 69 q 88 -4 106 -4 z "},"<":{"ha":508,"x_min":28,"x_max":481,"o":"m 368 -133 q 347 -115 347 -129 l 349 -100 q 345 -54 349 -83 q 342 0 342 -25 l 342 10 q 301 69 342 22 q 247 144 271 104 q 183 234 222 183 q 118 303 144 285 q 100 326 107 313 q 63 376 92 346 q 38 404 47 390 q 28 433 28 418 q 117 551 28 461 q 193 625 167 601 q 238 674 213 644 q 289 728 267 710 q 339 783 324 756 q 359 810 349 799 q 386 821 369 821 q 409 816 399 821 q 425 796 419 811 l 443 754 q 454 733 450 743 q 465 717 458 724 q 481 679 481 701 q 478 653 481 667 q 475 622 475 639 l 475 592 q 463 525 475 567 q 453 517 460 517 q 427 531 433 521 q 421 556 421 540 l 421 572 q 418 597 421 585 q 415 622 415 608 q 414 630 415 628 q 411 632 413 632 q 401 628 407 632 q 365 597 385 613 q 328 563 346 581 q 309 543 324 558 q 276 506 294 528 q 242 466 257 485 q 228 440 228 447 l 229 436 q 247 410 242 425 q 321 313 269 360 q 349 281 336 299 q 388 239 365 257 q 396 225 393 233 q 436 183 403 201 q 458 149 458 172 q 451 128 458 139 q 440 107 444 118 q 429 85 436 96 q 413 53 418 69 q 401 24 408 38 q 394 -23 394 11 q 390 -87 394 -57 q 386 -103 389 -96 q 382 -117 383 -111 q 378 -128 381 -124 q 368 -133 375 -133 z "},"=":{"ha":629,"x_min":28,"x_max":601,"o":"m 565 32 q 542 55 550 32 q 535 96 535 78 l 536 118 q 527 138 536 133 q 501 142 518 142 l 456 140 q 401 146 431 140 q 385 147 394 147 q 336 143 364 147 q 267 139 301 139 q 235 141 246 139 q 215 144 225 143 q 168 141 200 144 q 122 138 136 138 q 99 124 108 138 q 89 92 89 110 q 83 67 89 74 q 68 61 76 61 q 39 125 39 61 q 41 142 39 133 q 43 165 43 151 q 42 203 43 182 q 40 244 40 224 q 74 321 40 307 q 82 326 78 322 q 93 329 86 329 q 103 322 97 329 l 138 325 q 246 328 172 328 q 397 325 307 328 l 476 326 l 510 325 q 532 326 521 325 q 553 328 543 328 q 580 316 569 328 q 590 263 590 304 q 594 249 590 256 q 597 236 597 243 l 596 229 q 588 82 588 158 q 583 47 588 60 q 565 32 579 35 m 49 350 q 32 357 36 350 q 28 388 28 364 q 36 540 28 411 l 36 543 q 79 585 36 585 q 226 589 194 585 q 239 587 232 589 q 253 585 246 585 l 256 586 q 313 588 271 588 q 405 590 354 589 q 494 592 456 592 l 540 593 q 578 581 560 593 q 596 542 596 569 q 599 524 596 533 q 601 504 601 515 q 598 473 601 489 q 594 436 594 457 l 596 407 q 574 360 596 360 q 559 367 565 360 q 553 385 553 374 q 549 399 553 396 q 540 401 546 401 l 531 400 l 465 403 l 431 403 q 228 401 403 401 q 159 398 188 401 q 110 394 131 394 q 76 399 97 394 q 68 395 69 399 q 67 371 67 392 q 49 350 67 350 z "},">":{"ha":514,"x_min":28,"x_max":486,"o":"m 122 -128 q 102 -118 110 -128 q 94 -97 94 -108 q 96 -83 94 -89 q 97 -36 97 -76 l 99 -11 q 88 62 99 33 q 66 109 78 90 q 54 144 54 128 q 74 179 54 161 q 106 208 93 197 q 128 228 118 218 q 154 257 138 238 q 206 319 171 276 q 238 360 219 338 q 271 407 257 382 q 277 417 274 411 q 281 431 281 424 q 271 454 281 443 l 261 465 q 231 493 250 483 q 209 517 218 499 q 174 564 200 536 q 149 583 160 579 q 97 628 131 592 q 88 635 90 635 q 82 629 85 635 q 78 615 79 624 q 76 600 76 607 q 79 588 78 593 q 81 576 81 582 q 82 561 82 571 q 76 527 82 543 q 61 511 71 511 q 53 514 58 511 q 42 523 47 517 q 38 538 38 529 l 39 571 q 36 619 39 596 l 33 647 l 35 682 q 29 714 35 697 l 28 719 q 44 740 28 731 q 92 781 54 746 q 115 803 104 793 q 135 814 126 814 q 156 800 146 814 l 167 786 q 261 675 196 751 q 387 530 326 599 q 467 447 447 461 q 486 408 486 433 q 465 354 486 376 q 436 331 453 340 q 281 153 401 304 q 249 111 256 124 q 213 69 236 86 q 190 44 197 58 q 172 19 182 29 q 135 -40 135 -12 q 140 -67 135 -53 q 146 -94 146 -82 q 139 -119 146 -110 q 122 -128 132 -128 z "},"?":{"ha":600,"x_min":28,"x_max":572,"o":"m 461 125 q 432 206 432 125 q 435 263 432 238 l 436 292 q 415 324 436 322 q 399 308 401 324 q 376 257 390 282 q 349 174 349 208 q 339 138 347 144 q 319 132 331 132 q 295 135 307 132 q 275 139 283 139 q 245 133 258 139 q 221 126 232 126 q 183 171 183 129 l 183 239 q 190 301 183 276 q 218 371 196 325 q 246 408 229 392 q 292 460 263 424 q 354 529 321 497 q 368 575 368 546 q 358 625 368 600 q 326 664 347 650 q 322 668 325 665 q 315 671 319 671 q 298 657 301 668 q 294 626 294 646 l 296 594 q 291 562 296 575 q 268 546 286 549 q 257 557 263 546 l 254 561 q 240 617 240 588 q 229 654 239 646 q 214 663 219 663 q 210 661 211 663 l 181 639 q 145 609 156 621 q 135 576 135 597 l 139 531 q 133 485 139 507 q 113 464 126 464 q 106 465 110 464 q 99 469 103 467 q 88 476 94 471 q 82 490 82 481 l 85 518 l 83 543 q 88 574 85 561 q 86 581 88 578 q 68 622 68 590 q 63 652 68 642 q 51 674 58 663 q 35 706 43 686 q 28 764 28 725 q 29 778 28 772 q 38 789 31 785 l 65 807 q 143 844 99 832 q 208 867 188 857 q 220 871 215 869 q 240 872 225 872 q 333 865 301 869 q 381 857 364 861 q 407 849 397 853 q 427 843 417 846 q 450 838 438 840 q 470 829 463 836 q 483 815 478 822 q 492 803 488 808 q 503 792 497 797 q 539 740 526 771 l 549 714 q 567 650 567 685 l 565 632 q 569 601 565 611 q 572 581 572 592 q 504 404 572 544 q 486 275 486 363 l 486 196 q 461 125 486 125 m 304 -175 q 286 -166 296 -175 q 276 -147 276 -157 q 274 -122 276 -137 q 231 -61 268 -82 q 198 -22 210 -49 q 186 31 186 4 q 197 71 186 54 q 221 94 203 82 q 264 107 239 107 q 335 74 294 107 q 350 44 344 64 q 356 7 356 24 q 346 -33 356 -4 q 325 -132 325 -94 l 326 -151 q 306 -175 326 -168 l 304 -175 z "},"@":{"ha":967,"x_min":28,"x_max":939,"o":"m 731 -147 q 715 -125 715 -144 l 717 -90 q 712 -55 717 -71 q 689 -39 707 -39 q 676 -42 683 -39 l 631 -51 q 567 -67 597 -56 q 533 -69 556 -69 q 457 -65 500 -69 q 388 -57 414 -60 q 261 -8 321 -43 q 250 1 251 1 q 244 -1 247 1 q 231 -16 233 -10 q 228 -42 228 -22 q 224 -81 228 -61 q 206 -101 219 -101 q 186 -82 194 -101 q 182 -53 182 -64 l 183 -35 q 153 65 183 -8 q 133 94 144 82 q 106 131 121 106 q 75 217 92 156 q 67 242 72 229 q 35 351 35 314 q 29 410 35 389 l 28 422 q 33 449 28 435 q 39 494 39 464 l 39 501 q 51 557 39 531 q 65 600 63 583 q 77 638 68 617 q 113 692 86 658 q 245 816 174 769 q 432 874 317 863 l 451 878 q 492 883 468 883 q 533 877 510 883 q 585 869 557 871 l 618 867 q 724 826 669 857 q 804 764 778 794 q 829 736 815 750 q 884 670 857 711 q 924 554 911 629 q 933 519 926 533 q 939 488 939 504 q 934 463 939 476 q 929 433 929 449 l 931 407 q 924 356 931 381 q 918 321 919 338 q 904 196 917 304 q 886 100 896 132 l 883 89 q 871 65 883 65 q 860 78 860 65 q 858 98 860 90 q 856 111 856 106 l 857 114 l 857 122 q 841 177 857 156 q 813 199 825 199 q 789 189 803 199 q 742 167 775 179 q 717 160 731 163 q 689 150 704 157 q 678 147 683 147 q 668 150 672 147 l 638 163 q 583 192 607 172 q 569 200 576 200 q 555 196 564 200 q 525 187 546 192 q 468 179 504 182 q 400 186 456 179 q 370 199 385 186 q 347 211 356 211 l 333 208 q 317 228 321 208 q 300 278 314 247 q 271 393 271 343 q 286 458 271 426 q 332 539 306 500 q 363 569 342 560 q 396 592 385 579 q 426 607 407 606 q 532 635 481 613 q 571 642 551 642 q 632 636 588 642 q 685 615 671 633 q 699 558 699 597 q 694 488 699 528 q 686 363 689 438 q 695 338 686 346 q 715 331 704 331 q 747 354 735 331 q 769 460 769 417 l 768 476 q 769 502 768 492 q 771 522 771 513 q 757 554 771 540 q 744 575 751 558 q 716 628 736 599 q 655 683 696 658 q 540 707 614 707 q 396 685 481 707 q 243 570 304 656 q 182 421 182 485 q 183 400 182 410 l 190 364 q 215 285 192 322 q 221 272 219 279 q 286 182 233 232 q 324 140 308 161 q 393 106 333 131 q 492 85 442 85 q 626 118 560 85 q 666 125 647 124 q 703 129 685 126 q 708 128 706 129 q 713 126 711 128 q 728 111 719 118 q 744 97 738 104 q 752 80 750 89 q 761 63 754 71 q 773 47 768 56 q 778 24 778 38 q 770 -3 778 13 q 763 -35 763 -18 q 764 -53 763 -43 q 765 -75 765 -62 q 758 -118 765 -93 q 757 -122 757 -119 q 750 -140 754 -131 q 735 -149 746 -149 l 731 -147 m 503 299 q 530 307 514 299 q 546 342 546 315 q 544 379 546 363 q 542 415 542 396 l 543 450 q 529 485 543 478 q 513 490 521 489 q 508 488 510 490 q 504 481 506 485 q 501 476 503 478 q 481 425 483 450 q 475 405 478 413 q 464 397 472 397 q 451 410 453 399 q 439 432 450 422 l 436 433 q 432 396 432 414 q 469 315 432 349 q 503 299 485 299 z "},"A":{"ha":756,"x_min":28,"x_max":728,"o":"m 101 -260 q 81 -194 81 -260 l 83 -146 q 76 -99 83 -126 q 66 -81 72 -87 q 51 -71 60 -75 q 35 -58 42 -67 q 28 -29 28 -50 q 51 68 28 7 q 78 167 68 118 q 99 235 85 201 l 100 239 q 92 246 100 244 q 72 268 72 251 q 83 304 72 274 q 106 369 93 335 q 131 426 119 404 q 163 538 154 478 q 171 564 165 551 q 179 601 178 582 q 195 723 183 654 q 224 826 207 792 q 243 853 231 843 q 276 864 256 864 l 286 864 q 338 868 313 864 q 388 872 364 872 l 465 872 q 506 838 482 872 q 538 764 529 804 q 574 672 551 704 q 603 599 596 640 q 595 583 603 588 q 588 569 588 578 q 599 512 589 539 q 608 445 608 485 q 628 369 608 406 q 681 154 653 317 q 714 7 699 53 q 728 -50 728 -26 q 720 -76 728 -68 q 706 -87 713 -83 q 694 -96 699 -92 q 689 -108 689 -100 l 689 -161 q 688 -214 689 -200 q 667 -247 683 -247 q 650 -225 656 -247 l 649 -151 q 642 -117 644 -126 q 631 -104 639 -107 q 605 -101 622 -101 q 557 -96 588 -100 l 551 -96 q 541 -102 543 -96 q 539 -124 539 -108 q 538 -165 539 -139 q 531 -183 536 -176 q 518 -189 525 -189 q 500 -176 510 -189 q 490 -150 490 -164 l 490 -143 q 485 -105 490 -124 q 479 -67 479 -86 l 481 -54 q 477 -40 481 -44 q 471 -31 474 -35 q 457 42 460 14 q 452 74 456 63 q 435 85 449 85 q 425 86 429 85 q 382 94 403 94 q 322 86 351 94 q 300 80 310 82 q 284 50 290 78 q 273 -13 278 22 q 263 -78 268 -49 q 260 -101 260 -89 l 260 -125 q 253 -160 260 -146 q 236 -174 246 -174 q 224 -167 228 -174 q 219 -150 219 -160 l 221 -124 q 197 -100 221 -101 q 187 -93 193 -100 q 171 -86 181 -86 q 149 -97 158 -86 q 126 -176 126 -137 l 126 -203 q 101 -260 126 -260 m 428 329 q 431 335 431 331 q 415 399 431 347 l 399 468 q 382 490 396 481 q 366 408 379 446 q 350 332 353 369 q 379 329 365 329 l 428 329 z "},"B":{"ha":750,"x_min":28,"x_max":722,"o":"m 521 -331 q 504 -315 507 -331 l 501 -281 l 503 -260 q 471 -140 503 -233 q 467 -119 467 -131 q 447 -97 464 -97 l 413 -100 q 328 -89 374 -100 q 269 -61 283 -78 q 204 -93 221 -93 q 189 -89 196 -93 q 161 -85 182 -85 q 133 -90 142 -85 q 124 -114 124 -96 l 125 -137 q 119 -176 125 -157 q 117 -192 118 -185 q 110 -203 115 -200 q 99 -207 106 -207 q 82 -193 89 -207 q 71 -133 74 -154 q 64 -98 68 -112 q 49 -65 60 -83 q 38 -25 38 -46 q 42 11 38 -7 q 52 82 49 44 q 56 151 56 119 q 60 196 57 183 l 61 208 q 58 232 61 219 q 56 260 56 244 q 50 268 56 264 q 28 299 28 282 q 33 327 28 310 q 44 375 39 344 q 50 456 50 406 q 47 514 50 482 q 43 589 43 546 l 44 665 q 40 717 44 697 q 35 753 35 738 l 33 803 q 41 857 33 835 q 75 879 49 879 l 90 878 q 156 875 106 875 l 233 875 q 271 853 263 874 q 281 843 275 843 q 303 856 289 843 q 422 883 343 883 q 490 871 457 883 q 571 828 524 858 q 629 764 596 813 q 679 599 679 692 q 657 479 679 531 q 610 411 635 428 l 638 382 q 693 317 668 353 q 722 182 722 269 q 694 53 722 121 q 669 7 685 25 q 625 -36 653 -11 l 574 -85 q 556 -133 561 -99 q 550 -197 550 -167 q 551 -219 550 -212 q 552 -231 551 -225 q 553 -247 553 -236 q 545 -278 553 -262 q 536 -314 538 -293 q 521 -331 533 -331 m 347 97 q 446 186 443 97 q 429 232 446 215 q 381 260 413 249 q 365 263 372 263 q 341 243 346 263 q 335 201 336 224 q 331 160 335 178 q 310 143 326 143 q 293 149 297 143 q 289 165 289 154 q 290 184 289 172 q 292 210 292 196 q 283 247 292 228 l 283 243 q 281 215 283 226 q 279 185 279 203 q 282 150 279 168 l 285 132 q 283 121 285 126 q 281 110 281 115 q 297 99 283 99 l 347 97 m 314 499 q 379 532 353 500 q 408 557 390 547 q 414 569 414 561 q 406 603 414 585 q 393 631 399 622 q 388 585 393 600 q 369 571 383 571 q 351 599 351 571 l 351 608 q 338 663 351 647 q 310 678 325 678 q 286 649 286 678 l 288 626 l 286 593 q 288 563 286 578 q 290 526 290 547 l 290 510 q 299 496 290 496 l 314 499 z "},"C":{"ha":708,"x_min":28,"x_max":681,"o":"m 636 -292 q 613 -275 621 -292 q 604 -244 604 -258 l 606 -217 q 601 -187 606 -204 q 582 -148 596 -169 q 553 -120 568 -126 q 517 -114 539 -114 l 486 -114 q 428 -117 463 -117 q 271 -104 369 -117 q 243 -90 256 -100 q 222 -79 231 -79 q 197 -96 201 -79 q 193 -128 194 -107 q 172 -178 193 -178 q 150 -162 161 -178 q 139 -118 139 -142 l 138 -87 l 139 -72 q 132 -24 139 -47 q 117 24 125 0 q 107 50 111 33 q 72 114 93 114 l 64 113 q 33 182 33 113 l 36 214 q 32 313 36 268 q 28 424 28 367 q 51 576 28 518 l 61 601 q 115 696 82 653 q 147 743 132 718 q 205 799 158 763 q 310 858 251 835 q 333 861 321 861 q 354 863 344 861 q 432 872 393 872 q 651 794 551 872 q 679 739 679 771 q 676 718 679 729 q 672 674 672 696 l 672 663 q 663 613 672 632 q 646 600 656 600 q 632 606 640 600 q 617 611 624 611 q 590 586 601 611 q 578 536 578 561 q 581 503 578 518 q 583 475 583 488 q 550 439 583 440 q 526 455 532 439 q 521 494 521 471 q 524 547 521 519 q 526 597 526 574 q 511 644 526 632 q 424 665 465 665 q 331 625 372 665 l 321 617 q 260 481 264 578 q 256 438 260 463 q 250 383 250 421 q 261 250 250 308 q 276 210 265 221 q 293 176 286 200 q 317 149 300 153 q 333 142 325 147 q 351 121 342 138 q 397 100 367 100 q 482 120 435 100 q 558 158 529 140 q 569 161 563 161 q 597 150 582 161 q 618 122 613 139 q 641 66 629 86 q 662 34 653 46 q 676 13 671 22 q 681 -10 681 4 l 679 -26 q 658 -231 658 -121 l 656 -269 q 636 -292 649 -292 z "},"D":{"ha":803,"x_min":28,"x_max":775,"o":"m 618 -371 q 596 -355 600 -371 q 592 -321 592 -339 l 593 -286 q 589 -210 592 -236 l 569 -118 q 542 -89 563 -89 q 499 -100 524 -89 q 414 -117 444 -117 q 349 -103 383 -117 l 329 -96 q 290 -76 308 -89 q 285 -74 288 -74 q 278 -78 281 -74 q 229 -99 263 -87 q 213 -103 221 -103 q 195 -100 204 -103 q 178 -97 186 -97 q 140 -125 157 -97 l 140 -126 q 114 -192 114 -162 q 93 -221 114 -221 q 71 -204 81 -221 q 64 -151 64 -179 l 64 -107 q 54 -43 64 -74 l 56 168 l 54 253 q 41 275 54 269 q 28 303 28 281 q 40 378 28 332 q 58 494 58 438 q 56 525 58 510 q 50 588 50 556 l 49 632 l 47 657 q 50 709 47 683 q 53 769 53 735 q 60 789 53 781 q 71 806 68 797 q 143 857 89 854 q 171 858 157 857 q 200 860 185 860 q 264 829 240 860 q 276 821 269 821 q 288 826 281 821 q 406 865 332 865 q 533 849 472 865 q 538 847 535 847 q 587 822 547 847 q 673 731 626 797 q 750 546 719 665 q 763 460 758 503 q 771 394 765 426 q 769 355 771 367 q 767 326 767 343 q 771 265 767 293 q 775 215 775 238 q 751 192 775 192 q 744 185 749 192 q 699 75 735 124 l 696 71 q 643 -167 664 15 l 632 -235 l 631 -256 q 633 -295 631 -275 q 635 -332 635 -315 q 618 -371 635 -368 m 390 165 q 415 173 406 165 q 431 190 424 181 q 446 206 438 199 q 472 232 465 218 q 480 263 478 246 q 489 299 482 279 q 510 369 510 349 q 507 385 510 378 q 504 408 504 392 l 506 442 q 473 553 506 504 q 419 601 440 601 q 408 594 411 601 q 403 585 404 588 q 399 561 399 574 q 396 501 399 525 q 390 400 392 472 q 372 378 389 381 q 365 380 368 378 q 360 385 363 382 q 356 390 358 388 q 351 396 353 392 q 350 409 350 400 q 347 449 350 418 q 338 512 344 481 q 324 557 332 543 q 319 503 319 550 q 326 299 319 446 l 329 199 l 329 183 q 335 169 329 171 q 356 167 340 167 l 390 165 z "},"E":{"ha":717,"x_min":28,"x_max":688,"o":"m 140 -447 q 114 -393 114 -447 l 115 -371 q 100 -247 100 -296 l 100 -239 q 95 -180 100 -206 q 72 -133 90 -154 q 63 -122 65 -128 q 58 -105 61 -117 q 33 -36 54 -93 q 28 -12 28 -25 q 32 1 28 -6 q 45 38 42 18 q 50 88 49 57 q 61 204 51 129 q 58 241 61 228 q 56 267 56 254 l 57 335 q 61 455 60 393 q 64 539 63 517 q 60 572 64 556 q 57 603 57 588 l 58 611 q 60 622 58 619 q 50 629 58 629 l 44 629 q 31 651 31 629 q 40 729 31 675 q 46 771 46 757 l 46 778 q 52 814 46 796 q 85 846 58 832 q 158 863 122 863 q 207 860 181 863 q 314 854 244 854 q 377 856 347 854 q 478 858 407 858 q 512 863 496 858 q 572 868 528 868 q 643 864 600 868 q 681 828 675 858 q 688 767 688 799 l 688 749 q 682 701 688 722 q 669 656 676 679 q 633 492 649 604 q 626 463 632 476 q 604 449 621 449 q 581 499 581 450 q 583 548 581 522 q 586 592 586 574 q 574 626 586 626 q 563 624 568 625 q 549 622 558 622 q 524 625 536 622 q 501 628 513 628 l 456 628 q 407 622 431 628 q 394 621 401 621 q 365 625 381 621 q 335 631 350 629 q 310 610 310 631 l 310 593 q 306 567 306 581 q 309 532 306 549 q 314 500 313 515 q 319 490 315 490 q 329 493 324 490 q 361 499 340 499 q 380 495 369 499 q 411 492 390 492 l 447 493 q 489 483 471 493 q 507 439 507 474 l 507 385 q 490 304 507 342 q 479 232 479 271 l 479 221 q 477 201 479 210 q 461 193 475 193 q 439 222 439 193 q 441 244 439 235 q 443 264 443 254 q 431 272 443 272 q 380 269 394 272 q 357 262 365 265 q 340 258 349 258 q 328 260 333 258 q 315 264 322 263 q 308 257 308 264 l 310 246 q 314 224 314 238 q 312 195 314 208 q 310 171 310 182 q 325 137 310 150 q 396 124 340 124 q 432 125 415 124 q 474 128 449 126 q 558 122 507 128 q 632 103 610 115 q 674 56 661 86 q 686 -36 686 26 q 674 -232 686 -106 q 657 -278 669 -264 q 631 -293 644 -293 q 609 -283 618 -293 q 600 -257 600 -274 q 603 -235 600 -247 q 607 -210 607 -222 q 597 -158 607 -183 q 592 -138 594 -147 q 585 -127 590 -129 q 569 -125 579 -125 q 550 -124 558 -125 q 494 -121 522 -121 q 469 -122 478 -121 q 449 -124 460 -124 q 426 -122 438 -124 q 400 -119 414 -119 q 328 -112 360 -119 q 279 -107 301 -107 q 233 -123 253 -107 q 198 -183 213 -139 q 174 -312 183 -228 l 172 -350 l 172 -360 q 165 -415 172 -387 q 140 -447 153 -447 z "},"F":{"ha":719,"x_min":28,"x_max":692,"o":"m 286 -292 q 271 -281 278 -292 q 263 -239 263 -260 l 263 -215 q 258 -171 263 -193 q 256 -137 257 -156 q 233 -118 254 -118 l 214 -119 q 171 -115 185 -119 q 156 -112 161 -112 q 138 -125 144 -112 q 124 -165 126 -149 q 121 -190 121 -181 q 119 -203 121 -199 q 107 -210 117 -208 q 89 -199 96 -210 q 78 -174 82 -187 q 74 -154 74 -161 q 65 -99 74 -126 q 56 -44 56 -72 l 60 7 q 69 60 60 32 l 68 78 q 72 108 68 94 q 76 157 76 121 l 75 256 q 78 299 75 278 q 81 367 81 319 q 79 440 81 401 q 76 507 78 479 q 74 536 74 535 q 65 585 65 561 q 67 619 65 603 q 68 649 68 635 q 65 674 68 661 q 62 665 64 669 q 56 658 60 661 q 49 654 53 654 q 32 663 36 656 q 28 686 28 671 q 39 772 28 731 q 75 839 50 813 q 140 865 100 865 l 186 861 q 260 857 215 857 l 308 858 q 338 854 324 858 q 383 850 351 850 q 433 856 404 850 q 503 861 469 861 q 568 849 536 861 l 576 847 q 597 851 585 847 q 624 856 608 856 q 669 833 646 856 q 692 776 692 811 q 687 749 692 764 q 682 715 682 733 l 682 697 q 678 654 682 672 q 674 624 674 636 l 676 583 q 664 506 676 558 q 647 489 660 489 q 629 517 629 490 q 630 532 629 526 q 632 544 631 538 q 635 561 633 551 q 614 608 635 581 q 609 615 611 613 q 605 619 607 618 q 599 619 603 619 q 574 619 594 619 q 454 622 457 621 q 414 628 433 628 q 371 624 392 628 q 331 619 350 621 q 313 593 313 617 l 313 583 q 318 535 318 560 l 319 506 q 351 485 322 485 q 380 486 363 485 q 421 488 397 488 q 479 482 447 488 q 528 424 528 469 l 526 408 q 522 357 522 382 q 516 304 521 317 q 504 283 511 292 q 475 186 482 256 l 475 179 q 472 152 475 165 q 454 139 468 139 q 436 146 440 139 q 432 168 432 153 l 433 232 q 432 261 433 251 q 426 274 431 271 q 368 276 421 276 q 339 267 347 276 q 325 243 331 257 q 319 224 319 229 q 322 209 319 217 q 324 189 324 201 l 322 121 q 314 54 322 88 q 308 10 308 26 q 313 -24 308 -12 q 318 -56 318 -36 q 311 -97 318 -71 q 301 -174 301 -139 q 303 -222 301 -201 q 306 -256 306 -242 q 301 -281 306 -269 q 286 -292 296 -292 z "},"G":{"ha":843,"x_min":28,"x_max":815,"o":"m 686 -293 q 668 -276 676 -293 q 660 -225 660 -260 q 664 -135 661 -162 l 665 -108 l 665 -99 q 657 -51 658 -74 q 597 -82 640 -75 l 596 -82 q 547 -98 567 -89 q 499 -112 526 -107 q 483 -111 490 -112 q 468 -110 476 -110 q 432 -114 449 -111 q 383 -118 408 -118 q 342 -112 363 -118 q 221 -42 244 -76 q 196 -22 207 -22 q 188 -40 189 -22 q 179 -100 183 -87 q 164 -112 175 -112 q 140 -71 140 -112 q 139 -8 140 -29 l 136 24 q 100 114 133 74 q 56 250 82 136 q 54 251 54 250 q 47 261 54 258 q 28 293 28 265 q 33 344 28 313 q 46 508 43 400 q 58 553 46 533 l 67 575 q 203 804 101 697 q 288 854 240 844 q 313 863 301 856 q 338 872 324 869 q 450 885 393 885 q 576 858 517 885 q 669 804 647 824 q 690 761 690 785 l 690 707 q 687 651 690 661 q 675 640 683 640 q 663 651 665 640 q 657 674 660 663 q 643 606 647 647 q 633 549 639 574 q 610 524 626 524 q 597 529 603 524 q 592 543 592 535 l 593 563 q 518 660 593 614 q 449 688 471 688 q 402 672 424 688 q 374 635 381 657 q 356 558 360 586 q 344 506 351 529 q 329 493 342 493 q 310 529 310 493 q 306 599 310 576 q 290 563 294 581 l 286 549 q 257 414 257 454 q 259 380 257 393 q 261 350 261 367 q 263 336 261 342 q 264 325 264 331 l 263 311 q 267 299 263 303 q 283 258 276 285 q 322 175 293 218 q 429 111 351 132 q 454 108 442 108 q 558 157 507 108 q 576 188 571 169 q 585 207 579 199 q 600 268 600 233 l 601 281 q 595 292 601 290 q 574 294 589 294 q 544 280 550 294 q 535 249 538 265 q 518 219 531 219 q 499 232 503 219 q 494 272 494 244 q 483 383 494 310 l 482 401 q 492 448 482 425 q 527 475 503 471 q 571 479 551 479 q 611 476 597 479 q 635 474 625 474 q 653 478 644 474 q 671 482 661 482 q 706 478 692 478 l 743 479 q 778 472 763 479 q 799 442 793 465 q 806 400 806 419 q 804 374 806 388 q 803 342 803 361 q 814 238 803 304 l 815 219 q 811 193 815 204 q 800 182 807 182 l 790 185 q 782 172 782 185 l 781 168 q 753 76 778 150 q 729 6 740 39 q 718 -37 718 -28 l 719 -65 q 715 -154 719 -110 q 710 -244 710 -199 q 702 -281 710 -268 q 686 -293 694 -293 z "},"H":{"ha":749,"x_min":28,"x_max":721,"o":"m 679 -253 q 663 -242 671 -253 q 656 -215 656 -231 q 653 -181 656 -190 q 646 -145 646 -158 q 641 -122 646 -132 q 617 -101 636 -112 q 557 -90 592 -90 q 535 -115 542 -90 q 526 -158 531 -147 q 511 -169 521 -169 q 497 -164 500 -169 q 493 -103 493 -158 q 483 1 483 -50 q 485 40 483 21 q 488 79 488 58 q 485 135 488 107 q 483 192 483 163 l 485 219 q 468 266 485 244 q 422 288 451 288 q 381 264 388 288 q 374 231 375 247 q 370 203 374 214 q 356 192 367 192 q 343 199 346 192 q 340 222 340 206 q 338 252 340 239 q 328 276 336 265 q 315 256 317 267 q 313 225 313 244 q 308 81 313 139 q 285 -142 303 17 q 280 -191 282 -185 q 265 -199 278 -197 q 253 -186 256 -199 q 249 -156 250 -174 q 238 -103 246 -128 q 196 -78 229 -78 l 171 -79 q 138 -71 154 -79 q 129 -68 133 -68 q 119 -79 122 -68 l 113 -121 q 103 -185 103 -151 q 95 -209 103 -200 q 79 -218 88 -218 q 63 -190 63 -218 l 64 -167 q 61 -111 64 -139 q 58 -56 58 -83 q 63 -8 58 -32 q 76 128 69 38 q 79 235 79 175 q 76 304 76 263 q 78 422 76 360 q 81 536 81 485 q 75 640 81 604 q 69 620 72 631 q 65 601 65 610 q 59 587 64 592 q 47 582 54 582 q 34 597 36 582 q 32 669 32 613 q 28 728 28 690 q 40 795 28 761 q 93 863 53 829 q 131 874 110 874 q 156 872 143 874 q 179 871 168 871 q 202 873 192 871 q 222 875 213 875 q 281 866 254 875 q 308 828 308 857 q 313 778 308 799 q 317 685 315 763 l 315 583 q 328 532 315 543 q 388 521 340 521 l 439 521 q 488 560 488 524 q 485 585 488 571 q 482 615 482 599 l 481 671 l 482 675 q 481 683 482 682 q 467 706 467 693 q 469 726 467 714 q 475 807 475 749 q 485 844 475 832 q 517 864 494 857 q 592 876 554 876 l 651 874 q 692 853 676 874 q 707 808 707 833 q 706 778 707 792 q 701 707 701 751 q 717 511 701 633 q 721 478 721 485 q 713 453 718 456 q 703 450 707 451 q 692 439 692 450 q 696 119 694 129 q 707 -40 697 18 q 710 -61 710 -50 q 704 -115 710 -76 q 702 -195 704 -179 q 694 -236 700 -211 q 679 -253 689 -253 z "},"I":{"ha":335,"x_min":28,"x_max":307,"o":"m 82 -312 q 66 -299 74 -312 q 58 -269 58 -286 l 58 -251 q 53 -200 57 -239 q 44 -118 49 -161 q 39 -58 39 -75 l 42 -3 q 46 142 46 68 q 44 194 46 178 l 44 203 q 46 221 44 213 q 47 239 47 229 l 47 269 q 44 399 44 321 l 44 531 q 36 552 44 544 q 28 578 28 560 l 29 600 q 38 699 38 663 q 33 757 38 739 l 32 781 q 40 815 32 793 q 65 853 49 836 q 104 869 81 869 q 138 865 118 869 q 185 860 158 860 q 212 862 203 860 q 233 865 221 864 q 269 841 258 865 q 281 790 281 817 q 277 765 281 776 q 274 714 274 754 q 277 599 274 667 q 281 482 281 531 q 278 433 281 446 q 276 411 276 421 q 290 342 276 376 q 300 279 299 311 l 307 224 q 288 199 307 204 q 275 185 275 194 l 276 163 q 274 119 276 140 q 271 78 271 99 q 283 3 274 31 q 290 -37 290 -19 q 278 -69 290 -56 q 275 -79 275 -74 l 275 -101 q 253 -244 275 -160 q 240 -257 249 -257 q 227 -249 235 -257 q 217 -219 219 -242 l 213 -179 q 205 -125 208 -128 q 188 -122 201 -122 l 131 -125 q 119 -133 122 -125 l 111 -162 q 97 -226 97 -194 l 99 -242 q 95 -297 99 -281 q 82 -312 92 -312 z "},"J":{"ha":651,"x_min":28,"x_max":624,"o":"m 57 -354 q 36 -332 43 -354 q 29 -307 32 -325 l 29 -160 l 31 -65 q 29 -26 31 -32 q 28 -11 28 -19 q 43 32 28 7 q 72 100 65 68 q 88 147 78 124 q 125 196 99 169 q 153 208 139 208 q 186 183 174 208 q 196 167 190 174 q 209 160 201 161 q 222 157 217 160 q 232 150 226 154 q 242 142 238 146 q 254 139 247 139 q 332 215 332 161 l 331 228 l 343 285 q 354 417 354 340 q 351 543 351 497 l 353 653 q 349 764 349 744 q 367 841 349 817 q 447 865 385 865 q 533 860 482 865 q 593 806 581 850 q 606 724 606 761 l 607 588 q 617 438 607 513 q 624 351 624 394 q 623 292 624 321 q 600 263 622 263 l 590 264 q 593 247 593 254 q 590 222 593 235 q 588 199 588 210 l 589 126 q 585 78 589 96 q 575 35 582 61 q 560 -21 568 15 q 538 -157 538 -115 l 538 -187 q 539 -214 539 -200 q 532 -276 539 -239 q 529 -307 529 -292 q 526 -334 529 -322 q 511 -347 524 -346 q 492 -322 497 -347 q 483 -260 486 -296 q 472 -183 479 -218 q 442 -147 464 -147 q 425 -151 435 -147 q 346 -168 390 -168 q 271 -161 308 -168 q 206 -149 233 -154 l 179 -143 q 153 -131 164 -139 q 135 -122 142 -122 q 103 -169 125 -122 q 92 -217 92 -192 l 93 -240 q 89 -288 93 -261 q 76 -335 85 -315 q 57 -354 68 -354 z "},"K":{"ha":764,"x_min":28,"x_max":736,"o":"m 97 -358 q 81 -339 81 -358 l 82 -311 q 72 -168 82 -258 q 58 42 58 -56 q 65 135 58 94 l 67 149 q 65 172 67 160 q 63 196 63 183 q 68 292 68 240 l 68 307 q 75 394 68 351 l 76 415 q 75 439 76 426 q 74 465 74 451 l 75 488 q 56 478 64 478 q 40 522 40 482 q 43 577 40 544 q 46 646 46 610 q 33 739 46 696 q 28 768 28 754 q 65 838 28 803 q 144 867 94 867 q 189 864 165 867 l 224 861 q 299 790 299 854 q 294 703 294 749 q 296 626 294 664 q 297 522 297 588 q 296 490 296 517 q 306 476 297 476 q 317 482 311 476 q 379 583 350 522 q 439 688 404 639 q 485 776 468 729 q 519 848 500 818 q 578 878 539 878 q 601 875 589 878 q 650 867 626 869 q 707 856 683 864 q 731 818 731 847 q 726 783 731 804 q 721 740 721 763 l 722 707 q 715 631 722 664 q 708 576 711 604 q 690 560 708 560 q 675 581 675 560 l 678 596 q 686 671 686 653 q 676 685 686 685 q 663 665 663 685 q 633 604 663 657 q 580 510 610 561 q 527 419 550 460 q 504 372 504 379 q 506 367 504 368 q 510 366 507 367 q 517 361 514 365 l 540 336 q 600 264 574 303 q 614 240 608 253 q 635 208 622 222 q 669 158 653 189 q 695 97 685 126 q 706 51 706 67 q 713 33 706 44 q 728 6 721 22 q 736 -35 736 -10 q 731 -75 736 -53 q 722 -157 722 -112 l 722 -169 q 715 -240 722 -206 q 710 -295 710 -268 q 706 -343 710 -322 q 700 -351 704 -347 q 690 -356 696 -356 q 669 -296 669 -356 q 671 -258 669 -274 q 674 -217 672 -242 q 664 -148 674 -182 q 628 -114 654 -114 q 608 -117 614 -117 l 567 -117 q 507 -68 522 -117 q 456 51 494 -32 l 436 93 q 411 24 411 75 l 411 -7 l 413 -31 q 400 -60 413 -58 q 388 -44 388 -60 l 389 -26 q 385 30 389 1 q 382 92 382 58 q 363 208 382 174 q 315 264 344 243 q 308 268 313 268 q 302 265 304 267 q 300 257 300 264 q 307 108 307 188 q 302 -69 307 19 q 292 -215 297 -157 q 286 -278 288 -272 q 272 -293 281 -293 q 263 -288 267 -293 q 258 -265 258 -283 q 244 -135 258 -172 q 210 -108 233 -108 q 197 -110 204 -108 q 185 -112 190 -112 q 154 -104 167 -112 q 140 -100 146 -100 q 133 -114 135 -100 q 126 -169 132 -142 q 118 -224 119 -196 l 119 -297 q 97 -358 119 -358 z "},"L":{"ha":682,"x_min":28,"x_max":654,"o":"m 94 -282 q 76 -270 85 -282 q 67 -237 68 -258 q 51 -64 63 -128 q 44 18 44 -17 q 48 46 44 33 q 51 72 51 58 q 48 94 50 83 q 46 121 46 104 q 50 171 46 144 q 54 238 54 197 q 47 297 54 288 l 40 306 q 28 335 28 315 q 31 358 28 344 q 50 549 50 488 l 47 640 q 50 681 47 658 q 53 729 53 704 q 48 784 53 760 q 43 825 43 808 q 53 857 43 844 q 125 876 67 876 l 185 875 q 213 876 203 875 q 232 879 224 878 q 285 819 279 879 l 293 561 q 290 531 293 535 q 281 526 286 528 q 269 499 269 521 q 272 466 269 485 q 274 424 274 447 q 271 388 274 403 l 269 368 q 272 340 269 354 q 278 256 278 310 l 276 196 q 281 164 276 179 q 286 135 285 149 q 294 126 286 126 l 335 125 q 359 129 347 125 q 382 133 371 133 l 421 131 l 496 132 q 597 122 557 132 q 642 85 638 113 q 649 58 644 72 q 654 17 653 44 q 639 -50 654 -18 q 621 -103 629 -68 l 604 -208 q 586 -228 600 -228 q 570 -196 571 -228 q 560 -131 569 -164 q 511 -90 550 -99 q 432 -85 463 -85 q 368 -90 389 -85 q 319 -96 347 -96 q 277 -92 300 -96 q 240 -89 254 -89 q 209 -92 219 -89 q 178 -96 199 -96 q 144 -93 164 -96 q 139 -100 139 -93 l 129 -132 q 118 -187 118 -158 l 119 -224 q 112 -268 119 -254 q 94 -282 104 -282 z "},"M":{"ha":783,"x_min":28,"x_max":756,"o":"m 60 -279 q 49 -275 54 -279 q 44 -262 44 -271 q 33 -78 33 -133 q 44 0 33 -26 q 57 104 57 33 q 60 140 57 118 q 64 178 64 161 q 50 204 64 204 q 28 229 28 204 q 65 453 36 343 l 79 506 q 83 533 83 525 q 78 543 81 539 q 75 554 75 547 q 77 571 75 561 q 79 596 79 581 q 71 642 79 615 q 63 688 63 668 q 65 725 63 706 q 71 818 71 750 q 122 874 71 874 q 174 876 160 874 q 207 881 188 879 q 241 877 224 881 q 278 874 258 874 q 288 863 288 874 q 301 831 289 863 q 319 767 313 799 q 333 714 324 742 q 347 654 342 686 q 365 583 351 617 q 372 555 371 569 q 378 528 374 540 q 399 515 383 517 q 405 521 403 515 q 410 536 407 526 q 447 658 415 560 q 450 674 450 667 q 446 692 450 685 q 442 708 442 700 q 453 736 442 719 q 481 819 474 776 q 485 840 482 831 q 549 892 503 892 q 578 888 564 890 q 619 886 593 886 q 657 889 643 886 q 703 856 690 889 q 717 783 717 824 q 713 718 717 751 q 710 654 710 685 q 715 601 710 624 q 713 586 715 593 q 710 571 710 579 q 715 463 715 526 q 729 356 719 400 q 738 297 738 321 q 731 267 738 278 q 724 244 724 256 l 725 226 q 731 151 731 210 q 735 80 731 106 q 748 -6 740 54 q 756 -110 756 -65 q 753 -142 756 -129 q 745 -188 747 -171 q 740 -212 743 -206 q 729 -219 738 -219 q 718 -215 721 -219 q 715 -200 715 -211 l 717 -178 q 676 -90 717 -90 l 651 -92 q 609 -90 625 -92 q 583 -89 593 -89 q 558 -94 567 -89 q 546 -115 550 -100 q 531 -219 531 -167 q 529 -247 531 -244 l 529 -250 q 527 -257 528 -253 q 524 -266 526 -261 q 514 -271 522 -271 q 497 -252 500 -269 q 494 -203 494 -235 l 494 -189 q 489 -96 494 -150 l 489 -81 q 501 -21 489 -50 q 506 -10 506 -12 q 496 67 497 15 q 494 175 494 118 q 482 335 494 322 q 447 272 463 306 q 419 222 431 239 q 403 181 408 204 q 389 168 399 168 q 368 196 374 168 q 353 250 368 214 q 311 325 322 322 q 300 272 300 292 l 301 257 q 293 168 301 215 q 288 117 289 143 q 282 63 288 92 q 272 5 276 35 q 261 -54 268 -25 q 251 -124 253 -99 q 244 -162 249 -150 q 228 -175 240 -174 q 218 -172 221 -175 q 214 -165 215 -168 q 211 -160 213 -161 q 207 -136 207 -150 l 207 -131 q 200 -106 207 -118 q 149 -89 193 -93 q 88 -147 94 -89 q 83 -201 83 -174 q 71 -275 83 -264 q 60 -279 65 -279 z "},"N":{"ha":707,"x_min":28,"x_max":679,"o":"m 222 -286 q 192 -236 192 -286 l 193 -210 q 199 -112 199 -187 q 189 -103 199 -103 l 181 -104 q 156 -99 167 -104 q 129 -93 144 -93 q 101 -97 114 -93 q 78 -172 78 -104 q 80 -192 78 -183 q 82 -222 82 -201 q 65 -251 82 -251 q 42 -237 54 -251 q 31 -199 31 -224 q 33 -178 31 -189 q 44 -47 38 -153 q 56 190 51 60 q 61 403 61 319 q 60 464 61 443 l 58 465 q 56 476 58 472 q 45 481 54 479 q 32 494 36 482 q 28 519 28 506 q 31 547 28 535 q 44 749 44 632 q 51 835 44 808 q 92 867 58 863 q 161 872 126 872 q 221 875 190 872 q 264 853 240 875 q 294 813 288 832 q 317 726 308 756 q 331 683 325 697 q 341 662 336 669 q 351 643 346 654 q 363 610 356 632 q 380 570 369 589 q 397 535 390 551 q 436 463 408 493 q 442 469 442 465 q 439 521 439 496 q 436 567 439 556 q 432 643 432 621 q 438 685 432 661 q 444 751 443 710 q 463 860 444 828 q 496 879 472 879 l 504 879 q 521 878 508 878 l 554 879 q 592 874 572 879 l 600 872 q 615 874 607 872 q 631 876 622 876 q 668 858 658 875 q 678 814 678 842 q 674 751 678 789 q 665 635 668 703 q 661 456 664 511 l 660 392 q 662 344 660 365 q 668 239 664 322 q 674 200 668 217 q 679 175 678 193 l 679 96 q 677 90 678 93 q 675 86 676 88 q 658 61 658 79 l 658 47 q 660 14 660 35 q 638 -153 660 -36 q 618 -176 633 -176 q 603 -156 603 -175 l 604 -125 q 567 -89 604 -89 q 505 -117 518 -92 q 492 -181 492 -143 l 493 -215 q 478 -249 493 -249 q 464 -235 464 -249 l 465 -221 q 462 -172 465 -196 q 458 -124 458 -147 l 460 -103 q 456 -68 460 -86 q 454 -47 454 -58 q 439 -12 450 -29 l 419 24 q 400 63 411 43 q 394 51 396 57 q 389 40 392 44 q 379 36 386 36 q 363 58 363 36 q 355 88 363 64 q 321 193 347 113 q 310 238 311 222 q 286 279 310 253 l 282 283 l 282 201 q 281 191 282 192 q 281 189 281 190 q 265 143 265 167 l 267 124 q 264 61 267 81 q 261 -17 261 35 l 264 -53 q 251 -87 264 -78 q 238 -118 238 -96 l 239 -143 q 240 -203 240 -164 q 236 -274 240 -264 q 222 -286 232 -283 z "},"O":{"ha":765,"x_min":28,"x_max":738,"o":"m 617 -422 q 593 -312 593 -419 l 594 -212 q 588 -113 594 -156 q 557 -71 582 -71 q 529 -84 546 -71 q 483 -107 513 -97 q 381 -117 453 -117 q 253 -89 290 -110 q 219 -76 232 -76 q 197 -111 203 -76 l 192 -144 q 181 -226 181 -185 l 182 -237 q 161 -265 178 -265 q 140 -251 150 -265 q 129 -208 129 -237 l 131 -186 q 93 86 131 -81 l 79 147 q 67 218 69 197 q 63 242 64 239 q 58 246 61 246 q 28 290 28 246 q 40 374 28 324 q 67 483 51 424 q 99 604 83 542 q 117 651 103 618 q 149 719 131 683 q 189 779 168 756 q 309 865 254 851 q 414 879 364 879 l 463 879 q 549 847 499 879 q 625 782 599 815 q 706 619 674 724 q 738 381 738 514 q 710 150 738 272 q 708 120 708 140 q 707 79 708 100 q 701 43 706 58 q 683 28 696 28 q 674 30 678 28 q 664 33 669 32 q 660 31 661 33 q 658 27 658 29 q 657 24 658 25 q 642 -68 642 -32 q 638 -206 640 -142 q 635 -333 635 -271 l 636 -393 q 619 -424 636 -424 l 617 -422 m 382 97 q 446 133 413 97 q 506 422 506 199 q 483 603 506 529 q 449 633 478 615 q 426 640 436 640 q 374 591 383 628 q 365 518 365 554 l 365 492 q 364 464 365 476 q 347 446 361 446 q 329 460 333 446 q 325 489 325 474 q 315 533 324 514 l 307 463 q 304 432 304 447 q 306 395 304 417 q 307 343 307 374 l 313 285 q 308 260 313 271 q 304 240 304 249 q 315 213 304 225 q 327 189 321 203 q 333 151 333 175 q 349 113 333 128 q 382 97 364 97 z "},"P":{"ha":738,"x_min":28,"x_max":710,"o":"m 250 -344 q 229 -307 229 -344 l 229 -278 q 231 -231 231 -257 q 221 -126 231 -186 q 210 -117 218 -118 q 197 -114 203 -115 q 149 -107 174 -108 q 110 -128 122 -107 q 96 -176 99 -150 q 93 -219 93 -203 q 92 -231 93 -228 q 74 -256 86 -256 q 56 -240 58 -256 q 51 -185 51 -208 q 49 -139 51 -162 q 36 -82 47 -115 l 36 -81 q 33 -67 33 -74 q 39 -1 39 -39 q 44 97 39 68 q 47 121 47 111 q 43 133 47 129 q 28 167 28 143 q 38 232 28 192 q 54 381 54 319 l 53 418 l 56 469 q 60 592 57 521 q 63 719 63 664 q 62 767 63 753 q 60 790 61 782 q 58 806 58 797 q 93 861 58 846 q 265 885 164 885 q 515 848 392 885 q 669 739 639 811 q 685 703 676 721 q 702 660 694 685 q 710 597 710 636 q 698 501 710 560 q 669 409 686 443 q 635 353 651 375 q 613 317 622 335 q 604 275 604 300 l 606 254 q 599 223 606 238 q 593 188 593 208 l 594 156 q 582 132 594 132 q 569 138 571 132 q 565 158 567 144 q 553 226 565 181 q 550 243 550 235 l 551 257 q 549 295 551 286 q 539 304 546 304 q 524 300 533 304 q 420 283 482 288 q 324 278 358 278 l 300 279 q 285 274 290 279 q 281 263 281 268 q 283 249 281 256 q 285 229 285 242 q 278 181 285 204 q 271 113 272 157 q 268 11 271 44 q 273 -24 268 -15 q 278 -46 278 -33 q 275 -69 278 -57 q 272 -101 272 -81 q 276 -179 272 -135 q 279 -264 279 -224 q 274 -322 279 -299 q 250 -344 268 -344 m 388 463 q 451 490 411 463 q 483 561 483 522 q 458 629 483 600 q 399 658 433 658 q 344 596 353 658 l 343 578 q 338 540 342 550 q 317 529 333 529 q 307 535 310 529 q 304 544 304 540 q 303 549 304 547 l 303 586 q 296 624 303 608 q 290 617 290 621 l 292 592 q 290 555 292 572 q 289 524 289 538 q 297 483 289 499 q 336 468 306 468 l 350 468 q 365 465 357 468 q 388 463 374 463 z "},"Q":{"ha":742,"x_min":28,"x_max":713,"o":"m 661 -356 q 643 -326 643 -356 q 647 -267 643 -297 q 650 -207 650 -237 q 629 -118 650 -160 q 576 -179 589 -151 q 564 -231 564 -207 q 566 -256 564 -244 q 568 -278 568 -268 q 550 -311 568 -311 q 537 -306 540 -311 q 533 -289 533 -301 q 527 -236 533 -261 q 521 -185 521 -211 q 503 -162 521 -169 q 474 -133 483 -150 q 449 -104 464 -115 l 447 -103 q 440 -99 443 -99 q 436 -101 439 -99 q 399 -118 418 -118 q 365 -113 382 -118 q 324 -105 349 -108 q 274 -96 299 -101 q 239 -78 250 -90 q 232 -72 235 -72 q 228 -79 228 -72 q 221 -149 228 -118 q 214 -211 214 -179 q 216 -253 214 -233 q 218 -293 218 -274 q 196 -339 218 -339 q 172 -279 172 -339 q 176 -210 172 -249 q 179 -114 179 -162 q 162 -31 178 -61 q 128 21 146 0 q 103 52 114 36 q 93 92 93 68 l 94 99 q 91 110 94 104 q 86 121 88 115 q 57 261 57 224 q 55 270 56 267 q 46 279 54 274 q 28 308 28 283 q 39 386 28 332 l 60 508 q 136 743 82 661 q 258 856 193 821 q 385 890 324 890 q 518 864 467 886 q 610 779 563 843 l 621 765 q 682 631 669 714 q 689 604 685 617 q 696 563 694 583 q 706 433 699 499 q 707 407 707 424 l 704 363 q 699 299 703 340 q 696 221 696 258 q 692 148 696 178 q 673 112 689 118 q 651 94 657 106 q 641 72 644 83 q 633 51 638 60 q 636 44 633 46 q 657 24 647 40 q 668 8 661 15 q 694 -25 685 -7 q 706 -44 700 -35 q 713 -65 713 -53 l 711 -76 q 701 -178 701 -118 l 701 -219 q 683 -339 701 -290 q 661 -356 674 -356 m 329 222 q 347 236 338 222 q 363 252 351 242 q 388 271 374 263 q 415 279 401 279 q 460 253 432 279 l 471 243 l 471 251 q 476 303 471 272 q 488 425 488 350 q 464 604 488 500 q 454 628 460 615 q 442 649 449 640 q 428 658 435 658 q 421 651 424 658 q 417 636 418 643 q 407 597 407 618 l 408 581 q 407 558 408 572 q 400 534 406 544 q 383 524 394 524 q 367 557 367 526 l 369 615 q 360 664 369 642 q 346 644 354 651 q 319 553 329 631 q 312 503 317 528 q 307 460 307 479 l 308 425 q 301 361 308 400 q 297 319 297 340 q 301 278 297 301 q 313 239 306 256 q 329 222 321 222 z "},"R":{"ha":726,"x_min":28,"x_max":699,"o":"m 71 -385 q 49 -350 49 -385 l 51 -324 q 54 -281 54 -307 q 44 -180 54 -226 q 35 -75 35 -133 l 36 -33 q 39 29 39 -3 l 40 156 q 46 257 42 232 q 50 303 49 272 q 46 311 50 308 q 28 347 28 322 q 33 396 28 368 q 42 467 42 431 q 40 493 42 481 q 39 519 39 506 q 43 597 39 568 q 50 665 47 625 q 49 687 50 681 q 47 704 47 693 q 60 807 47 729 q 83 846 64 838 q 125 854 101 854 q 160 860 143 856 q 210 867 185 867 q 247 865 226 867 q 296 864 267 864 l 358 865 q 506 833 421 865 l 529 825 q 579 804 556 819 q 699 576 699 715 q 688 477 699 526 q 663 382 676 428 q 635 242 635 285 l 635 225 q 621 211 635 211 q 607 225 608 211 q 594 289 601 271 q 572 307 586 307 q 541 297 557 307 q 525 269 525 286 q 531 238 525 257 q 547 207 538 219 q 635 -15 586 149 q 643 -42 639 -32 q 660 -107 660 -93 q 657 -117 660 -114 q 644 -139 647 -128 q 640 -165 642 -150 q 628 -249 640 -192 q 610 -265 622 -265 q 592 -236 592 -265 q 597 -199 592 -212 q 601 -172 601 -186 q 551 -114 601 -114 q 528 -115 540 -114 q 510 -117 517 -117 l 500 -115 q 492 -126 493 -115 q 485 -162 490 -144 q 481 -203 481 -181 l 482 -222 q 467 -236 481 -236 q 458 -231 460 -235 q 456 -210 457 -228 q 415 -22 453 -103 l 411 -12 q 385 13 406 11 q 369 39 376 13 l 367 53 q 324 174 361 100 q 293 219 308 206 q 296 190 296 210 q 289 81 296 149 q 282 -35 282 14 l 282 -58 q 276 -103 282 -81 q 268 -147 269 -125 q 262 -166 268 -158 q 247 -174 256 -174 q 227 -152 235 -174 q 200 -131 219 -131 l 171 -133 q 142 -128 157 -133 q 119 -124 128 -124 q 96 -158 97 -124 q 89 -262 89 -218 l 90 -335 q 87 -372 90 -360 q 71 -385 83 -385 m 304 451 q 379 461 361 461 l 415 460 q 439 464 429 460 q 460 493 449 468 q 479 558 479 536 q 471 601 479 576 q 469 598 471 600 q 467 593 467 596 l 468 583 q 463 544 468 564 l 458 524 q 436 494 451 494 q 423 501 429 494 q 417 521 417 508 l 418 550 q 409 624 418 610 q 381 646 400 638 q 350 654 363 654 q 313 629 329 650 q 296 590 296 608 l 293 485 q 295 458 293 464 q 304 451 297 451 z "},"S":{"ha":679,"x_min":29,"x_max":651,"o":"m 57 -272 q 39 -262 43 -272 q 35 -237 35 -253 q 32 -89 35 -161 q 29 -24 29 -49 q 46 44 29 28 q 118 131 97 96 q 169 165 139 165 q 217 146 192 165 l 242 126 q 283 93 264 113 q 301 86 290 86 q 333 92 317 86 q 358 99 349 99 q 410 131 394 103 q 425 189 425 158 q 417 233 425 214 q 397 257 410 253 q 371 267 383 261 q 329 278 351 275 q 319 267 321 278 q 314 232 314 247 l 314 208 q 310 192 314 197 q 296 188 307 188 q 275 222 278 188 q 258 276 272 257 q 201 304 242 293 q 147 327 174 314 q 107 364 121 340 q 92 370 101 369 q 73 376 82 371 q 63 400 64 382 q 49 513 58 472 q 40 568 40 542 q 56 638 40 599 l 69 689 q 172 821 92 771 q 211 840 201 839 q 257 851 235 843 q 365 864 293 864 q 431 860 413 864 q 492 856 449 856 q 560 818 526 856 q 581 801 572 806 q 624 769 607 793 q 642 719 642 746 l 642 694 l 640 683 l 642 599 q 638 522 642 551 q 617 492 633 492 q 606 498 608 492 q 601 518 603 504 q 603 535 601 526 q 604 556 604 544 q 603 569 604 561 q 599 584 601 578 q 592 590 596 590 q 586 585 589 590 q 572 568 581 574 q 558 559 564 563 q 547 554 551 556 q 517 525 522 539 q 511 501 511 511 l 511 497 q 496 478 511 478 q 480 488 483 479 q 476 513 476 497 q 472 585 476 564 q 453 622 468 606 q 379 657 419 650 q 351 665 365 663 q 321 614 332 665 l 314 579 q 300 568 311 568 q 282 614 282 568 q 263 554 263 579 q 285 500 263 519 q 329 481 308 481 q 338 483 335 482 q 357 483 342 483 q 463 457 403 483 q 550 408 522 431 q 622 335 592 376 q 651 239 651 294 l 650 181 l 649 147 l 640 101 q 629 56 635 67 q 622 32 624 46 l 593 -162 q 567 -197 589 -197 q 547 -181 551 -196 q 543 -133 543 -167 q 541 -96 543 -107 q 531 -85 539 -85 l 522 -86 l 483 -104 q 450 -118 463 -112 q 410 -124 438 -124 l 333 -122 q 257 -131 296 -122 q 241 -128 249 -131 q 226 -126 233 -126 q 212 -134 218 -126 q 204 -168 206 -142 q 199 -183 204 -178 q 189 -187 194 -187 q 164 -156 172 -187 q 107 -72 151 -111 q 94 -67 100 -67 q 82 -115 82 -67 l 83 -151 l 83 -193 q 78 -249 83 -225 q 57 -272 74 -272 z "},"T":{"ha":718,"x_min":28,"x_max":690,"o":"m 426 -187 q 410 -169 410 -187 q 400 -112 410 -135 l 397 -103 q 381 -88 393 -90 q 358 -86 368 -86 l 347 -86 q 325 -85 335 -86 q 310 -94 317 -85 q 282 -160 286 -126 q 268 -179 282 -179 q 258 -176 260 -179 q 254 -161 256 -172 l 254 -157 q 228 -51 254 -132 q 224 -24 224 -37 q 228 0 224 -11 q 243 88 239 33 q 250 196 247 142 q 257 294 251 268 q 253 304 257 303 q 243 306 249 306 q 233 308 238 306 q 228 321 228 311 l 228 328 q 242 419 238 393 q 248 456 246 444 q 250 481 250 468 l 244 617 q 233 647 244 632 q 206 664 221 663 q 142 669 156 669 q 101 658 118 669 q 82 614 85 647 q 81 599 82 607 q 79 581 79 590 l 81 563 q 78 540 81 551 q 75 517 75 528 l 76 504 q 73 499 76 501 q 65 496 69 496 q 48 508 57 496 q 39 571 39 521 l 42 607 q 35 657 42 636 q 28 703 28 678 q 31 737 28 718 q 35 801 35 756 q 49 848 35 831 q 122 865 63 865 q 222 857 161 865 q 283 856 243 856 q 432 858 347 856 l 540 860 l 582 858 l 635 861 q 673 851 656 861 q 690 792 690 840 l 690 718 q 685 683 690 697 q 672 606 675 656 q 651 575 672 575 q 638 585 640 575 q 634 606 635 596 q 632 625 633 617 q 617 658 626 653 q 588 664 608 664 q 551 667 568 664 l 529 669 q 492 655 508 669 q 472 617 476 640 q 460 339 464 551 q 457 196 457 256 q 468 89 468 140 q 460 44 468 54 q 457 31 457 38 l 460 -4 q 447 -101 460 -39 q 444 -142 444 -122 q 442 -174 444 -161 q 426 -187 439 -187 z "},"U":{"ha":714,"x_min":28,"x_max":686,"o":"m 578 -282 q 557 -232 557 -282 q 560 -183 557 -211 q 561 -78 561 -147 q 543 -36 558 -46 q 535 -28 539 -33 q 526 -24 531 -24 q 521 -25 524 -24 q 515 -29 518 -26 q 508 -33 513 -32 l 482 -42 q 431 -58 460 -50 q 351 -65 401 -65 q 239 -42 275 -65 q 224 -37 231 -37 q 183 -99 190 -37 q 181 -164 181 -124 q 176 -192 181 -182 q 156 -201 171 -201 q 146 -194 147 -201 q 143 -175 144 -187 q 139 -144 142 -162 l 90 76 q 76 165 76 136 l 78 178 q 70 228 78 201 q 63 283 63 256 l 64 328 l 60 356 l 56 379 q 33 389 35 379 q 28 431 28 406 q 67 682 67 672 l 64 693 q 56 768 56 721 q 74 853 56 811 q 138 894 93 894 l 146 894 q 210 890 182 890 q 257 888 238 890 q 299 822 299 879 q 295 785 299 804 q 292 663 292 767 l 292 267 q 297 206 292 217 q 311 188 303 194 q 328 167 319 181 q 351 153 336 153 q 395 171 372 153 q 418 208 418 189 l 417 228 q 420 265 417 247 q 425 300 424 283 q 428 399 426 363 q 431 462 429 436 q 435 518 433 488 q 428 542 435 542 q 422 556 422 544 l 422 568 l 433 647 l 435 676 q 432 713 435 692 q 425 799 425 768 q 446 865 425 839 q 508 890 467 890 l 532 889 l 592 890 l 638 889 q 659 885 651 889 q 672 861 667 881 q 685 740 685 806 q 686 722 685 731 q 678 607 678 667 q 681 515 678 561 l 682 443 q 663 354 682 361 q 658 349 658 351 q 657 338 657 346 q 651 260 657 306 q 642 152 644 206 q 631 45 640 99 q 619 -72 621 -8 q 614 -132 619 -101 q 601 -211 601 -174 l 601 -218 q 597 -263 601 -246 q 578 -282 593 -281 z "},"V":{"ha":731,"x_min":28,"x_max":703,"o":"m 435 -357 q 424 -352 426 -357 q 422 -333 422 -347 q 418 -257 422 -300 q 403 -180 414 -214 q 373 -144 393 -146 q 331 -143 353 -143 q 285 -149 290 -143 q 279 -161 279 -154 q 264 -235 264 -211 l 264 -242 q 253 -262 264 -260 q 229 -183 233 -262 q 225 -154 228 -164 q 207 -61 213 -99 q 186 15 200 -11 q 182 29 182 22 q 161 140 175 85 q 143 246 146 218 q 122 346 138 297 q 119 370 119 354 q 117 394 119 386 q 103 404 114 403 q 88 416 92 406 q 83 436 83 426 q 31 815 79 676 q 28 831 28 822 q 46 869 28 851 q 92 888 64 886 l 117 889 q 144 886 135 889 q 161 882 153 883 q 181 887 171 882 q 201 892 190 892 q 260 879 246 889 q 280 844 274 869 q 294 765 286 818 l 313 656 q 331 508 318 619 q 357 418 340 418 q 375 428 372 419 q 388 471 381 450 q 408 554 401 513 q 424 658 413 589 q 447 844 447 815 q 461 869 447 860 q 490 879 475 879 l 517 879 q 547 877 522 878 q 602 875 572 876 q 654 874 632 874 q 690 861 676 874 q 703 828 703 849 l 701 814 q 676 699 686 757 q 651 601 669 667 q 588 310 613 467 l 585 289 q 553 149 579 215 q 531 85 540 117 l 513 32 q 493 -50 497 -10 q 481 -97 488 -83 q 468 -149 468 -121 l 468 -154 q 465 -187 468 -171 q 446 -317 450 -243 l 447 -344 q 435 -357 447 -357 z "},"W":{"ha":819,"x_min":28,"x_max":792,"o":"m 144 -319 q 125 -295 129 -318 q 121 -236 121 -272 q 101 -97 121 -169 q 96 -14 96 -75 q 97 67 96 31 l 99 88 q 85 210 99 143 q 72 243 78 238 q 42 296 42 260 q 43 324 42 308 q 44 358 44 340 l 43 385 q 36 531 36 453 q 38 642 36 589 l 39 704 q 32 775 39 738 q 28 806 28 790 q 35 847 28 822 q 55 872 39 865 q 115 879 71 879 q 263 867 242 879 q 269 856 269 861 l 268 843 q 274 800 268 821 l 279 769 q 303 399 279 678 q 310 376 304 376 q 353 475 324 376 l 360 497 q 383 526 364 518 q 396 538 392 529 q 414 549 407 549 q 428 542 424 547 q 435 531 432 538 q 444 518 439 525 q 481 469 472 492 q 492 429 490 447 q 500 395 494 411 q 522 361 506 379 q 533 460 533 413 l 533 507 q 532 585 532 539 q 538 749 532 647 l 539 776 l 539 790 q 556 860 539 825 q 610 888 576 888 q 647 884 625 888 q 694 881 668 881 q 717 882 706 881 q 738 883 728 883 q 788 843 775 883 q 792 785 792 825 q 774 517 792 679 l 764 433 q 760 257 760 404 l 761 136 q 751 109 761 119 q 740 81 740 99 q 713 -225 740 -58 q 710 -256 713 -250 q 699 -262 707 -262 q 688 -252 690 -262 q 683 -225 685 -242 q 673 -174 682 -199 q 631 -150 664 -150 q 581 -161 608 -150 q 566 -176 569 -165 q 561 -211 563 -187 q 539 -301 556 -301 q 521 -281 521 -299 q 524 -253 522 -267 q 525 -224 525 -240 q 519 -161 525 -186 q 503 -110 513 -136 q 486 -43 493 -85 q 472 13 482 -15 q 450 85 461 40 q 431 169 439 131 q 418 217 422 207 q 344 4 390 172 l 325 -65 q 318 -119 319 -93 q 304 -246 318 -165 q 288 -271 303 -271 q 272 -257 272 -271 l 274 -236 q 265 -190 274 -215 q 238 -164 257 -164 l 201 -168 q 169 -212 169 -175 q 168 -268 169 -249 q 144 -319 164 -319 z "},"X":{"ha":729,"x_min":28,"x_max":701,"o":"m 507 -310 q 490 -294 496 -310 q 485 -258 485 -279 q 486 -225 485 -243 q 488 -185 488 -207 q 458 -58 488 -124 q 446 -29 451 -44 q 431 -19 442 -19 q 416 -16 421 -19 q 407 2 411 -12 q 403 26 403 17 l 404 43 q 365 132 404 67 q 358 138 361 138 q 350 126 353 138 l 336 94 q 281 -79 296 11 q 278 -94 281 -86 q 275 -110 275 -101 q 278 -119 275 -115 q 282 -129 281 -124 l 282 -132 q 272 -147 275 -137 q 268 -166 269 -156 q 263 -184 267 -176 q 249 -193 260 -192 q 233 -181 238 -193 q 225 -150 229 -169 q 223 -136 225 -144 q 216 -126 221 -128 q 135 -121 211 -124 q 97 -145 104 -121 q 89 -200 89 -169 l 89 -247 q 82 -293 89 -275 q 81 -297 82 -294 q 76 -302 79 -299 q 68 -306 74 -306 q 53 -290 57 -304 q 50 -253 50 -276 q 36 -122 47 -161 q 29 -74 29 -96 q 44 -14 29 -47 q 156 193 56 10 q 215 304 213 297 q 240 374 240 347 q 233 403 240 388 q 213 440 226 418 q 128 618 185 488 q 122 585 122 604 q 119 553 122 565 q 106 540 117 540 q 85 599 85 540 l 85 636 q 68 740 85 706 l 65 721 q 60 682 64 692 q 47 672 57 672 q 35 686 35 672 l 35 696 q 31 751 35 719 q 28 813 28 782 q 36 867 28 844 q 71 890 44 890 q 113 892 89 890 q 163 894 138 894 q 249 864 232 894 q 331 686 307 749 q 374 613 356 614 q 410 695 386 656 q 444 767 435 735 q 472 824 454 799 q 480 844 476 831 q 492 871 483 857 q 526 885 501 885 l 581 883 l 642 883 q 682 876 669 883 q 701 811 701 864 q 699 723 701 776 q 695 628 697 669 q 692 583 693 586 q 691 575 692 579 q 688 566 690 571 q 676 561 685 561 q 658 585 661 563 q 654 635 654 607 q 651 682 654 663 q 636 703 647 701 q 610 679 622 703 q 585 621 599 656 q 556 554 572 586 q 519 472 533 515 q 508 450 517 458 q 490 413 494 433 l 482 392 l 483 382 q 585 147 536 272 q 664 -24 646 -11 q 690 -72 690 -44 l 689 -89 q 685 -157 685 -125 q 682 -197 685 -179 q 674 -212 681 -207 q 661 -218 668 -218 q 643 -199 644 -218 q 629 -142 640 -168 q 610 -117 618 -117 l 599 -118 q 553 -128 575 -118 q 528 -178 531 -139 q 524 -254 525 -217 q 520 -274 524 -264 q 517 -294 517 -285 l 518 -300 q 507 -310 518 -310 z "},"Y":{"ha":743,"x_min":28,"x_max":715,"o":"m 289 -296 q 272 -281 279 -296 q 264 -217 264 -251 l 264 -190 q 256 -100 264 -153 q 251 7 251 -71 l 251 107 q 235 146 235 126 q 243 186 235 165 q 253 271 253 215 l 253 318 q 247 394 253 363 q 221 449 242 426 q 217 451 219 449 q 214 454 215 454 q 189 467 194 456 q 181 497 183 478 q 160 568 181 526 q 139 614 147 590 q 126 642 132 631 q 114 654 121 654 q 98 645 101 653 q 94 617 94 638 q 83 572 94 596 q 81 560 81 567 l 81 543 l 83 496 q 69 478 83 478 q 57 493 60 478 q 51 732 54 664 q 36 803 49 785 q 28 831 28 817 q 48 865 28 850 q 117 881 68 881 l 139 879 q 185 886 161 879 q 199 889 192 889 q 238 877 217 889 q 268 851 258 865 q 314 735 296 800 q 364 597 331 675 q 374 607 371 599 q 442 767 399 681 q 466 828 460 807 q 478 863 472 850 q 500 882 485 875 q 583 900 540 900 l 629 900 l 649 901 q 678 896 663 901 q 715 842 715 876 q 713 825 715 833 q 692 701 692 775 q 688 599 692 626 q 675 585 683 585 q 656 640 656 585 q 658 701 656 672 l 658 714 q 649 729 657 729 q 635 719 642 729 q 592 632 618 681 q 574 600 583 615 q 540 535 554 568 q 472 346 481 381 q 467 294 467 326 q 469 257 469 283 q 467 212 469 236 q 463 150 464 188 q 468 79 463 114 q 474 40 474 60 q 463 6 474 24 q 461 -1 461 4 l 464 -32 q 476 -78 464 -57 q 481 -93 481 -85 q 478 -107 481 -100 q 464 -178 464 -144 l 464 -183 q 461 -215 464 -203 q 442 -228 458 -228 q 431 -222 433 -228 q 426 -207 428 -217 q 421 -186 425 -197 q 401 -151 413 -157 q 364 -144 389 -144 q 319 -153 326 -144 q 311 -193 313 -161 q 304 -283 307 -269 q 289 -296 301 -296 z "},"Z":{"ha":685,"x_min":28,"x_max":657,"o":"m 88 -319 q 78 -315 82 -319 q 74 -304 74 -311 l 75 -274 q 67 -200 75 -236 q 61 -160 64 -179 q 46 -127 58 -140 q 33 -94 33 -114 l 35 -61 q 32 -4 35 -31 q 28 39 29 15 q 41 97 28 71 q 71 147 54 124 l 140 254 q 267 454 207 356 q 346 608 328 553 l 346 618 q 332 652 346 636 q 300 668 318 668 l 278 668 l 194 671 q 132 656 158 671 q 105 594 106 642 q 102 519 104 546 q 97 482 100 493 q 90 467 93 471 q 81 464 86 464 q 66 476 69 464 q 63 507 63 488 l 64 550 q 54 635 64 589 q 48 678 51 646 q 42 747 44 710 q 39 807 39 783 q 63 872 40 856 q 135 888 86 888 l 224 885 q 285 888 257 886 q 346 890 313 890 l 393 890 q 485 893 450 890 l 528 894 q 601 874 571 894 q 610 860 608 868 q 617 849 613 853 q 641 806 635 829 q 650 758 647 782 q 654 727 651 742 q 657 699 657 713 q 651 646 657 672 q 644 571 644 608 l 646 507 q 642 460 646 483 q 638 414 638 438 l 638 397 q 634 388 638 392 q 625 385 631 385 q 614 400 614 385 q 601 481 611 440 q 592 547 596 513 q 588 556 592 553 q 513 446 542 507 q 490 412 503 426 q 468 382 478 397 q 325 142 460 363 l 322 138 q 315 122 315 128 q 324 110 315 115 q 342 104 332 104 l 381 106 l 460 104 q 510 107 497 104 l 522 108 q 592 92 558 108 q 626 33 626 76 q 624 1 626 17 q 622 -28 622 -14 l 624 -58 q 614 -135 624 -90 q 604 -221 604 -179 l 606 -247 q 585 -274 606 -271 q 573 -262 576 -274 q 563 -211 569 -251 q 507 -132 547 -161 q 499 -128 503 -128 l 471 -131 q 445 -129 458 -131 q 418 -128 432 -128 q 384 -131 401 -128 q 349 -133 367 -133 q 299 -131 321 -133 q 253 -128 276 -129 q 209 -131 231 -128 q 167 -133 188 -133 l 142 -132 l 132 -131 q 114 -174 115 -131 l 113 -210 q 104 -294 113 -250 l 101 -304 q 88 -319 96 -319 z "},"[":{"ha":304,"x_min":28,"x_max":276,"o":"m 61 -142 q 50 -126 50 -139 q 51 -108 50 -119 q 53 -82 53 -97 q 49 -43 53 -65 q 47 -31 47 -39 q 56 47 47 -1 q 64 138 64 94 q 68 223 64 192 q 74 300 72 254 q 71 385 74 340 l 69 450 q 71 485 69 475 q 72 503 72 494 q 70 542 72 522 q 68 582 68 563 l 69 607 q 64 617 69 613 q 51 646 51 629 q 53 663 51 653 q 57 683 54 672 q 60 693 60 686 l 60 701 l 50 739 q 33 797 46 768 q 28 821 28 811 q 33 840 28 833 q 46 851 39 847 q 57 854 53 854 l 65 853 q 87 856 76 853 q 107 858 97 858 q 120 857 115 858 q 133 856 125 856 q 158 858 146 856 q 183 860 171 860 q 195 859 190 860 q 204 857 200 858 q 214 854 208 856 q 226 856 218 854 q 243 857 235 857 q 256 854 250 857 q 262 843 261 851 q 267 827 263 835 q 271 813 271 819 q 267 765 267 786 q 272 706 267 735 q 275 668 275 688 l 276 650 q 260 632 276 632 q 242 646 247 632 q 234 680 238 660 q 223 719 231 700 q 194 738 215 738 q 184 736 189 738 q 179 729 179 735 l 179 719 q 183 442 182 704 l 183 126 q 181 95 182 97 q 179 90 181 93 q 203 68 182 68 q 219 72 213 69 q 235 74 226 74 q 256 60 246 74 q 267 28 267 46 q 263 17 265 22 q 261 6 261 13 q 265 -3 261 1 q 268 -11 268 -7 q 256 -68 263 -49 q 246 -110 249 -87 q 235 -119 243 -119 q 221 -107 221 -119 l 222 -97 q 220 -79 222 -87 q 218 -62 218 -71 q 219 -53 218 -57 q 221 -46 221 -49 q 206 -40 221 -40 l 182 -40 q 114 -42 161 -42 q 95 -57 99 -42 q 91 -92 92 -72 q 86 -127 90 -111 q 65 -143 82 -143 l 61 -142 z "},"\\":{"ha":619,"x_min":28,"x_max":592,"o":"m 417 -49 q 404 -26 404 -49 q 388 26 404 -4 q 375 54 379 39 q 335 144 358 100 q 296 229 306 199 q 240 343 274 289 q 233 368 233 354 q 165 517 228 389 l 117 615 q 85 682 90 669 q 76 706 79 694 q 47 765 68 738 q 39 785 39 778 l 40 793 q 34 813 40 806 q 28 828 28 821 q 54 854 28 844 q 106 864 81 864 q 119 863 115 864 q 128 862 124 863 q 140 860 132 861 l 172 861 q 233 818 218 861 q 338 579 258 739 l 372 507 l 386 475 q 488 244 442 343 q 522 174 513 188 q 563 92 538 151 q 590 35 579 53 q 592 17 592 31 q 574 -17 592 -10 q 528 -26 557 -24 q 436 -44 489 -26 q 418 -49 426 -49 l 417 -49 z "},"]":{"ha":289,"x_min":28,"x_max":261,"o":"m 238 -140 q 226 -135 232 -140 q 219 -122 219 -131 l 222 -100 l 221 -65 l 222 -44 q 199 -22 219 -22 l 160 -22 q 94 -29 114 -22 q 69 -69 75 -36 l 69 -93 q 49 -112 69 -111 q 35 -100 35 -112 l 35 -79 q 36 -60 36 -71 q 32 -11 36 -39 q 28 40 28 17 q 61 90 28 90 l 68 90 q 114 96 90 90 q 122 97 118 96 q 127 103 126 99 q 128 108 128 107 q 132 129 132 119 q 129 157 132 143 q 125 213 126 171 q 118 406 119 394 q 122 442 118 422 q 126 481 126 461 l 124 550 q 128 651 124 611 q 131 700 131 679 q 125 738 131 722 l 125 739 q 118 742 124 742 q 87 738 101 742 q 72 722 72 735 l 75 704 q 58 672 75 672 q 44 683 50 672 q 39 773 39 717 q 36 850 39 829 q 51 868 36 863 q 82 874 67 874 q 97 873 93 874 q 108 871 101 872 q 135 875 121 871 l 168 876 q 229 871 199 876 q 261 832 261 860 l 260 825 q 246 631 246 683 l 247 568 q 245 534 247 554 q 243 496 243 514 q 247 460 243 471 q 250 436 250 449 l 244 350 l 242 314 q 249 274 249 293 l 247 242 q 250 206 247 224 q 253 158 253 189 q 257 104 253 128 q 261 38 261 81 q 256 -81 261 -22 q 254 -119 254 -108 q 249 -135 254 -131 q 238 -140 244 -140 z "},"^":{"ha":378,"x_min":28,"x_max":350,"o":"m 274 881 q 200 917 228 881 q 189 925 193 925 q 179 914 185 925 q 163 892 174 903 q 128 881 153 881 l 86 885 l 50 885 q 28 906 28 888 q 33 919 28 911 q 42 936 38 928 q 76 982 54 963 q 116 1028 99 1001 q 160 1076 133 1056 q 169 1087 165 1081 q 176 1097 172 1093 q 186 1101 179 1101 q 294 981 211 1097 q 342 918 326 935 q 350 908 350 914 q 346 894 349 900 q 335 888 343 889 q 322 886 328 888 q 274 881 297 881 z "},"_":{"ha":649,"x_min":28,"x_max":621,"o":"m 43 -332 q 29 -319 29 -331 l 31 -314 q 35 -272 35 -293 q 39 -231 35 -251 l 40 -221 q 38 -202 40 -212 q 36 -181 36 -192 l 38 -133 q 33 -97 38 -115 q 33 -86 33 -93 q 31 -72 33 -79 q 28 -60 28 -64 q 51 -39 28 -42 q 131 -35 92 -35 q 203 -40 169 -35 q 272 -44 238 -44 l 310 -44 q 347 -46 331 -44 l 368 -47 q 390 -44 378 -47 q 415 -40 403 -40 l 438 -42 q 467 -39 456 -42 q 492 -33 478 -36 q 513 -35 503 -33 q 533 -39 522 -37 q 549 -37 542 -39 q 564 -35 556 -35 q 585 -42 576 -35 q 602 -57 594 -49 q 621 -72 610 -65 l 621 -74 q 618 -90 618 -82 l 621 -119 q 617 -137 621 -129 q 609 -166 611 -153 q 605 -203 607 -179 q 599 -276 603 -228 q 583 -293 593 -293 q 573 -288 578 -293 q 567 -274 568 -283 q 563 -253 565 -264 q 557 -217 557 -236 q 555 -183 557 -197 q 553 -156 553 -169 l 554 -140 q 549 -132 554 -133 q 538 -131 544 -131 q 367 -135 514 -133 q 93 -144 122 -137 q 85 -151 85 -146 l 88 -164 q 83 -178 88 -169 q 72 -219 74 -197 q 67 -247 71 -233 l 65 -257 l 69 -287 q 67 -312 67 -301 q 64 -328 67 -322 q 51 -333 61 -333 l 43 -332 z "},"`":{"ha":306,"x_min":28,"x_max":278,"o":"m 222 879 q 174 915 197 879 q 158 931 167 925 q 143 942 149 936 q 79 1022 100 989 q 39 1068 58 1054 q 28 1081 28 1075 q 39 1094 28 1088 q 49 1101 43 1097 q 63 1110 54 1106 q 82 1114 71 1114 l 86 1114 q 104 1121 94 1121 q 122 1117 113 1121 q 143 1114 132 1114 q 156 1117 150 1114 q 168 1119 163 1119 q 205 1085 188 1119 q 240 1000 222 1051 q 258 967 247 983 q 278 921 278 942 q 256 893 278 904 q 249 889 253 892 q 238 883 244 886 q 222 879 231 879 z "},"a":{"ha":756,"x_min":28,"x_max":728,"o":"m 101 -260 q 81 -194 81 -260 l 83 -146 q 76 -99 83 -126 q 66 -81 72 -87 q 51 -71 60 -75 q 35 -58 42 -67 q 28 -29 28 -50 q 51 68 28 7 q 78 167 68 118 q 99 235 85 201 l 100 239 q 92 246 100 244 q 72 268 72 251 q 83 304 72 274 q 106 369 93 335 q 131 426 119 404 q 163 538 154 478 q 171 564 165 551 q 179 601 178 582 q 195 723 183 654 q 224 826 207 792 q 243 853 231 843 q 276 864 256 864 l 286 864 q 338 868 313 864 q 388 872 364 872 l 465 872 q 506 838 482 872 q 538 764 529 804 q 574 672 551 704 q 603 599 596 640 q 595 583 603 588 q 588 569 588 578 q 599 512 589 539 q 608 445 608 485 q 628 369 608 406 q 681 154 653 317 q 714 7 699 53 q 728 -50 728 -26 q 720 -76 728 -68 q 706 -87 713 -83 q 694 -96 699 -92 q 689 -108 689 -100 l 689 -161 q 688 -214 689 -200 q 667 -247 683 -247 q 650 -225 656 -247 l 649 -151 q 642 -117 644 -126 q 631 -104 639 -107 q 605 -101 622 -101 q 557 -96 588 -100 l 551 -96 q 541 -102 543 -96 q 539 -124 539 -108 q 538 -165 539 -139 q 531 -183 536 -176 q 518 -189 525 -189 q 500 -176 510 -189 q 490 -150 490 -164 l 490 -143 q 485 -105 490 -124 q 479 -67 479 -86 l 481 -54 q 477 -40 481 -44 q 471 -31 474 -35 q 457 42 460 14 q 452 74 456 63 q 435 85 449 85 q 425 86 429 85 q 382 94 403 94 q 322 86 351 94 q 300 80 310 82 q 284 50 290 78 q 273 -13 278 22 q 263 -78 268 -49 q 260 -101 260 -89 l 260 -125 q 253 -160 260 -146 q 236 -174 246 -174 q 224 -167 228 -174 q 219 -150 219 -160 l 221 -124 q 197 -100 221 -101 q 187 -93 193 -100 q 171 -86 181 -86 q 149 -97 158 -86 q 126 -176 126 -137 l 126 -203 q 101 -260 126 -260 m 428 329 q 431 335 431 331 q 415 399 431 347 l 399 468 q 382 490 396 481 q 366 408 379 446 q 350 332 353 369 q 379 329 365 329 l 428 329 z "},"b":{"ha":750,"x_min":28,"x_max":722,"o":"m 521 -331 q 504 -315 507 -331 l 501 -281 l 503 -260 q 471 -140 503 -233 q 467 -119 467 -131 q 447 -97 464 -97 l 413 -100 q 328 -89 374 -100 q 269 -61 283 -78 q 204 -93 221 -93 q 189 -89 196 -93 q 161 -85 182 -85 q 133 -90 142 -85 q 124 -114 124 -96 l 125 -137 q 119 -176 125 -157 q 117 -192 118 -185 q 110 -203 115 -200 q 99 -207 106 -207 q 82 -193 89 -207 q 71 -133 74 -154 q 64 -98 68 -112 q 49 -65 60 -83 q 38 -25 38 -46 q 42 11 38 -7 q 52 82 49 44 q 56 151 56 119 q 60 196 57 183 l 61 208 q 58 232 61 219 q 56 260 56 244 q 50 268 56 264 q 28 299 28 282 q 33 327 28 310 q 44 375 39 344 q 50 456 50 406 q 47 514 50 482 q 43 589 43 546 l 44 665 q 40 717 44 697 q 35 753 35 738 l 33 803 q 41 857 33 835 q 75 879 49 879 l 90 878 q 156 875 106 875 l 233 875 q 271 853 263 874 q 281 843 275 843 q 303 856 289 843 q 422 883 343 883 q 490 871 457 883 q 571 828 524 858 q 629 764 596 813 q 679 599 679 692 q 657 479 679 531 q 610 411 635 428 l 638 382 q 693 317 668 353 q 722 182 722 269 q 694 53 722 121 q 669 7 685 25 q 625 -36 653 -11 l 574 -85 q 556 -133 561 -99 q 550 -197 550 -167 q 551 -219 550 -212 q 552 -231 551 -225 q 553 -247 553 -236 q 545 -278 553 -262 q 536 -314 538 -293 q 521 -331 533 -331 m 347 97 q 446 186 443 97 q 429 232 446 215 q 381 260 413 249 q 365 263 372 263 q 341 243 346 263 q 335 201 336 224 q 331 160 335 178 q 310 143 326 143 q 293 149 297 143 q 289 165 289 154 q 290 184 289 172 q 292 210 292 196 q 283 247 292 228 l 283 243 q 281 215 283 226 q 279 185 279 203 q 282 150 279 168 l 285 132 q 283 121 285 126 q 281 110 281 115 q 297 99 283 99 l 347 97 m 314 499 q 379 532 353 500 q 408 557 390 547 q 414 569 414 561 q 406 603 414 585 q 393 631 399 622 q 388 585 393 600 q 369 571 383 571 q 351 599 351 571 l 351 608 q 338 663 351 647 q 310 678 325 678 q 286 649 286 678 l 288 626 l 286 593 q 288 563 286 578 q 290 526 290 547 l 290 510 q 299 496 290 496 l 314 499 z "},"c":{"ha":708,"x_min":28,"x_max":681,"o":"m 636 -292 q 613 -275 621 -292 q 604 -244 604 -258 l 606 -217 q 601 -187 606 -204 q 582 -148 596 -169 q 553 -120 568 -126 q 517 -114 539 -114 l 486 -114 q 428 -117 463 -117 q 271 -104 369 -117 q 243 -90 256 -100 q 222 -79 231 -79 q 197 -96 201 -79 q 193 -128 194 -107 q 172 -178 193 -178 q 150 -162 161 -178 q 139 -118 139 -142 l 138 -87 l 139 -72 q 132 -24 139 -47 q 117 24 125 0 q 107 50 111 33 q 72 114 93 114 l 64 113 q 33 182 33 113 l 36 214 q 32 313 36 268 q 28 424 28 367 q 51 576 28 518 l 61 601 q 115 696 82 653 q 147 743 132 718 q 205 799 158 763 q 310 858 251 835 q 333 861 321 861 q 354 863 344 861 q 432 872 393 872 q 651 794 551 872 q 679 739 679 771 q 676 718 679 729 q 672 674 672 696 l 672 663 q 663 613 672 632 q 646 600 656 600 q 632 606 640 600 q 617 611 624 611 q 590 586 601 611 q 578 536 578 561 q 581 503 578 518 q 583 475 583 488 q 550 439 583 440 q 526 455 532 439 q 521 494 521 471 q 524 547 521 519 q 526 597 526 574 q 511 644 526 632 q 424 665 465 665 q 331 625 372 665 l 321 617 q 260 481 264 578 q 256 438 260 463 q 250 383 250 421 q 261 250 250 308 q 276 210 265 221 q 293 176 286 200 q 317 149 300 153 q 333 142 325 147 q 351 121 342 138 q 397 100 367 100 q 482 120 435 100 q 558 158 529 140 q 569 161 563 161 q 597 150 582 161 q 618 122 613 139 q 641 66 629 86 q 662 34 653 46 q 676 13 671 22 q 681 -10 681 4 l 679 -26 q 658 -231 658 -121 l 656 -269 q 636 -292 649 -292 z "},"d":{"ha":803,"x_min":28,"x_max":775,"o":"m 618 -371 q 596 -355 600 -371 q 592 -321 592 -339 l 593 -286 q 589 -210 592 -236 l 569 -118 q 542 -89 563 -89 q 499 -100 524 -89 q 414 -117 444 -117 q 349 -103 383 -117 l 329 -96 q 290 -76 308 -89 q 285 -74 288 -74 q 278 -78 281 -74 q 229 -99 263 -87 q 213 -103 221 -103 q 195 -100 204 -103 q 178 -97 186 -97 q 140 -125 157 -97 l 140 -126 q 114 -192 114 -162 q 93 -221 114 -221 q 71 -204 81 -221 q 64 -151 64 -179 l 64 -107 q 54 -43 64 -74 l 56 168 l 54 253 q 41 275 54 269 q 28 303 28 281 q 40 378 28 332 q 58 494 58 438 q 56 525 58 510 q 50 588 50 556 l 49 632 l 47 657 q 50 709 47 683 q 53 769 53 735 q 60 789 53 781 q 71 806 68 797 q 143 857 89 854 q 171 858 157 857 q 200 860 185 860 q 264 829 240 860 q 276 821 269 821 q 288 826 281 821 q 406 865 332 865 q 533 849 472 865 q 538 847 535 847 q 587 822 547 847 q 673 731 626 797 q 750 546 719 665 q 763 460 758 503 q 771 394 765 426 q 769 355 771 367 q 767 326 767 343 q 771 265 767 293 q 775 215 775 238 q 751 192 775 192 q 744 185 749 192 q 699 75 735 124 l 696 71 q 643 -167 664 15 l 632 -235 l 631 -256 q 633 -295 631 -275 q 635 -332 635 -315 q 618 -371 635 -368 m 390 165 q 415 173 406 165 q 431 190 424 181 q 446 206 438 199 q 472 232 465 218 q 480 263 478 246 q 489 299 482 279 q 510 369 510 349 q 507 385 510 378 q 504 408 504 392 l 506 442 q 473 553 506 504 q 419 601 440 601 q 408 594 411 601 q 403 585 404 588 q 399 561 399 574 q 396 501 399 525 q 390 400 392 472 q 372 378 389 381 q 365 380 368 378 q 360 385 363 382 q 356 390 358 388 q 351 396 353 392 q 350 409 350 400 q 347 449 350 418 q 338 512 344 481 q 324 557 332 543 q 319 503 319 550 q 326 299 319 446 l 329 199 l 329 183 q 335 169 329 171 q 356 167 340 167 l 390 165 z "},"e":{"ha":717,"x_min":28,"x_max":688,"o":"m 140 -447 q 114 -393 114 -447 l 115 -371 q 100 -247 100 -296 l 100 -239 q 95 -180 100 -206 q 72 -133 90 -154 q 63 -122 65 -128 q 58 -105 61 -117 q 33 -36 54 -93 q 28 -12 28 -25 q 32 1 28 -6 q 45 38 42 18 q 50 88 49 57 q 61 204 51 129 q 58 241 61 228 q 56 267 56 254 l 57 335 q 61 455 60 393 q 64 539 63 517 q 60 572 64 556 q 57 603 57 588 l 58 611 q 60 622 58 619 q 50 629 58 629 l 44 629 q 31 651 31 629 q 40 729 31 675 q 46 771 46 757 l 46 778 q 52 814 46 796 q 85 846 58 832 q 158 863 122 863 q 207 860 181 863 q 314 854 244 854 q 377 856 347 854 q 478 858 407 858 q 512 863 496 858 q 572 868 528 868 q 643 864 600 868 q 681 828 675 858 q 688 767 688 799 l 688 749 q 682 701 688 722 q 669 656 676 679 q 633 492 649 604 q 626 463 632 476 q 604 449 621 449 q 581 499 581 450 q 583 548 581 522 q 586 592 586 574 q 574 626 586 626 q 563 624 568 625 q 549 622 558 622 q 524 625 536 622 q 501 628 513 628 l 456 628 q 407 622 431 628 q 394 621 401 621 q 365 625 381 621 q 335 631 350 629 q 310 610 310 631 l 310 593 q 306 567 306 581 q 309 532 306 549 q 314 500 313 515 q 319 490 315 490 q 329 493 324 490 q 361 499 340 499 q 380 495 369 499 q 411 492 390 492 l 447 493 q 489 483 471 493 q 507 439 507 474 l 507 385 q 490 304 507 342 q 479 232 479 271 l 479 221 q 477 201 479 210 q 461 193 475 193 q 439 222 439 193 q 441 244 439 235 q 443 264 443 254 q 431 272 443 272 q 380 269 394 272 q 357 262 365 265 q 340 258 349 258 q 328 260 333 258 q 315 264 322 263 q 308 257 308 264 l 310 246 q 314 224 314 238 q 312 195 314 208 q 310 171 310 182 q 325 137 310 150 q 396 124 340 124 q 432 125 415 124 q 474 128 449 126 q 558 122 507 128 q 632 103 610 115 q 674 56 661 86 q 686 -36 686 26 q 674 -232 686 -106 q 657 -278 669 -264 q 631 -293 644 -293 q 609 -283 618 -293 q 600 -257 600 -274 q 603 -235 600 -247 q 607 -210 607 -222 q 597 -158 607 -183 q 592 -138 594 -147 q 585 -127 590 -129 q 569 -125 579 -125 q 550 -124 558 -125 q 494 -121 522 -121 q 469 -122 478 -121 q 449 -124 460 -124 q 426 -122 438 -124 q 400 -119 414 -119 q 328 -112 360 -119 q 279 -107 301 -107 q 233 -123 253 -107 q 198 -183 213 -139 q 174 -312 183 -228 l 172 -350 l 172 -360 q 165 -415 172 -387 q 140 -447 153 -447 z "},"f":{"ha":719,"x_min":28,"x_max":692,"o":"m 286 -292 q 271 -281 278 -292 q 263 -239 263 -260 l 263 -215 q 258 -171 263 -193 q 256 -137 257 -156 q 233 -118 254 -118 l 214 -119 q 171 -115 185 -119 q 156 -112 161 -112 q 138 -125 144 -112 q 124 -165 126 -149 q 121 -190 121 -181 q 119 -203 121 -199 q 107 -210 117 -208 q 89 -199 96 -210 q 78 -174 82 -187 q 74 -154 74 -161 q 65 -99 74 -126 q 56 -44 56 -72 l 60 7 q 69 60 60 32 l 68 78 q 72 108 68 94 q 76 157 76 121 l 75 256 q 78 299 75 278 q 81 367 81 319 q 79 440 81 401 q 76 507 78 479 q 74 536 74 535 q 65 585 65 561 q 67 619 65 603 q 68 649 68 635 q 65 674 68 661 q 62 665 64 669 q 56 658 60 661 q 49 654 53 654 q 32 663 36 656 q 28 686 28 671 q 39 772 28 731 q 75 839 50 813 q 140 865 100 865 l 186 861 q 260 857 215 857 l 308 858 q 338 854 324 858 q 383 850 351 850 q 433 856 404 850 q 503 861 469 861 q 568 849 536 861 l 576 847 q 597 851 585 847 q 624 856 608 856 q 669 833 646 856 q 692 776 692 811 q 687 749 692 764 q 682 715 682 733 l 682 697 q 678 654 682 672 q 674 624 674 636 l 676 583 q 664 506 676 558 q 647 489 660 489 q 629 517 629 490 q 630 532 629 526 q 632 544 631 538 q 635 561 633 551 q 614 608 635 581 q 609 615 611 613 q 605 619 607 618 q 599 619 603 619 q 574 619 594 619 q 454 622 457 621 q 414 628 433 628 q 371 624 392 628 q 331 619 350 621 q 313 593 313 617 l 313 583 q 318 535 318 560 l 319 506 q 351 485 322 485 q 380 486 363 485 q 421 488 397 488 q 479 482 447 488 q 528 424 528 469 l 526 408 q 522 357 522 382 q 516 304 521 317 q 504 283 511 292 q 475 186 482 256 l 475 179 q 472 152 475 165 q 454 139 468 139 q 436 146 440 139 q 432 168 432 153 l 433 232 q 432 261 433 251 q 426 274 431 271 q 368 276 421 276 q 339 267 347 276 q 325 243 331 257 q 319 224 319 229 q 322 209 319 217 q 324 189 324 201 l 322 121 q 314 54 322 88 q 308 10 308 26 q 313 -24 308 -12 q 318 -56 318 -36 q 311 -97 318 -71 q 301 -174 301 -139 q 303 -222 301 -201 q 306 -256 306 -242 q 301 -281 306 -269 q 286 -292 296 -292 z "},"g":{"ha":843,"x_min":28,"x_max":815,"o":"m 686 -293 q 668 -276 676 -293 q 660 -225 660 -260 q 664 -135 661 -162 l 665 -108 l 665 -99 q 657 -51 658 -74 q 597 -82 640 -75 l 596 -82 q 547 -98 567 -89 q 499 -112 526 -107 q 483 -111 490 -112 q 468 -110 476 -110 q 432 -114 449 -111 q 383 -118 408 -118 q 342 -112 363 -118 q 221 -42 244 -76 q 196 -22 207 -22 q 188 -40 189 -22 q 179 -100 183 -87 q 164 -112 175 -112 q 140 -71 140 -112 q 139 -8 140 -29 l 136 24 q 100 114 133 74 q 56 250 82 136 q 54 251 54 250 q 47 261 54 258 q 28 293 28 265 q 33 344 28 313 q 46 508 43 400 q 58 553 46 533 l 67 575 q 203 804 101 697 q 288 854 240 844 q 313 863 301 856 q 338 872 324 869 q 450 885 393 885 q 576 858 517 885 q 669 804 647 824 q 690 761 690 785 l 690 707 q 687 651 690 661 q 675 640 683 640 q 663 651 665 640 q 657 674 660 663 q 643 606 647 647 q 633 549 639 574 q 610 524 626 524 q 597 529 603 524 q 592 543 592 535 l 593 563 q 518 660 593 614 q 449 688 471 688 q 402 672 424 688 q 374 635 381 657 q 356 558 360 586 q 344 506 351 529 q 329 493 342 493 q 310 529 310 493 q 306 599 310 576 q 290 563 294 581 l 286 549 q 257 414 257 454 q 259 380 257 393 q 261 350 261 367 q 263 336 261 342 q 264 325 264 331 l 263 311 q 267 299 263 303 q 283 258 276 285 q 322 175 293 218 q 429 111 351 132 q 454 108 442 108 q 558 157 507 108 q 576 188 571 169 q 585 207 579 199 q 600 268 600 233 l 601 281 q 595 292 601 290 q 574 294 589 294 q 544 280 550 294 q 535 249 538 265 q 518 219 531 219 q 499 232 503 219 q 494 272 494 244 q 483 383 494 310 l 482 401 q 492 448 482 425 q 527 475 503 471 q 571 479 551 479 q 611 476 597 479 q 635 474 625 474 q 653 478 644 474 q 671 482 661 482 q 706 478 692 478 l 743 479 q 778 472 763 479 q 799 442 793 465 q 806 400 806 419 q 804 374 806 388 q 803 342 803 361 q 814 238 803 304 l 815 219 q 811 193 815 204 q 800 182 807 182 l 790 185 q 782 172 782 185 l 781 168 q 753 76 778 150 q 729 6 740 39 q 718 -37 718 -28 l 719 -65 q 715 -154 719 -110 q 710 -244 710 -199 q 702 -281 710 -268 q 686 -293 694 -293 z "},"h":{"ha":749,"x_min":28,"x_max":721,"o":"m 679 -253 q 663 -242 671 -253 q 656 -215 656 -231 q 653 -181 656 -190 q 646 -145 646 -158 q 641 -122 646 -132 q 617 -101 636 -112 q 557 -90 592 -90 q 535 -115 542 -90 q 526 -158 531 -147 q 511 -169 521 -169 q 497 -164 500 -169 q 493 -103 493 -158 q 483 1 483 -50 q 485 40 483 21 q 488 79 488 58 q 485 135 488 107 q 483 192 483 163 l 485 219 q 468 266 485 244 q 422 288 451 288 q 381 264 388 288 q 374 231 375 247 q 370 203 374 214 q 356 192 367 192 q 343 199 346 192 q 340 222 340 206 q 338 252 340 239 q 328 276 336 265 q 315 256 317 267 q 313 225 313 244 q 308 81 313 139 q 285 -142 303 17 q 280 -191 282 -185 q 265 -199 278 -197 q 253 -186 256 -199 q 249 -156 250 -174 q 238 -103 246 -128 q 196 -78 229 -78 l 171 -79 q 138 -71 154 -79 q 129 -68 133 -68 q 119 -79 122 -68 l 113 -121 q 103 -185 103 -151 q 95 -209 103 -200 q 79 -218 88 -218 q 63 -190 63 -218 l 64 -167 q 61 -111 64 -139 q 58 -56 58 -83 q 63 -8 58 -32 q 76 128 69 38 q 79 235 79 175 q 76 304 76 263 q 78 422 76 360 q 81 536 81 485 q 75 640 81 604 q 69 620 72 631 q 65 601 65 610 q 59 587 64 592 q 47 582 54 582 q 34 597 36 582 q 32 669 32 613 q 28 728 28 690 q 40 795 28 761 q 93 863 53 829 q 131 874 110 874 q 156 872 143 874 q 179 871 168 871 q 202 873 192 871 q 222 875 213 875 q 281 866 254 875 q 308 828 308 857 q 313 778 308 799 q 317 685 315 763 l 315 583 q 328 532 315 543 q 388 521 340 521 l 439 521 q 488 560 488 524 q 485 585 488 571 q 482 615 482 599 l 481 671 l 482 675 q 481 683 482 682 q 467 706 467 693 q 469 726 467 714 q 475 807 475 749 q 485 844 475 832 q 517 864 494 857 q 592 876 554 876 l 651 874 q 692 853 676 874 q 707 808 707 833 q 706 778 707 792 q 701 707 701 751 q 717 511 701 633 q 721 478 721 485 q 713 453 718 456 q 703 450 707 451 q 692 439 692 450 q 696 119 694 129 q 707 -40 697 18 q 710 -61 710 -50 q 704 -115 710 -76 q 702 -195 704 -179 q 694 -236 700 -211 q 679 -253 689 -253 z "},"i":{"ha":335,"x_min":28,"x_max":307,"o":"m 82 -312 q 66 -299 74 -312 q 58 -269 58 -286 l 58 -251 q 53 -200 57 -239 q 44 -118 49 -161 q 39 -58 39 -75 l 42 -3 q 46 142 46 68 q 44 194 46 178 l 44 203 q 46 221 44 213 q 47 239 47 229 l 47 269 q 44 399 44 321 l 44 531 q 36 552 44 544 q 28 578 28 560 l 29 600 q 38 699 38 663 q 33 757 38 739 l 32 781 q 40 815 32 793 q 65 853 49 836 q 104 869 81 869 q 138 865 118 869 q 185 860 158 860 q 212 862 203 860 q 233 865 221 864 q 269 841 258 865 q 281 790 281 817 q 277 765 281 776 q 274 714 274 754 q 277 599 274 667 q 281 482 281 531 q 278 433 281 446 q 276 411 276 421 q 290 342 276 376 q 300 279 299 311 l 307 224 q 288 199 307 204 q 275 185 275 194 l 276 163 q 274 119 276 140 q 271 78 271 99 q 283 3 274 31 q 290 -37 290 -19 q 278 -69 290 -56 q 275 -79 275 -74 l 275 -101 q 253 -244 275 -160 q 240 -257 249 -257 q 227 -249 235 -257 q 217 -219 219 -242 l 213 -179 q 205 -125 208 -128 q 188 -122 201 -122 l 131 -125 q 119 -133 122 -125 l 111 -162 q 97 -226 97 -194 l 99 -242 q 95 -297 99 -281 q 82 -312 92 -312 z "},"j":{"ha":651,"x_min":28,"x_max":624,"o":"m 57 -354 q 36 -332 43 -354 q 29 -307 32 -325 l 29 -160 l 31 -65 q 29 -26 31 -32 q 28 -11 28 -19 q 43 32 28 7 q 72 100 65 68 q 88 147 78 124 q 125 196 99 169 q 153 208 139 208 q 186 183 174 208 q 196 167 190 174 q 209 160 201 161 q 222 157 217 160 q 232 150 226 154 q 242 142 238 146 q 254 139 247 139 q 332 215 332 161 l 331 228 l 343 285 q 354 417 354 340 q 351 543 351 497 l 353 653 q 349 764 349 744 q 367 841 349 817 q 447 865 385 865 q 533 860 482 865 q 593 806 581 850 q 606 724 606 761 l 607 588 q 617 438 607 513 q 624 351 624 394 q 623 292 624 321 q 600 263 622 263 l 590 264 q 593 247 593 254 q 590 222 593 235 q 588 199 588 210 l 589 126 q 585 78 589 96 q 575 35 582 61 q 560 -21 568 15 q 538 -157 538 -115 l 538 -187 q 539 -214 539 -200 q 532 -276 539 -239 q 529 -307 529 -292 q 526 -334 529 -322 q 511 -347 524 -346 q 492 -322 497 -347 q 483 -260 486 -296 q 472 -183 479 -218 q 442 -147 464 -147 q 425 -151 435 -147 q 346 -168 390 -168 q 271 -161 308 -168 q 206 -149 233 -154 l 179 -143 q 153 -131 164 -139 q 135 -122 142 -122 q 103 -169 125 -122 q 92 -217 92 -192 l 93 -240 q 89 -288 93 -261 q 76 -335 85 -315 q 57 -354 68 -354 z "},"k":{"ha":764,"x_min":28,"x_max":736,"o":"m 97 -358 q 81 -339 81 -358 l 82 -311 q 72 -168 82 -258 q 58 42 58 -56 q 65 135 58 94 l 67 149 q 65 172 67 160 q 63 196 63 183 q 68 292 68 240 l 68 307 q 75 394 68 351 l 76 415 q 75 439 76 426 q 74 465 74 451 l 75 488 q 56 478 64 478 q 40 522 40 482 q 43 577 40 544 q 46 646 46 610 q 33 739 46 696 q 28 768 28 754 q 65 838 28 803 q 144 867 94 867 q 189 864 165 867 l 224 861 q 299 790 299 854 q 294 703 294 749 q 296 626 294 664 q 297 522 297 588 q 296 490 296 517 q 306 476 297 476 q 317 482 311 476 q 379 583 350 522 q 439 688 404 639 q 485 776 468 729 q 519 848 500 818 q 578 878 539 878 q 601 875 589 878 q 650 867 626 869 q 707 856 683 864 q 731 818 731 847 q 726 783 731 804 q 721 740 721 763 l 722 707 q 715 631 722 664 q 708 576 711 604 q 690 560 708 560 q 675 581 675 560 l 678 596 q 686 671 686 653 q 676 685 686 685 q 663 665 663 685 q 633 604 663 657 q 580 510 610 561 q 527 419 550 460 q 504 372 504 379 q 506 367 504 368 q 510 366 507 367 q 517 361 514 365 l 540 336 q 600 264 574 303 q 614 240 608 253 q 635 208 622 222 q 669 158 653 189 q 695 97 685 126 q 706 51 706 67 q 713 33 706 44 q 728 6 721 22 q 736 -35 736 -10 q 731 -75 736 -53 q 722 -157 722 -112 l 722 -169 q 715 -240 722 -206 q 710 -295 710 -268 q 706 -343 710 -322 q 700 -351 704 -347 q 690 -356 696 -356 q 669 -296 669 -356 q 671 -258 669 -274 q 674 -217 672 -242 q 664 -148 674 -182 q 628 -114 654 -114 q 608 -117 614 -117 l 567 -117 q 507 -68 522 -117 q 456 51 494 -32 l 436 93 q 411 24 411 75 l 411 -7 l 413 -31 q 400 -60 413 -58 q 388 -44 388 -60 l 389 -26 q 385 30 389 1 q 382 92 382 58 q 363 208 382 174 q 315 264 344 243 q 308 268 313 268 q 302 265 304 267 q 300 257 300 264 q 307 108 307 188 q 302 -69 307 19 q 292 -215 297 -157 q 286 -278 288 -272 q 272 -293 281 -293 q 263 -288 267 -293 q 258 -265 258 -283 q 244 -135 258 -172 q 210 -108 233 -108 q 197 -110 204 -108 q 185 -112 190 -112 q 154 -104 167 -112 q 140 -100 146 -100 q 133 -114 135 -100 q 126 -169 132 -142 q 118 -224 119 -196 l 119 -297 q 97 -358 119 -358 z "},"l":{"ha":682,"x_min":28,"x_max":654,"o":"m 94 -282 q 76 -270 85 -282 q 67 -237 68 -258 q 51 -64 63 -128 q 44 18 44 -17 q 48 46 44 33 q 51 72 51 58 q 48 94 50 83 q 46 121 46 104 q 50 171 46 144 q 54 238 54 197 q 47 297 54 288 l 40 306 q 28 335 28 315 q 31 358 28 344 q 50 549 50 488 l 47 640 q 50 681 47 658 q 53 729 53 704 q 48 784 53 760 q 43 825 43 808 q 53 857 43 844 q 125 876 67 876 l 185 875 q 213 876 203 875 q 232 879 224 878 q 285 819 279 879 l 293 561 q 290 531 293 535 q 281 526 286 528 q 269 499 269 521 q 272 466 269 485 q 274 424 274 447 q 271 388 274 403 l 269 368 q 272 340 269 354 q 278 256 278 310 l 276 196 q 281 164 276 179 q 286 135 285 149 q 294 126 286 126 l 335 125 q 359 129 347 125 q 382 133 371 133 l 421 131 l 496 132 q 597 122 557 132 q 642 85 638 113 q 649 58 644 72 q 654 17 653 44 q 639 -50 654 -18 q 621 -103 629 -68 l 604 -208 q 586 -228 600 -228 q 570 -196 571 -228 q 560 -131 569 -164 q 511 -90 550 -99 q 432 -85 463 -85 q 368 -90 389 -85 q 319 -96 347 -96 q 277 -92 300 -96 q 240 -89 254 -89 q 209 -92 219 -89 q 178 -96 199 -96 q 144 -93 164 -96 q 139 -100 139 -93 l 129 -132 q 118 -187 118 -158 l 119 -224 q 112 -268 119 -254 q 94 -282 104 -282 z "},"m":{"ha":783,"x_min":28,"x_max":756,"o":"m 60 -279 q 49 -275 54 -279 q 44 -262 44 -271 q 33 -78 33 -133 q 44 0 33 -26 q 57 104 57 33 q 60 140 57 118 q 64 178 64 161 q 50 204 64 204 q 28 229 28 204 q 65 453 36 343 l 79 506 q 83 533 83 525 q 78 543 81 539 q 75 554 75 547 q 77 571 75 561 q 79 596 79 581 q 71 642 79 615 q 63 688 63 668 q 65 725 63 706 q 71 818 71 750 q 122 874 71 874 q 174 876 160 874 q 207 881 188 879 q 241 877 224 881 q 278 874 258 874 q 288 863 288 874 q 301 831 289 863 q 319 767 313 799 q 333 714 324 742 q 347 654 342 686 q 365 583 351 617 q 372 555 371 569 q 378 528 374 540 q 399 515 383 517 q 405 521 403 515 q 410 536 407 526 q 447 658 415 560 q 450 674 450 667 q 446 692 450 685 q 442 708 442 700 q 453 736 442 719 q 481 819 474 776 q 485 840 482 831 q 549 892 503 892 q 578 888 564 890 q 619 886 593 886 q 657 889 643 886 q 703 856 690 889 q 717 783 717 824 q 713 718 717 751 q 710 654 710 685 q 715 601 710 624 q 713 586 715 593 q 710 571 710 579 q 715 463 715 526 q 729 356 719 400 q 738 297 738 321 q 731 267 738 278 q 724 244 724 256 l 725 226 q 731 151 731 210 q 735 80 731 106 q 748 -6 740 54 q 756 -110 756 -65 q 753 -142 756 -129 q 745 -188 747 -171 q 740 -212 743 -206 q 729 -219 738 -219 q 718 -215 721 -219 q 715 -200 715 -211 l 717 -178 q 676 -90 717 -90 l 651 -92 q 609 -90 625 -92 q 583 -89 593 -89 q 558 -94 567 -89 q 546 -115 550 -100 q 531 -219 531 -167 q 529 -247 531 -244 l 529 -250 q 527 -257 528 -253 q 524 -266 526 -261 q 514 -271 522 -271 q 497 -252 500 -269 q 494 -203 494 -235 l 494 -189 q 489 -96 494 -150 l 489 -81 q 501 -21 489 -50 q 506 -10 506 -12 q 496 67 497 15 q 494 175 494 118 q 482 335 494 322 q 447 272 463 306 q 419 222 431 239 q 403 181 408 204 q 389 168 399 168 q 368 196 374 168 q 353 250 368 214 q 311 325 322 322 q 300 272 300 292 l 301 257 q 293 168 301 215 q 288 117 289 143 q 282 63 288 92 q 272 5 276 35 q 261 -54 268 -25 q 251 -124 253 -99 q 244 -162 249 -150 q 228 -175 240 -174 q 218 -172 221 -175 q 214 -165 215 -168 q 211 -160 213 -161 q 207 -136 207 -150 l 207 -131 q 200 -106 207 -118 q 149 -89 193 -93 q 88 -147 94 -89 q 83 -201 83 -174 q 71 -275 83 -264 q 60 -279 65 -279 z "},"n":{"ha":707,"x_min":28,"x_max":679,"o":"m 222 -286 q 192 -236 192 -286 l 193 -210 q 199 -112 199 -187 q 189 -103 199 -103 l 181 -104 q 156 -99 167 -104 q 129 -93 144 -93 q 101 -97 114 -93 q 78 -172 78 -104 q 80 -192 78 -183 q 82 -222 82 -201 q 65 -251 82 -251 q 42 -237 54 -251 q 31 -199 31 -224 q 33 -178 31 -189 q 44 -47 38 -153 q 56 190 51 60 q 61 403 61 319 q 60 464 61 443 l 58 465 q 56 476 58 472 q 45 481 54 479 q 32 494 36 482 q 28 519 28 506 q 31 547 28 535 q 44 749 44 632 q 51 835 44 808 q 92 867 58 863 q 161 872 126 872 q 221 875 190 872 q 264 853 240 875 q 294 813 288 832 q 317 726 308 756 q 331 683 325 697 q 341 662 336 669 q 351 643 346 654 q 363 610 356 632 q 380 570 369 589 q 397 535 390 551 q 436 463 408 493 q 442 469 442 465 q 439 521 439 496 q 436 567 439 556 q 432 643 432 621 q 438 685 432 661 q 444 751 443 710 q 463 860 444 828 q 496 879 472 879 l 504 879 q 521 878 508 878 l 554 879 q 592 874 572 879 l 600 872 q 615 874 607 872 q 631 876 622 876 q 668 858 658 875 q 678 814 678 842 q 674 751 678 789 q 665 635 668 703 q 661 456 664 511 l 660 392 q 662 344 660 365 q 668 239 664 322 q 674 200 668 217 q 679 175 678 193 l 679 96 q 677 90 678 93 q 675 86 676 88 q 658 61 658 79 l 658 47 q 660 14 660 35 q 638 -153 660 -36 q 618 -176 633 -176 q 603 -156 603 -175 l 604 -125 q 567 -89 604 -89 q 505 -117 518 -92 q 492 -181 492 -143 l 493 -215 q 478 -249 493 -249 q 464 -235 464 -249 l 465 -221 q 462 -172 465 -196 q 458 -124 458 -147 l 460 -103 q 456 -68 460 -86 q 454 -47 454 -58 q 439 -12 450 -29 l 419 24 q 400 63 411 43 q 394 51 396 57 q 389 40 392 44 q 379 36 386 36 q 363 58 363 36 q 355 88 363 64 q 321 193 347 113 q 310 238 311 222 q 286 279 310 253 l 282 283 l 282 201 q 281 191 282 192 q 281 189 281 190 q 265 143 265 167 l 267 124 q 264 61 267 81 q 261 -17 261 35 l 264 -53 q 251 -87 264 -78 q 238 -118 238 -96 l 239 -143 q 240 -203 240 -164 q 236 -274 240 -264 q 222 -286 232 -283 z "},"o":{"ha":765,"x_min":28,"x_max":738,"o":"m 617 -422 q 593 -312 593 -419 l 594 -212 q 588 -113 594 -156 q 557 -71 582 -71 q 529 -84 546 -71 q 483 -107 513 -97 q 381 -117 453 -117 q 253 -89 290 -110 q 219 -76 232 -76 q 197 -111 203 -76 l 192 -144 q 181 -226 181 -185 l 182 -237 q 161 -265 178 -265 q 140 -251 150 -265 q 129 -208 129 -237 l 131 -186 q 93 86 131 -81 l 79 147 q 67 218 69 197 q 63 242 64 239 q 58 246 61 246 q 28 290 28 246 q 40 374 28 324 q 67 483 51 424 q 99 604 83 542 q 117 651 103 618 q 149 719 131 683 q 189 779 168 756 q 309 865 254 851 q 414 879 364 879 l 463 879 q 549 847 499 879 q 625 782 599 815 q 706 619 674 724 q 738 381 738 514 q 710 150 738 272 q 708 120 708 140 q 707 79 708 100 q 701 43 706 58 q 683 28 696 28 q 674 30 678 28 q 664 33 669 32 q 660 31 661 33 q 658 27 658 29 q 657 24 658 25 q 642 -68 642 -32 q 638 -206 640 -142 q 635 -333 635 -271 l 636 -393 q 619 -424 636 -424 l 617 -422 m 382 97 q 446 133 413 97 q 506 422 506 199 q 483 603 506 529 q 449 633 478 615 q 426 640 436 640 q 374 591 383 628 q 365 518 365 554 l 365 492 q 364 464 365 476 q 347 446 361 446 q 329 460 333 446 q 325 489 325 474 q 315 533 324 514 l 307 463 q 304 432 304 447 q 306 395 304 417 q 307 343 307 374 l 313 285 q 308 260 313 271 q 304 240 304 249 q 315 213 304 225 q 327 189 321 203 q 333 151 333 175 q 349 113 333 128 q 382 97 364 97 z "},"p":{"ha":738,"x_min":28,"x_max":710,"o":"m 250 -344 q 229 -307 229 -344 l 229 -278 q 231 -231 231 -257 q 221 -126 231 -186 q 210 -117 218 -118 q 197 -114 203 -115 q 149 -107 174 -108 q 110 -128 122 -107 q 96 -176 99 -150 q 93 -219 93 -203 q 92 -231 93 -228 q 74 -256 86 -256 q 56 -240 58 -256 q 51 -185 51 -208 q 49 -139 51 -162 q 36 -82 47 -115 l 36 -81 q 33 -67 33 -74 q 39 -1 39 -39 q 44 97 39 68 q 47 121 47 111 q 43 133 47 129 q 28 167 28 143 q 38 232 28 192 q 54 381 54 319 l 53 418 l 56 469 q 60 592 57 521 q 63 719 63 664 q 62 767 63 753 q 60 790 61 782 q 58 806 58 797 q 93 861 58 846 q 265 885 164 885 q 515 848 392 885 q 669 739 639 811 q 685 703 676 721 q 702 660 694 685 q 710 597 710 636 q 698 501 710 560 q 669 409 686 443 q 635 353 651 375 q 613 317 622 335 q 604 275 604 300 l 606 254 q 599 223 606 238 q 593 188 593 208 l 594 156 q 582 132 594 132 q 569 138 571 132 q 565 158 567 144 q 553 226 565 181 q 550 243 550 235 l 551 257 q 549 295 551 286 q 539 304 546 304 q 524 300 533 304 q 420 283 482 288 q 324 278 358 278 l 300 279 q 285 274 290 279 q 281 263 281 268 q 283 249 281 256 q 285 229 285 242 q 278 181 285 204 q 271 113 272 157 q 268 11 271 44 q 273 -24 268 -15 q 278 -46 278 -33 q 275 -69 278 -57 q 272 -101 272 -81 q 276 -179 272 -135 q 279 -264 279 -224 q 274 -322 279 -299 q 250 -344 268 -344 m 388 463 q 451 490 411 463 q 483 561 483 522 q 458 629 483 600 q 399 658 433 658 q 344 596 353 658 l 343 578 q 338 540 342 550 q 317 529 333 529 q 307 535 310 529 q 304 544 304 540 q 303 549 304 547 l 303 586 q 296 624 303 608 q 290 617 290 621 l 292 592 q 290 555 292 572 q 289 524 289 538 q 297 483 289 499 q 336 468 306 468 l 350 468 q 365 465 357 468 q 388 463 374 463 z "},"q":{"ha":742,"x_min":28,"x_max":713,"o":"m 661 -356 q 643 -326 643 -356 q 647 -267 643 -297 q 650 -207 650 -237 q 629 -118 650 -160 q 576 -179 589 -151 q 564 -231 564 -207 q 566 -256 564 -244 q 568 -278 568 -268 q 550 -311 568 -311 q 537 -306 540 -311 q 533 -289 533 -301 q 527 -236 533 -261 q 521 -185 521 -211 q 503 -162 521 -169 q 474 -133 483 -150 q 449 -104 464 -115 l 447 -103 q 440 -99 443 -99 q 436 -101 439 -99 q 399 -118 418 -118 q 365 -113 382 -118 q 324 -105 349 -108 q 274 -96 299 -101 q 239 -78 250 -90 q 232 -72 235 -72 q 228 -79 228 -72 q 221 -149 228 -118 q 214 -211 214 -179 q 216 -253 214 -233 q 218 -293 218 -274 q 196 -339 218 -339 q 172 -279 172 -339 q 176 -210 172 -249 q 179 -114 179 -162 q 162 -31 178 -61 q 128 21 146 0 q 103 52 114 36 q 93 92 93 68 l 94 99 q 91 110 94 104 q 86 121 88 115 q 57 261 57 224 q 55 270 56 267 q 46 279 54 274 q 28 308 28 283 q 39 386 28 332 l 60 508 q 136 743 82 661 q 258 856 193 821 q 385 890 324 890 q 518 864 467 886 q 610 779 563 843 l 621 765 q 682 631 669 714 q 689 604 685 617 q 696 563 694 583 q 706 433 699 499 q 707 407 707 424 l 704 363 q 699 299 703 340 q 696 221 696 258 q 692 148 696 178 q 673 112 689 118 q 651 94 657 106 q 641 72 644 83 q 633 51 638 60 q 636 44 633 46 q 657 24 647 40 q 668 8 661 15 q 694 -25 685 -7 q 706 -44 700 -35 q 713 -65 713 -53 l 711 -76 q 701 -178 701 -118 l 701 -219 q 683 -339 701 -290 q 661 -356 674 -356 m 329 222 q 347 236 338 222 q 363 252 351 242 q 388 271 374 263 q 415 279 401 279 q 460 253 432 279 l 471 243 l 471 251 q 476 303 471 272 q 488 425 488 350 q 464 604 488 500 q 454 628 460 615 q 442 649 449 640 q 428 658 435 658 q 421 651 424 658 q 417 636 418 643 q 407 597 407 618 l 408 581 q 407 558 408 572 q 400 534 406 544 q 383 524 394 524 q 367 557 367 526 l 369 615 q 360 664 369 642 q 346 644 354 651 q 319 553 329 631 q 312 503 317 528 q 307 460 307 479 l 308 425 q 301 361 308 400 q 297 319 297 340 q 301 278 297 301 q 313 239 306 256 q 329 222 321 222 z "},"r":{"ha":726,"x_min":28,"x_max":699,"o":"m 71 -385 q 49 -350 49 -385 l 51 -324 q 54 -281 54 -307 q 44 -180 54 -226 q 35 -75 35 -133 l 36 -33 q 39 29 39 -3 l 40 156 q 46 257 42 232 q 50 303 49 272 q 46 311 50 308 q 28 347 28 322 q 33 396 28 368 q 42 467 42 431 q 40 493 42 481 q 39 519 39 506 q 43 597 39 568 q 50 665 47 625 q 49 687 50 681 q 47 704 47 693 q 60 807 47 729 q 83 846 64 838 q 125 854 101 854 q 160 860 143 856 q 210 867 185 867 q 247 865 226 867 q 296 864 267 864 l 358 865 q 506 833 421 865 l 529 825 q 579 804 556 819 q 699 576 699 715 q 688 477 699 526 q 663 382 676 428 q 635 242 635 285 l 635 225 q 621 211 635 211 q 607 225 608 211 q 594 289 601 271 q 572 307 586 307 q 541 297 557 307 q 525 269 525 286 q 531 238 525 257 q 547 207 538 219 q 635 -15 586 149 q 643 -42 639 -32 q 660 -107 660 -93 q 657 -117 660 -114 q 644 -139 647 -128 q 640 -165 642 -150 q 628 -249 640 -192 q 610 -265 622 -265 q 592 -236 592 -265 q 597 -199 592 -212 q 601 -172 601 -186 q 551 -114 601 -114 q 528 -115 540 -114 q 510 -117 517 -117 l 500 -115 q 492 -126 493 -115 q 485 -162 490 -144 q 481 -203 481 -181 l 482 -222 q 467 -236 481 -236 q 458 -231 460 -235 q 456 -210 457 -228 q 415 -22 453 -103 l 411 -12 q 385 13 406 11 q 369 39 376 13 l 367 53 q 324 174 361 100 q 293 219 308 206 q 296 190 296 210 q 289 81 296 149 q 282 -35 282 14 l 282 -58 q 276 -103 282 -81 q 268 -147 269 -125 q 262 -166 268 -158 q 247 -174 256 -174 q 227 -152 235 -174 q 200 -131 219 -131 l 171 -133 q 142 -128 157 -133 q 119 -124 128 -124 q 96 -158 97 -124 q 89 -262 89 -218 l 90 -335 q 87 -372 90 -360 q 71 -385 83 -385 m 304 451 q 379 461 361 461 l 415 460 q 439 464 429 460 q 460 493 449 468 q 479 558 479 536 q 471 601 479 576 q 469 598 471 600 q 467 593 467 596 l 468 583 q 463 544 468 564 l 458 524 q 436 494 451 494 q 423 501 429 494 q 417 521 417 508 l 418 550 q 409 624 418 610 q 381 646 400 638 q 350 654 363 654 q 313 629 329 650 q 296 590 296 608 l 293 485 q 295 458 293 464 q 304 451 297 451 z "},"s":{"ha":679,"x_min":29,"x_max":651,"o":"m 57 -272 q 39 -262 43 -272 q 35 -237 35 -253 q 32 -89 35 -161 q 29 -24 29 -49 q 46 44 29 28 q 118 131 97 96 q 169 165 139 165 q 217 146 192 165 l 242 126 q 283 93 264 113 q 301 86 290 86 q 333 92 317 86 q 358 99 349 99 q 410 131 394 103 q 425 189 425 158 q 417 233 425 214 q 397 257 410 253 q 371 267 383 261 q 329 278 351 275 q 319 267 321 278 q 314 232 314 247 l 314 208 q 310 192 314 197 q 296 188 307 188 q 275 222 278 188 q 258 276 272 257 q 201 304 242 293 q 147 327 174 314 q 107 364 121 340 q 92 370 101 369 q 73 376 82 371 q 63 400 64 382 q 49 513 58 472 q 40 568 40 542 q 56 638 40 599 l 69 689 q 172 821 92 771 q 211 840 201 839 q 257 851 235 843 q 365 864 293 864 q 431 860 413 864 q 492 856 449 856 q 560 818 526 856 q 581 801 572 806 q 624 769 607 793 q 642 719 642 746 l 642 694 l 640 683 l 642 599 q 638 522 642 551 q 617 492 633 492 q 606 498 608 492 q 601 518 603 504 q 603 535 601 526 q 604 556 604 544 q 603 569 604 561 q 599 584 601 578 q 592 590 596 590 q 586 585 589 590 q 572 568 581 574 q 558 559 564 563 q 547 554 551 556 q 517 525 522 539 q 511 501 511 511 l 511 497 q 496 478 511 478 q 480 488 483 479 q 476 513 476 497 q 472 585 476 564 q 453 622 468 606 q 379 657 419 650 q 351 665 365 663 q 321 614 332 665 l 314 579 q 300 568 311 568 q 282 614 282 568 q 263 554 263 579 q 285 500 263 519 q 329 481 308 481 q 338 483 335 482 q 357 483 342 483 q 463 457 403 483 q 550 408 522 431 q 622 335 592 376 q 651 239 651 294 l 650 181 l 649 147 l 640 101 q 629 56 635 67 q 622 32 624 46 l 593 -162 q 567 -197 589 -197 q 547 -181 551 -196 q 543 -133 543 -167 q 541 -96 543 -107 q 531 -85 539 -85 l 522 -86 l 483 -104 q 450 -118 463 -112 q 410 -124 438 -124 l 333 -122 q 257 -131 296 -122 q 241 -128 249 -131 q 226 -126 233 -126 q 212 -134 218 -126 q 204 -168 206 -142 q 199 -183 204 -178 q 189 -187 194 -187 q 164 -156 172 -187 q 107 -72 151 -111 q 94 -67 100 -67 q 82 -115 82 -67 l 83 -151 l 83 -193 q 78 -249 83 -225 q 57 -272 74 -272 z "},"t":{"ha":718,"x_min":28,"x_max":690,"o":"m 426 -187 q 410 -169 410 -187 q 400 -112 410 -135 l 397 -103 q 381 -88 393 -90 q 358 -86 368 -86 l 347 -86 q 325 -85 335 -86 q 310 -94 317 -85 q 282 -160 286 -126 q 268 -179 282 -179 q 258 -176 260 -179 q 254 -161 256 -172 l 254 -157 q 228 -51 254 -132 q 224 -24 224 -37 q 228 0 224 -11 q 243 88 239 33 q 250 196 247 142 q 257 294 251 268 q 253 304 257 303 q 243 306 249 306 q 233 308 238 306 q 228 321 228 311 l 228 328 q 242 419 238 393 q 248 456 246 444 q 250 481 250 468 l 244 617 q 233 647 244 632 q 206 664 221 663 q 142 669 156 669 q 101 658 118 669 q 82 614 85 647 q 81 599 82 607 q 79 581 79 590 l 81 563 q 78 540 81 551 q 75 517 75 528 l 76 504 q 73 499 76 501 q 65 496 69 496 q 48 508 57 496 q 39 571 39 521 l 42 607 q 35 657 42 636 q 28 703 28 678 q 31 737 28 718 q 35 801 35 756 q 49 848 35 831 q 122 865 63 865 q 222 857 161 865 q 283 856 243 856 q 432 858 347 856 l 540 860 l 582 858 l 635 861 q 673 851 656 861 q 690 792 690 840 l 690 718 q 685 683 690 697 q 672 606 675 656 q 651 575 672 575 q 638 585 640 575 q 634 606 635 596 q 632 625 633 617 q 617 658 626 653 q 588 664 608 664 q 551 667 568 664 l 529 669 q 492 655 508 669 q 472 617 476 640 q 460 339 464 551 q 457 196 457 256 q 468 89 468 140 q 460 44 468 54 q 457 31 457 38 l 460 -4 q 447 -101 460 -39 q 444 -142 444 -122 q 442 -174 444 -161 q 426 -187 439 -187 z "},"u":{"ha":714,"x_min":28,"x_max":686,"o":"m 578 -282 q 557 -232 557 -282 q 560 -183 557 -211 q 561 -78 561 -147 q 543 -36 558 -46 q 535 -28 539 -33 q 526 -24 531 -24 q 521 -25 524 -24 q 515 -29 518 -26 q 508 -33 513 -32 l 482 -42 q 431 -58 460 -50 q 351 -65 401 -65 q 239 -42 275 -65 q 224 -37 231 -37 q 183 -99 190 -37 q 181 -164 181 -124 q 176 -192 181 -182 q 156 -201 171 -201 q 146 -194 147 -201 q 143 -175 144 -187 q 139 -144 142 -162 l 90 76 q 76 165 76 136 l 78 178 q 70 228 78 201 q 63 283 63 256 l 64 328 l 60 356 l 56 379 q 33 389 35 379 q 28 431 28 406 q 67 682 67 672 l 64 693 q 56 768 56 721 q 74 853 56 811 q 138 894 93 894 l 146 894 q 210 890 182 890 q 257 888 238 890 q 299 822 299 879 q 295 785 299 804 q 292 663 292 767 l 292 267 q 297 206 292 217 q 311 188 303 194 q 328 167 319 181 q 351 153 336 153 q 395 171 372 153 q 418 208 418 189 l 417 228 q 420 265 417 247 q 425 300 424 283 q 428 399 426 363 q 431 462 429 436 q 435 518 433 488 q 428 542 435 542 q 422 556 422 544 l 422 568 l 433 647 l 435 676 q 432 713 435 692 q 425 799 425 768 q 446 865 425 839 q 508 890 467 890 l 532 889 l 592 890 l 638 889 q 659 885 651 889 q 672 861 667 881 q 685 740 685 806 q 686 722 685 731 q 678 607 678 667 q 681 515 678 561 l 682 443 q 663 354 682 361 q 658 349 658 351 q 657 338 657 346 q 651 260 657 306 q 642 152 644 206 q 631 45 640 99 q 619 -72 621 -8 q 614 -132 619 -101 q 601 -211 601 -174 l 601 -218 q 597 -263 601 -246 q 578 -282 593 -281 z "},"v":{"ha":731,"x_min":28,"x_max":703,"o":"m 435 -357 q 424 -352 426 -357 q 422 -333 422 -347 q 418 -257 422 -300 q 403 -180 414 -214 q 373 -144 393 -146 q 331 -143 353 -143 q 285 -149 290 -143 q 279 -161 279 -154 q 264 -235 264 -211 l 264 -242 q 253 -262 264 -260 q 229 -183 233 -262 q 225 -154 228 -164 q 207 -61 213 -99 q 186 15 200 -11 q 182 29 182 22 q 161 140 175 85 q 143 246 146 218 q 122 346 138 297 q 119 370 119 354 q 117 394 119 386 q 103 404 114 403 q 88 416 92 406 q 83 436 83 426 q 31 815 79 676 q 28 831 28 822 q 46 869 28 851 q 92 888 64 886 l 117 889 q 144 886 135 889 q 161 882 153 883 q 181 887 171 882 q 201 892 190 892 q 260 879 246 889 q 280 844 274 869 q 294 765 286 818 l 313 656 q 331 508 318 619 q 357 418 340 418 q 375 428 372 419 q 388 471 381 450 q 408 554 401 513 q 424 658 413 589 q 447 844 447 815 q 461 869 447 860 q 490 879 475 879 l 517 879 q 547 877 522 878 q 602 875 572 876 q 654 874 632 874 q 690 861 676 874 q 703 828 703 849 l 701 814 q 676 699 686 757 q 651 601 669 667 q 588 310 613 467 l 585 289 q 553 149 579 215 q 531 85 540 117 l 513 32 q 493 -50 497 -10 q 481 -97 488 -83 q 468 -149 468 -121 l 468 -154 q 465 -187 468 -171 q 446 -317 450 -243 l 447 -344 q 435 -357 447 -357 z "},"w":{"ha":819,"x_min":28,"x_max":792,"o":"m 144 -319 q 125 -295 129 -318 q 121 -236 121 -272 q 101 -97 121 -169 q 96 -14 96 -75 q 97 67 96 31 l 99 88 q 85 210 99 143 q 72 243 78 238 q 42 296 42 260 q 43 324 42 308 q 44 358 44 340 l 43 385 q 36 531 36 453 q 38 642 36 589 l 39 704 q 32 775 39 738 q 28 806 28 790 q 35 847 28 822 q 55 872 39 865 q 115 879 71 879 q 263 867 242 879 q 269 856 269 861 l 268 843 q 274 800 268 821 l 279 769 q 303 399 279 678 q 310 376 304 376 q 353 475 324 376 l 360 497 q 383 526 364 518 q 396 538 392 529 q 414 549 407 549 q 428 542 424 547 q 435 531 432 538 q 444 518 439 525 q 481 469 472 492 q 492 429 490 447 q 500 395 494 411 q 522 361 506 379 q 533 460 533 413 l 533 507 q 532 585 532 539 q 538 749 532 647 l 539 776 l 539 790 q 556 860 539 825 q 610 888 576 888 q 647 884 625 888 q 694 881 668 881 q 717 882 706 881 q 738 883 728 883 q 788 843 775 883 q 792 785 792 825 q 774 517 792 679 l 764 433 q 760 257 760 404 l 761 136 q 751 109 761 119 q 740 81 740 99 q 713 -225 740 -58 q 710 -256 713 -250 q 699 -262 707 -262 q 688 -252 690 -262 q 683 -225 685 -242 q 673 -174 682 -199 q 631 -150 664 -150 q 581 -161 608 -150 q 566 -176 569 -165 q 561 -211 563 -187 q 539 -301 556 -301 q 521 -281 521 -299 q 524 -253 522 -267 q 525 -224 525 -240 q 519 -161 525 -186 q 503 -110 513 -136 q 486 -43 493 -85 q 472 13 482 -15 q 450 85 461 40 q 431 169 439 131 q 418 217 422 207 q 344 4 390 172 l 325 -65 q 318 -119 319 -93 q 304 -246 318 -165 q 288 -271 303 -271 q 272 -257 272 -271 l 274 -236 q 265 -190 274 -215 q 238 -164 257 -164 l 201 -168 q 169 -212 169 -175 q 168 -268 169 -249 q 144 -319 164 -319 z "},"x":{"ha":729,"x_min":28,"x_max":701,"o":"m 507 -310 q 490 -294 496 -310 q 485 -258 485 -279 q 486 -225 485 -243 q 488 -185 488 -207 q 458 -58 488 -124 q 446 -29 451 -44 q 431 -19 442 -19 q 416 -16 421 -19 q 407 2 411 -12 q 403 26 403 17 l 404 43 q 365 132 404 67 q 358 138 361 138 q 350 126 353 138 l 336 94 q 281 -79 296 11 q 278 -94 281 -86 q 275 -110 275 -101 q 278 -119 275 -115 q 282 -129 281 -124 l 282 -132 q 272 -147 275 -137 q 268 -166 269 -156 q 263 -184 267 -176 q 249 -193 260 -192 q 233 -181 238 -193 q 225 -150 229 -169 q 223 -136 225 -144 q 216 -126 221 -128 q 135 -121 211 -124 q 97 -145 104 -121 q 89 -200 89 -169 l 89 -247 q 82 -293 89 -275 q 81 -297 82 -294 q 76 -302 79 -299 q 68 -306 74 -306 q 53 -290 57 -304 q 50 -253 50 -276 q 36 -122 47 -161 q 29 -74 29 -96 q 44 -14 29 -47 q 156 193 56 10 q 215 304 213 297 q 240 374 240 347 q 233 403 240 388 q 213 440 226 418 q 128 618 185 488 q 122 585 122 604 q 119 553 122 565 q 106 540 117 540 q 85 599 85 540 l 85 636 q 68 740 85 706 l 65 721 q 60 682 64 692 q 47 672 57 672 q 35 686 35 672 l 35 696 q 31 751 35 719 q 28 813 28 782 q 36 867 28 844 q 71 890 44 890 q 113 892 89 890 q 163 894 138 894 q 249 864 232 894 q 331 686 307 749 q 374 613 356 614 q 410 695 386 656 q 444 767 435 735 q 472 824 454 799 q 480 844 476 831 q 492 871 483 857 q 526 885 501 885 l 581 883 l 642 883 q 682 876 669 883 q 701 811 701 864 q 699 723 701 776 q 695 628 697 669 q 692 583 693 586 q 691 575 692 579 q 688 566 690 571 q 676 561 685 561 q 658 585 661 563 q 654 635 654 607 q 651 682 654 663 q 636 703 647 701 q 610 679 622 703 q 585 621 599 656 q 556 554 572 586 q 519 472 533 515 q 508 450 517 458 q 490 413 494 433 l 482 392 l 483 382 q 585 147 536 272 q 664 -24 646 -11 q 690 -72 690 -44 l 689 -89 q 685 -157 685 -125 q 682 -197 685 -179 q 674 -212 681 -207 q 661 -218 668 -218 q 643 -199 644 -218 q 629 -142 640 -168 q 610 -117 618 -117 l 599 -118 q 553 -128 575 -118 q 528 -178 531 -139 q 524 -254 525 -217 q 520 -274 524 -264 q 517 -294 517 -285 l 518 -300 q 507 -310 518 -310 z "},"y":{"ha":743,"x_min":28,"x_max":715,"o":"m 289 -296 q 272 -281 279 -296 q 264 -217 264 -251 l 264 -190 q 256 -100 264 -153 q 251 7 251 -71 l 251 107 q 235 146 235 126 q 243 186 235 165 q 253 271 253 215 l 253 318 q 247 394 253 363 q 221 449 242 426 q 217 451 219 449 q 214 454 215 454 q 189 467 194 456 q 181 497 183 478 q 160 568 181 526 q 139 614 147 590 q 126 642 132 631 q 114 654 121 654 q 98 645 101 653 q 94 617 94 638 q 83 572 94 596 q 81 560 81 567 l 81 543 l 83 496 q 69 478 83 478 q 57 493 60 478 q 51 732 54 664 q 36 803 49 785 q 28 831 28 817 q 48 865 28 850 q 117 881 68 881 l 139 879 q 185 886 161 879 q 199 889 192 889 q 238 877 217 889 q 268 851 258 865 q 314 735 296 800 q 364 597 331 675 q 374 607 371 599 q 442 767 399 681 q 466 828 460 807 q 478 863 472 850 q 500 882 485 875 q 583 900 540 900 l 629 900 l 649 901 q 678 896 663 901 q 715 842 715 876 q 713 825 715 833 q 692 701 692 775 q 688 599 692 626 q 675 585 683 585 q 656 640 656 585 q 658 701 656 672 l 658 714 q 649 729 657 729 q 635 719 642 729 q 592 632 618 681 q 574 600 583 615 q 540 535 554 568 q 472 346 481 381 q 467 294 467 326 q 469 257 469 283 q 467 212 469 236 q 463 150 464 188 q 468 79 463 114 q 474 40 474 60 q 463 6 474 24 q 461 -1 461 4 l 464 -32 q 476 -78 464 -57 q 481 -93 481 -85 q 478 -107 481 -100 q 464 -178 464 -144 l 464 -183 q 461 -215 464 -203 q 442 -228 458 -228 q 431 -222 433 -228 q 426 -207 428 -217 q 421 -186 425 -197 q 401 -151 413 -157 q 364 -144 389 -144 q 319 -153 326 -144 q 311 -193 313 -161 q 304 -283 307 -269 q 289 -296 301 -296 z "},"z":{"ha":685,"x_min":28,"x_max":657,"o":"m 88 -319 q 78 -315 82 -319 q 74 -304 74 -311 l 75 -274 q 67 -200 75 -236 q 61 -160 64 -179 q 46 -127 58 -140 q 33 -94 33 -114 l 35 -61 q 32 -4 35 -31 q 28 39 29 15 q 41 97 28 71 q 71 147 54 124 l 140 254 q 267 454 207 356 q 346 608 328 553 l 346 618 q 332 652 346 636 q 300 668 318 668 l 278 668 l 194 671 q 132 656 158 671 q 105 594 106 642 q 102 519 104 546 q 97 482 100 493 q 90 467 93 471 q 81 464 86 464 q 66 476 69 464 q 63 507 63 488 l 64 550 q 54 635 64 589 q 48 678 51 646 q 42 747 44 710 q 39 807 39 783 q 63 872 40 856 q 135 888 86 888 l 224 885 q 285 888 257 886 q 346 890 313 890 l 393 890 q 485 893 450 890 l 528 894 q 601 874 571 894 q 610 860 608 868 q 617 849 613 853 q 641 806 635 829 q 650 758 647 782 q 654 727 651 742 q 657 699 657 713 q 651 646 657 672 q 644 571 644 608 l 646 507 q 642 460 646 483 q 638 414 638 438 l 638 397 q 634 388 638 392 q 625 385 631 385 q 614 400 614 385 q 601 481 611 440 q 592 547 596 513 q 588 556 592 553 q 513 446 542 507 q 490 412 503 426 q 468 382 478 397 q 325 142 460 363 l 322 138 q 315 122 315 128 q 324 110 315 115 q 342 104 332 104 l 381 106 l 460 104 q 510 107 497 104 l 522 108 q 592 92 558 108 q 626 33 626 76 q 624 1 626 17 q 622 -28 622 -14 l 624 -58 q 614 -135 624 -90 q 604 -221 604 -179 l 606 -247 q 585 -274 606 -271 q 573 -262 576 -274 q 563 -211 569 -251 q 507 -132 547 -161 q 499 -128 503 -128 l 471 -131 q 445 -129 458 -131 q 418 -128 432 -128 q 384 -131 401 -128 q 349 -133 367 -133 q 299 -131 321 -133 q 253 -128 276 -129 q 209 -131 231 -128 q 167 -133 188 -133 l 142 -132 l 132 -131 q 114 -174 115 -131 l 113 -210 q 104 -294 113 -250 l 101 -304 q 88 -319 96 -319 z "},"{":{"ha":386,"x_min":28,"x_max":358,"o":"m 307 -100 q 292 -87 293 -100 q 289 -48 292 -56 q 257 -18 286 -40 q 235 -7 244 -8 q 208 0 226 -6 q 131 83 153 24 q 108 204 108 142 l 111 258 l 110 290 l 111 315 q 105 334 111 324 q 90 352 99 344 q 74 360 81 360 q 67 351 68 360 l 64 311 q 56 293 61 300 q 46 286 51 286 q 28 368 28 286 q 31 450 28 400 q 45 476 33 468 q 71 489 57 485 q 119 519 96 499 q 143 563 143 540 q 141 573 142 568 q 140 588 140 578 q 139 646 139 597 q 139 692 139 686 q 138 702 139 699 q 138 711 138 706 q 184 810 138 768 q 288 865 231 853 q 317 868 304 868 q 358 831 358 868 q 351 783 358 810 q 344 729 344 756 l 346 717 q 342 698 346 707 q 338 679 339 689 q 325 669 336 669 q 313 685 313 669 l 314 732 q 308 742 314 738 q 288 653 288 713 l 288 603 q 283 553 288 574 l 281 538 q 283 526 281 532 q 285 514 285 521 q 246 432 282 457 q 231 410 231 419 q 240 390 231 403 q 251 360 249 376 l 256 343 q 263 290 263 321 q 260 235 263 264 q 258 181 258 207 q 292 100 258 111 q 314 83 306 94 q 326 73 319 78 q 335 63 333 68 q 338 40 338 57 q 331 -4 338 13 q 325 -54 325 -21 l 326 -85 q 320 -96 326 -92 q 307 -100 314 -100 z "},"|":{"ha":219,"x_min":28,"x_max":192,"o":"m 167 -187 q 150 -147 150 -187 q 140 -64 150 -118 q 126 -47 138 -54 q 101 -40 114 -40 q 84 -47 90 -40 q 76 -62 78 -53 q 75 -82 75 -72 l 75 -90 q 61 -115 75 -114 q 44 -101 49 -115 q 39 -76 39 -87 q 42 -39 42 -60 q 35 31 42 0 q 28 90 28 61 q 32 129 28 110 q 39 435 39 161 q 41 476 39 454 q 43 522 43 497 q 41 572 43 549 q 38 628 39 596 q 42 689 38 649 q 47 765 47 735 l 46 804 l 47 842 q 89 868 50 868 l 94 867 q 119 869 108 869 q 175 853 160 869 q 190 824 190 838 l 189 796 q 190 738 189 772 q 192 671 192 704 q 186 599 192 624 q 183 588 183 593 q 185 576 183 582 q 186 432 186 569 l 186 392 q 181 329 182 358 q 183 317 181 322 q 185 304 185 311 q 179 292 185 297 q 183 249 182 285 q 186 160 185 213 q 188 60 188 108 q 185 -31 188 0 q 181 -78 183 -61 q 179 -111 179 -94 l 185 -160 q 180 -181 185 -174 q 169 -189 175 -189 l 167 -187 z "},"}":{"ha":369,"x_min":28,"x_max":342,"o":"m 69 -128 q 51 -120 54 -128 q 47 -96 49 -112 q 50 -66 47 -76 q 54 -44 53 -56 q 50 -28 54 -37 q 46 -8 46 -19 l 47 7 q 44 26 47 15 q 40 46 40 36 q 49 67 40 57 q 79 83 57 76 q 108 111 101 90 q 115 163 115 132 l 114 235 q 133 367 114 306 q 137 372 135 369 q 139 376 139 374 q 149 393 142 386 q 158 410 156 400 q 142 415 147 410 q 135 424 138 419 q 131 432 133 429 q 102 478 107 460 q 97 561 97 497 q 93 643 96 617 q 89 694 90 669 q 85 706 89 701 q 81 716 81 710 q 76 722 81 722 q 68 708 72 721 q 61 678 64 694 q 58 654 58 663 q 55 642 58 646 q 46 638 51 638 q 35 642 40 638 q 31 653 31 646 l 32 668 q 30 692 32 681 q 28 717 28 704 q 32 769 32 754 l 31 810 q 32 822 31 815 q 33 840 33 829 q 44 856 33 850 q 65 863 54 863 q 129 840 100 857 q 156 828 142 833 q 201 783 183 814 l 210 771 q 240 650 240 729 q 239 608 240 628 q 238 572 238 589 q 242 535 238 551 q 258 510 246 518 q 283 491 269 503 q 319 467 297 479 q 342 429 342 456 q 337 394 342 415 q 332 340 332 372 q 333 314 332 325 q 335 300 335 308 q 319 272 335 272 l 315 274 q 305 281 307 275 q 301 297 303 288 l 301 301 q 293 336 301 317 q 291 340 292 338 q 289 344 290 342 q 283 347 288 347 q 265 323 269 346 q 256 214 261 300 l 254 204 q 256 178 254 192 q 258 153 258 165 q 254 125 258 142 q 240 66 250 94 q 204 18 231 38 q 143 -15 161 -10 q 101 -40 121 -26 q 81 -71 81 -53 q 81 -77 81 -75 q 83 -82 82 -79 q 85 -90 83 -85 q 83 -101 85 -96 q 82 -114 82 -107 q 69 -128 81 -128 z "},"~":{"ha":433,"x_min":28,"x_max":406,"o":"m 285 264 q 235 274 251 264 l 168 315 q 150 328 157 328 q 138 308 143 328 q 125 298 135 304 q 105 287 115 292 q 89 282 94 282 q 49 294 71 282 q 28 321 28 306 q 31 331 28 325 q 43 361 40 344 q 88 429 54 410 q 143 449 113 443 q 207 428 190 440 q 232 403 224 417 q 254 377 240 390 q 278 364 268 364 q 294 376 289 364 q 303 402 300 389 q 311 419 307 415 q 361 439 335 439 q 401 421 393 439 q 406 396 406 411 q 329 274 406 338 q 285 264 311 264 z "},"":{"ha":267,"x_min":28,"x_max":239,"o":"m 53 -503 q 44 -500 46 -503 q 38 -472 42 -497 q 28 -364 28 -415 q 29 -332 28 -346 q 42 -238 35 -300 q 49 -135 49 -176 q 44 -36 44 -111 q 47 5 44 -6 q 49 24 49 15 q 44 169 49 63 q 38 244 42 215 q 33 274 33 261 q 35 286 33 282 q 39 296 38 290 q 37 301 39 299 q 35 306 35 304 q 31 319 31 313 q 53 342 31 338 q 114 347 83 347 q 151 343 133 347 l 158 342 q 169 344 164 342 q 185 347 175 347 q 218 336 197 347 q 226 299 226 328 q 224 242 226 275 q 221 161 221 210 q 225 8 225 128 q 224 -29 225 -17 q 223 -48 224 -42 q 222 -57 222 -54 q 224 -73 222 -65 q 226 -89 226 -81 l 224 -139 q 221 -192 221 -172 l 224 -226 l 224 -258 q 231 -302 224 -281 q 239 -347 239 -324 q 233 -376 239 -361 l 232 -385 q 234 -402 232 -392 q 236 -421 236 -412 q 221 -440 236 -439 q 207 -433 213 -440 q 198 -418 201 -426 q 194 -404 194 -410 l 196 -397 q 192 -383 196 -389 q 185 -374 189 -378 q 179 -365 182 -369 q 156 -351 168 -351 q 140 -355 149 -351 q 122 -358 132 -358 l 115 -358 l 104 -360 q 75 -390 75 -368 l 76 -412 q 72 -430 76 -421 q 67 -456 67 -439 l 68 -478 q 53 -503 68 -500 m 125 379 q 65 403 89 379 q 40 460 40 428 q 72 537 43 510 q 135 564 100 564 q 192 541 167 564 q 218 469 217 518 q 190 406 218 433 q 125 379 161 379 z "},"":{"ha":444,"x_min":28,"x_max":417,"o":"m 221 -87 q 196 -69 199 -87 q 190 0 190 -35 l 193 51 l 189 115 l 189 121 q 180 145 189 139 q 156 156 171 151 q 79 218 103 172 q 42 321 56 264 l 35 344 q 28 399 28 371 l 29 460 q 53 547 29 499 q 109 631 78 594 q 164 679 140 668 q 174 688 172 683 q 176 703 176 693 l 176 717 q 200 789 176 782 q 232 793 214 793 q 299 788 257 793 l 307 786 q 340 749 340 778 q 338 730 340 740 q 336 710 336 719 q 344 677 336 682 q 367 671 353 672 q 397 660 381 669 q 414 636 414 650 q 394 590 414 617 q 367 513 367 543 q 370 489 367 500 q 374 467 374 478 q 371 438 374 451 q 369 424 369 431 q 365 411 368 417 q 354 406 361 406 q 334 420 342 406 q 326 457 326 435 q 331 484 326 471 q 335 511 335 497 q 328 560 335 536 q 312 575 325 568 q 286 582 299 582 l 281 581 q 192 521 206 565 q 175 431 175 472 q 204 329 175 365 q 214 314 210 324 q 236 279 222 296 q 271 263 250 263 q 292 268 281 263 q 350 286 326 286 q 383 260 372 286 q 399 236 389 247 q 417 193 417 215 q 394 163 417 171 q 342 124 342 140 l 343 108 q 340 82 343 96 l 339 67 q 318 51 336 53 q 309 49 314 50 q 301 47 304 47 q 293 47 297 47 l 285 47 q 242 38 253 47 q 232 -19 232 28 l 233 -75 q 221 -87 233 -86 z "},"":{"ha":553,"x_min":28,"x_max":525,"o":"m 489 -193 q 478 -185 483 -193 q 474 -167 474 -176 q 475 -154 474 -160 q 476 -125 476 -142 q 465 -21 476 -87 q 446 8 463 -6 q 408 21 429 21 q 347 23 378 21 q 285 25 315 25 l 240 24 q 167 18 194 18 l 156 18 q 117 13 131 18 q 101 -21 104 7 q 95 -47 100 -33 q 90 -76 90 -60 q 92 -88 90 -83 q 94 -99 93 -93 q 90 -121 94 -108 q 78 -133 86 -133 q 65 -124 72 -133 q 58 -104 58 -115 q 60 -88 58 -96 q 63 -72 63 -81 q 57 -25 63 -64 q 56 43 56 -1 q 47 90 56 63 l 46 99 q 63 160 46 119 q 103 314 83 213 l 104 319 q 94 328 104 328 l 85 328 q 71 326 79 326 q 48 333 60 326 q 32 358 36 340 q 28 396 28 376 q 29 429 28 415 l 31 440 q 44 461 32 454 q 71 468 57 468 q 85 466 79 468 q 96 464 92 464 q 110 476 107 464 q 113 542 113 489 q 151 689 113 622 l 168 714 q 197 756 186 742 q 218 779 207 771 q 299 810 243 796 q 367 817 331 817 q 485 763 450 817 q 489 751 489 757 q 482 733 489 742 q 442 583 442 664 l 442 567 q 425 538 442 538 q 408 546 417 538 q 400 565 400 554 q 403 644 403 622 q 397 671 403 667 q 374 677 390 675 q 336 683 358 679 q 282 638 311 683 q 242 501 242 572 l 240 467 q 249 461 240 461 q 267 465 256 461 q 292 468 279 468 q 317 440 317 468 q 322 378 322 390 q 320 355 322 367 q 311 339 318 343 q 297 333 304 335 q 281 328 289 332 q 267 325 274 325 q 257 327 261 325 q 249 331 253 329 q 244 333 246 333 q 243 326 243 333 q 224 247 239 285 q 210 199 215 224 q 204 185 208 193 q 197 172 200 178 q 194 160 194 165 q 211 149 194 150 q 247 145 228 147 q 285 143 265 143 q 310 145 299 143 q 336 147 322 147 l 393 144 q 422 147 407 144 q 451 150 436 150 l 474 149 l 503 149 q 517 139 511 149 q 522 117 522 129 l 521 103 q 523 92 521 96 q 525 79 525 89 q 518 67 518 72 l 519 60 q 514 17 519 38 q 508 -25 508 -4 q 513 -83 513 -67 q 510 -114 513 -99 q 507 -144 507 -129 l 508 -168 q 502 -184 508 -175 q 489 -193 496 -193 z "},"":{"ha":554,"x_min":28,"x_max":526,"o":"m 217 -61 q 201 -42 201 -56 l 201 -26 q 203 -6 203 -18 q 201 65 203 29 q 199 126 199 101 q 201 157 199 146 q 194 171 201 168 q 175 174 186 174 q 155 172 165 174 q 133 171 144 171 q 81 207 83 171 l 79 210 q 76 243 76 221 q 88 287 76 268 q 135 306 99 306 l 151 307 l 171 307 q 185 317 181 307 q 190 336 190 326 q 182 350 190 350 q 144 344 151 344 q 108 343 119 344 q 88 352 92 343 q 83 375 83 361 l 83 440 q 90 476 83 465 q 129 490 97 486 q 144 500 144 493 q 140 516 144 506 q 131 539 135 526 q 117 574 125 558 q 107 604 110 590 q 90 642 101 624 q 85 654 86 647 q 81 667 85 661 q 69 676 78 674 q 67 647 67 661 l 68 632 q 54 613 68 613 q 32 650 32 613 l 33 678 q 31 708 33 693 q 28 740 28 724 q 31 765 28 751 q 48 790 33 778 q 75 801 63 801 q 105 804 88 801 q 140 807 122 807 q 173 800 158 807 q 196 771 188 793 q 236 668 206 743 l 264 599 q 274 590 265 590 q 293 607 286 590 q 297 620 296 614 q 299 632 297 626 l 306 653 q 350 753 321 707 q 351 760 351 756 q 367 787 358 781 q 388 793 376 793 q 406 791 394 793 q 431 789 417 789 q 449 792 439 789 q 468 794 458 794 q 491 791 481 794 q 514 788 501 788 l 515 788 q 526 767 526 788 l 525 729 q 518 593 518 685 l 519 535 q 504 517 519 517 l 500 517 q 482 542 482 517 q 480 578 482 560 q 478 626 478 596 q 476 660 478 647 q 475 667 475 663 q 454 625 465 644 q 426 560 435 590 q 396 506 417 531 q 389 494 389 499 q 392 490 389 492 q 403 485 396 488 q 419 478 411 483 q 429 464 428 474 q 432 447 431 454 q 436 421 436 433 l 433 394 q 428 368 433 379 q 401 356 422 357 q 360 353 364 356 q 357 339 357 351 q 359 319 357 325 q 371 313 361 313 q 383 316 376 314 q 399 318 389 318 q 430 307 419 318 q 440 286 440 296 q 438 259 439 269 q 435 239 436 249 q 435 212 435 229 q 428 185 435 194 q 397 173 422 175 q 363 162 372 171 q 353 138 353 153 q 356 108 353 125 q 360 65 360 90 q 358 34 360 44 q 357 6 357 24 q 353 -12 357 -6 q 338 -19 350 -18 q 328 -15 331 -19 q 324 -3 325 -10 q 320 8 322 4 q 317 16 318 13 q 315 26 315 19 q 312 40 314 33 q 305 48 310 46 q 296 50 300 50 q 281 49 288 50 q 265 47 274 47 q 248 33 256 47 q 240 0 240 19 q 222 -61 240 -61 l 217 -61 z "},"":{"ha":219,"x_min":28,"x_max":192,"o":"m 168 -189 q 153 -183 157 -187 q 150 -165 150 -178 q 140 -125 150 -153 q 126 -116 138 -119 q 101 -112 114 -112 q 84 -116 90 -112 q 76 -124 78 -119 q 75 -133 75 -129 l 75 -137 q 61 -151 75 -150 q 44 -144 49 -151 q 39 -131 39 -136 q 42 -111 42 -122 q 35 -76 42 -92 q 28 -46 28 -60 q 33 -24 28 -36 q 39 132 39 -11 q 41 153 39 142 q 43 176 43 164 q 41 202 43 190 q 38 231 39 214 q 42 263 38 242 q 47 301 47 285 l 46 321 q 49 342 47 331 q 89 354 50 354 l 94 353 l 119 354 q 175 346 160 354 q 190 332 190 338 l 189 317 q 190 287 189 304 q 192 253 192 269 q 186 215 192 228 q 183 210 183 213 q 185 203 183 207 q 186 131 186 200 q 185 109 186 113 q 183 100 185 106 q 181 76 182 94 q 183 71 181 74 q 185 64 185 68 q 179 58 185 61 q 183 35 182 54 q 186 -10 185 17 q 188 -61 188 -36 q 185 -108 188 -92 q 181 -132 183 -124 q 179 -149 179 -140 l 185 -174 q 168 -189 185 -189 m 168 550 q 153 556 157 551 q 150 574 150 561 q 140 614 150 586 q 126 623 138 619 q 101 626 114 626 q 84 623 90 626 q 76 615 78 619 q 75 606 75 610 l 75 601 q 61 588 75 589 q 44 595 49 588 q 39 608 39 603 q 42 628 42 617 q 35 663 42 647 q 28 693 28 679 q 33 715 28 703 q 39 871 39 728 q 41 892 39 881 q 43 915 43 903 q 41 941 43 929 q 38 969 39 953 q 42 1002 38 981 q 47 1040 47 1024 l 46 1060 q 49 1081 47 1069 q 89 1093 50 1093 l 94 1092 l 119 1093 q 175 1085 160 1093 q 190 1071 190 1076 l 189 1056 q 190 1026 189 1043 q 192 992 192 1008 q 186 954 192 967 q 183 949 183 951 q 185 942 183 946 q 186 869 186 939 q 185 848 186 851 q 183 839 185 844 q 181 815 182 833 q 183 810 181 813 q 185 803 185 807 q 179 797 185 800 q 183 774 182 793 q 186 729 185 756 q 188 678 188 703 q 185 631 188 647 q 181 607 183 615 q 179 590 179 599 l 185 565 q 168 550 185 550 z "},"":{"ha":424,"x_min":28,"x_max":396,"o":"m 225 36 q 200 43 214 36 q 153 56 171 56 q 113 71 128 56 q 93 79 104 79 q 61 99 74 82 q 54 115 54 107 q 57 124 54 119 q 62 137 60 129 q 67 151 64 144 q 77 161 71 157 q 87 171 83 165 q 93 182 90 176 q 125 204 106 204 q 150 193 138 204 q 206 174 178 174 q 247 184 229 174 q 264 208 264 194 q 189 258 264 238 l 168 261 q 103 279 138 264 q 47 347 68 294 l 43 356 q 36 372 36 364 q 39 379 36 376 q 46 450 39 426 q 60 490 53 474 q 68 521 68 507 q 63 536 68 529 q 38 586 47 556 q 28 647 28 617 q 46 713 28 685 q 131 773 89 763 q 199 783 172 783 q 269 780 247 783 q 308 767 290 776 q 325 757 315 761 q 365 722 356 743 q 374 714 367 715 q 386 699 386 711 q 385 692 386 694 q 378 657 379 675 q 375 637 378 649 q 360 614 372 625 q 338 603 349 603 q 321 611 328 603 q 249 668 292 650 q 236 671 243 671 q 209 663 222 671 q 192 644 196 656 q 185 633 189 639 q 178 618 181 626 q 175 603 175 610 q 187 583 175 589 q 222 574 199 578 q 333 539 261 568 q 381 476 369 519 q 387 455 382 465 q 393 431 392 444 q 396 406 394 418 q 383 322 396 358 q 375 281 376 299 q 378 265 375 276 q 392 190 392 236 q 339 78 392 124 q 271 49 307 54 q 233 38 251 44 l 225 36 m 224 368 q 258 383 240 368 q 275 413 275 399 q 256 452 275 443 q 215 461 238 461 q 183 449 200 461 q 167 414 167 436 q 180 386 167 400 q 224 368 193 372 z "},"":{"ha":450,"x_min":28,"x_max":422,"o":"m 333 863 q 273 881 301 864 q 244 940 244 899 q 285 1018 244 997 l 299 1028 q 324 1038 311 1038 q 346 1033 335 1038 l 354 1031 q 403 997 383 1022 q 422 947 422 972 q 413 917 422 931 l 403 903 q 350 867 385 871 l 333 863 m 113 865 q 52 886 76 865 q 28 944 28 907 l 28 951 q 53 1005 28 982 q 104 1028 78 1028 q 169 1001 149 1025 q 190 947 190 976 q 169 891 190 917 q 113 865 149 865 z "},"":{"ha":800,"x_min":28,"x_max":772,"o":"m 696 -246 q 680 -241 688 -246 q 672 -226 672 -236 l 674 -219 l 681 -131 q 675 -90 681 -112 q 667 -42 669 -67 q 633 26 664 -18 q 565 113 601 71 q 509 176 528 156 q 478 221 490 196 q 457 254 468 239 q 390 336 418 304 q 348 388 363 368 q 333 424 333 407 q 349 456 333 439 l 361 471 q 558 679 493 633 q 588 710 568 688 q 661 781 631 761 q 672 792 667 785 q 685 800 678 800 q 703 788 694 799 l 711 779 q 740 754 728 768 q 756 718 753 740 q 764 702 757 710 q 772 685 771 694 q 760 650 772 668 q 731 626 749 632 l 722 622 q 681 574 706 594 q 646 538 663 557 q 589 485 622 508 q 565 464 576 475 q 544 444 554 453 q 533 422 533 435 q 554 390 533 406 l 557 388 q 573 356 561 368 q 591 328 585 343 q 661 249 597 314 q 733 165 715 194 q 746 132 746 146 q 737 100 746 117 q 719 51 728 83 q 710 -40 710 19 q 718 -149 711 -119 q 722 -221 722 -171 q 714 -240 722 -233 q 696 -246 706 -246 m 393 -157 q 377 -147 383 -157 q 371 -124 371 -136 l 372 -115 q 368 -79 369 -101 q 353 -12 367 -26 q 317 23 346 -8 q 250 113 288 54 q 239 125 246 119 q 161 215 214 144 q 131 256 140 243 q 113 279 122 269 q 86 315 96 294 q 51 369 71 347 q 28 415 28 396 q 42 440 28 428 q 75 477 63 457 q 103 511 88 497 q 215 628 124 529 q 313 736 307 728 q 329 750 319 744 q 351 778 343 760 q 385 804 364 804 q 405 798 396 804 q 417 779 414 792 q 453 722 425 744 q 471 685 471 706 q 447 638 471 658 q 349 547 392 599 l 313 510 q 274 468 279 475 q 261 456 268 461 q 238 414 238 432 q 264 368 238 393 q 297 321 283 347 q 349 255 321 281 q 401 188 378 229 q 422 167 408 176 q 444 148 435 158 q 453 125 453 138 q 447 103 453 115 q 436 68 439 86 q 419 10 431 36 q 409 -12 414 -4 q 404 -31 404 -21 q 406 -50 406 -42 q 408 -67 407 -58 q 408 -86 408 -75 l 410 -143 q 404 -153 410 -149 q 393 -157 399 -157 z "},"":{"ha":256,"x_min":28,"x_max":228,"o":"m 122 871 q 56 905 85 874 q 28 976 28 936 q 60 1043 31 1013 q 126 1074 90 1074 q 195 1046 163 1074 q 228 981 228 1018 l 228 965 q 194 897 228 924 q 122 871 160 871 m 125 903 q 174 922 150 903 q 197 968 197 940 l 197 978 q 175 1023 197 1004 q 128 1042 153 1042 q 83 1021 104 1042 q 60 976 63 1000 q 79 926 60 949 q 125 903 99 904 z "},"":{"ha":306,"x_min":28,"x_max":278,"o":"m 83 874 q 68 877 75 874 q 57 883 61 881 q 50 888 53 886 q 28 915 28 899 q 47 961 28 936 q 65 994 58 978 q 101 1081 83 1047 q 138 1114 118 1114 q 149 1111 143 1114 q 163 1108 156 1108 q 183 1112 174 1108 q 201 1115 193 1115 q 218 1108 211 1115 l 222 1108 q 242 1104 235 1108 q 256 1096 250 1100 q 267 1089 263 1092 q 278 1075 278 1082 q 267 1063 278 1069 q 226 1016 247 1049 q 163 936 206 983 q 148 925 157 931 q 131 910 139 919 q 83 874 108 874 z "},"":{"ha":256,"x_min":28,"x_max":228,"o":"m 122 247 q 56 282 85 250 q 28 354 28 314 q 60 421 31 390 q 126 451 90 451 q 195 423 163 451 q 228 357 228 394 l 228 343 q 194 274 228 301 q 122 247 160 247 z "},"":{"ha":799,"x_min":28,"x_max":771,"o":"m 140 -201 q 124 -191 128 -201 q 119 -167 121 -181 q 125 -108 125 -135 q 124 -71 125 -87 q 122 -40 122 -54 l 125 -10 q 119 5 125 -3 q 103 35 113 13 q 78 79 93 57 q 67 113 67 94 q 90 165 67 142 q 163 240 135 194 q 185 263 171 254 q 247 338 218 286 q 278 380 268 369 q 289 404 289 390 q 282 417 289 414 q 246 442 260 428 q 217 478 232 457 q 97 604 171 543 q 28 678 28 663 q 31 683 28 681 q 46 701 42 690 q 67 724 53 719 q 81 747 74 726 q 110 782 89 767 q 124 788 118 788 q 148 776 135 781 q 175 763 161 771 q 197 735 189 754 q 239 690 213 710 q 304 621 275 660 q 382 536 333 582 l 467 457 q 492 421 482 440 l 500 407 l 501 401 q 469 349 501 386 q 390 263 438 311 q 286 148 338 207 q 208 39 235 89 q 208 36 208 38 q 206 33 207 35 q 201 31 204 31 q 186 25 190 31 q 180 13 182 19 q 176 4 178 7 q 160 -60 160 -26 q 163 -87 160 -72 q 167 -117 167 -101 q 164 -154 167 -136 l 163 -178 q 140 -201 161 -200 m 442 -139 q 426 -107 426 -139 q 428 -72 426 -87 q 431 -40 431 -57 q 425 -26 431 -32 q 385 47 410 -14 l 381 58 q 361 96 374 78 q 356 114 356 104 q 371 153 356 133 q 406 190 386 172 q 442 235 429 214 q 460 257 449 246 q 504 315 471 268 q 522 344 519 339 q 536 363 525 349 q 555 383 543 369 q 567 408 567 397 q 558 429 567 417 q 528 468 549 442 l 511 488 q 426 567 481 522 q 353 635 364 618 q 343 640 349 639 q 331 656 331 644 q 346 707 331 683 q 369 740 360 722 l 383 761 q 415 782 400 782 q 449 768 432 782 q 483 733 465 754 q 501 715 492 725 q 518 692 510 706 q 572 626 536 657 q 722 471 600 603 q 761 422 749 443 q 771 390 769 408 q 730 314 771 364 q 637 206 689 264 q 542 98 585 149 q 490 13 500 47 q 483 4 489 7 q 465 -19 465 -8 q 470 -38 465 -29 q 475 -57 475 -47 l 472 -78 l 474 -97 q 464 -126 474 -112 q 442 -139 454 -139 z "},"":{"ha":610,"x_min":32,"x_max":582,"o":"m 297 -536 q 271 -499 271 -536 l 272 -465 q 269 -435 272 -450 q 246 -390 261 -403 q 215 -373 231 -378 q 193 -361 200 -368 q 189 -354 192 -357 q 182 -351 186 -351 l 181 -351 q 126 -315 142 -351 q 122 -312 125 -312 q 110 -344 113 -314 q 93 -404 108 -374 q 90 -417 90 -410 l 93 -444 q 79 -462 93 -462 q 57 -436 61 -462 l 56 -411 q 57 -379 57 -404 q 44 -226 57 -319 q 38 -185 43 -207 q 32 -139 32 -164 l 33 -124 q 39 -76 38 -97 q 51 -8 39 -42 q 111 86 64 26 q 147 119 125 103 q 206 178 176 142 q 247 276 236 214 q 258 302 250 292 q 268 324 267 313 q 279 338 269 336 q 307 340 289 340 q 350 343 342 340 l 379 344 q 433 310 422 344 q 443 238 443 276 q 439 174 443 215 q 433 89 439 113 q 429 54 429 74 q 432 40 432 51 q 424 15 432 26 q 418 6 421 10 q 411 1 415 1 q 393 7 401 1 q 384 21 385 13 q 382 38 383 29 q 381 63 381 46 q 382 69 381 65 q 383 76 383 72 q 372 92 383 90 q 367 90 369 92 q 363 85 365 88 q 360 81 361 83 l 335 57 q 282 3 304 33 q 260 -85 260 -28 q 288 -176 260 -160 q 328 -186 306 -186 q 414 -153 376 -181 q 447 -134 431 -142 q 479 -126 463 -126 q 496 -128 488 -126 q 510 -137 504 -131 q 524 -153 517 -143 q 561 -196 533 -171 q 574 -221 574 -207 q 577 -266 574 -247 q 582 -303 581 -285 q 578 -325 582 -314 q 572 -367 572 -347 q 568 -407 572 -387 q 565 -421 565 -414 q 567 -437 565 -429 q 568 -453 568 -446 q 564 -472 568 -465 q 547 -479 560 -478 q 525 -460 533 -479 q 517 -418 517 -442 q 518 -401 517 -410 q 519 -387 519 -393 q 509 -364 519 -374 q 485 -354 499 -354 q 467 -360 476 -354 q 419 -372 446 -371 q 355 -394 385 -374 q 317 -490 325 -414 q 319 -499 317 -494 q 321 -510 321 -504 q 313 -528 321 -519 q 297 -536 306 -536 m 329 365 q 260 398 285 365 q 235 469 235 431 q 258 535 235 506 q 335 567 282 564 q 402 535 372 567 q 435 457 432 503 q 403 397 435 425 q 329 365 371 368 z "},"":{"ha":756,"x_min":28,"x_max":728,"o":"m 101 -260 q 81 -194 81 -260 l 83 -146 q 76 -99 83 -126 q 66 -81 72 -87 q 51 -71 60 -75 q 35 -58 42 -67 q 28 -29 28 -50 q 51 68 28 7 q 78 167 68 118 q 99 235 85 201 l 100 239 q 92 246 100 244 q 72 268 72 251 q 83 304 72 274 q 106 369 93 335 q 131 426 119 404 q 163 538 154 478 q 171 564 165 551 q 179 601 178 582 q 195 723 183 654 q 224 826 207 792 q 243 853 231 843 q 276 864 256 864 l 286 864 q 338 868 313 864 q 388 872 364 872 l 465 872 q 506 838 482 872 q 538 764 529 804 q 574 672 551 704 q 603 599 596 640 q 595 583 603 588 q 588 569 588 578 q 599 512 589 539 q 608 445 608 485 q 628 369 608 406 q 681 154 653 317 q 714 7 699 53 q 728 -50 728 -26 q 720 -76 728 -68 q 706 -87 713 -83 q 694 -96 699 -92 q 689 -108 689 -100 l 689 -161 q 688 -214 689 -200 q 667 -247 683 -247 q 650 -225 656 -247 l 649 -151 q 642 -117 644 -126 q 631 -104 639 -107 q 605 -101 622 -101 q 557 -96 588 -100 l 551 -96 q 541 -102 543 -96 q 539 -124 539 -108 q 538 -165 539 -139 q 531 -183 536 -176 q 518 -189 525 -189 q 500 -176 510 -189 q 490 -150 490 -164 l 490 -143 q 485 -105 490 -124 q 479 -67 479 -86 l 481 -54 q 477 -40 481 -44 q 471 -31 474 -35 q 457 42 460 14 q 452 74 456 63 q 435 85 449 85 q 425 86 429 85 q 382 94 403 94 q 322 86 351 94 q 300 80 310 82 q 284 50 290 78 q 273 -13 278 22 q 263 -78 268 -49 q 260 -101 260 -89 l 260 -125 q 253 -160 260 -146 q 236 -174 246 -174 q 224 -167 228 -174 q 219 -150 219 -160 l 221 -124 q 197 -100 221 -101 q 187 -93 193 -100 q 171 -86 181 -86 q 149 -97 158 -86 q 126 -176 126 -137 l 126 -203 q 101 -260 126 -260 m 428 329 q 431 335 431 331 q 415 399 431 347 l 399 468 q 382 490 396 481 q 366 408 379 446 q 350 332 353 369 q 379 329 365 329 l 428 329 m 417 931 q 368 967 392 931 q 352 982 361 976 q 338 993 343 988 q 274 1073 294 1040 q 233 1119 253 1106 q 222 1132 222 1126 q 233 1146 222 1139 q 243 1153 238 1149 q 257 1161 249 1157 q 276 1165 265 1165 l 281 1165 q 299 1172 289 1172 q 317 1169 307 1172 q 338 1165 326 1165 q 351 1168 344 1165 q 363 1171 357 1171 q 399 1137 382 1171 q 435 1051 417 1103 q 453 1018 442 1035 q 472 972 472 993 q 450 944 472 956 q 443 940 447 943 q 432 934 439 938 q 417 931 425 931 z "},"":{"ha":756,"x_min":28,"x_max":728,"o":"m 101 -260 q 81 -194 81 -260 l 83 -146 q 76 -99 83 -126 q 66 -81 72 -87 q 51 -71 60 -75 q 35 -58 42 -67 q 28 -29 28 -50 q 51 68 28 7 q 78 167 68 118 q 99 235 85 201 l 100 239 q 92 246 100 244 q 72 268 72 251 q 83 304 72 274 q 106 369 93 335 q 131 426 119 404 q 163 538 154 478 q 171 564 165 551 q 179 601 178 582 q 195 723 183 654 q 224 826 207 792 q 243 853 231 843 q 276 864 256 864 l 286 864 q 338 868 313 864 q 388 872 364 872 l 465 872 q 506 838 482 872 q 538 764 529 804 q 574 672 551 704 q 603 599 596 640 q 595 583 603 588 q 588 569 588 578 q 599 512 589 539 q 608 445 608 485 q 628 369 608 406 q 681 154 653 317 q 714 7 699 53 q 728 -50 728 -26 q 720 -76 728 -68 q 706 -87 713 -83 q 694 -96 699 -92 q 689 -108 689 -100 l 689 -161 q 688 -214 689 -200 q 667 -247 683 -247 q 650 -225 656 -247 l 649 -151 q 642 -117 644 -126 q 631 -104 639 -107 q 605 -101 622 -101 q 557 -96 588 -100 l 551 -96 q 541 -102 543 -96 q 539 -124 539 -108 q 538 -165 539 -139 q 531 -183 536 -176 q 518 -189 525 -189 q 500 -176 510 -189 q 490 -150 490 -164 l 490 -143 q 485 -105 490 -124 q 479 -67 479 -86 l 481 -54 q 477 -40 481 -44 q 471 -31 474 -35 q 457 42 460 14 q 452 74 456 63 q 435 85 449 85 q 425 86 429 85 q 382 94 403 94 q 322 86 351 94 q 300 80 310 82 q 284 50 290 78 q 273 -13 278 22 q 263 -78 268 -49 q 260 -101 260 -89 l 260 -125 q 253 -160 260 -146 q 236 -174 246 -174 q 224 -167 228 -174 q 219 -150 219 -160 l 221 -124 q 197 -100 221 -101 q 187 -93 193 -100 q 171 -86 181 -86 q 149 -97 158 -86 q 126 -176 126 -137 l 126 -203 q 101 -260 126 -260 m 428 329 q 431 335 431 331 q 415 399 431 347 l 399 468 q 382 490 396 481 q 366 408 379 446 q 350 332 353 369 q 379 329 365 329 l 428 329 m 369 942 q 354 945 361 942 q 343 951 347 949 q 336 956 339 954 q 314 983 314 967 q 333 1029 314 1004 q 351 1063 344 1046 q 387 1149 369 1115 q 424 1182 404 1182 q 435 1179 429 1182 q 449 1176 442 1176 q 469 1180 460 1176 q 488 1183 479 1183 q 504 1176 497 1183 l 508 1176 q 528 1172 521 1176 q 542 1164 536 1168 q 553 1157 549 1160 q 564 1143 564 1150 q 553 1131 564 1138 q 513 1084 533 1117 q 449 1004 492 1051 q 434 993 443 999 q 417 978 425 988 q 369 942 394 942 z "},"":{"ha":756,"x_min":28,"x_max":728,"o":"m 101 -260 q 81 -194 81 -260 l 83 -146 q 76 -99 83 -126 q 66 -81 72 -87 q 51 -71 60 -75 q 35 -58 42 -67 q 28 -29 28 -50 q 51 68 28 7 q 78 167 68 118 q 99 235 85 201 l 100 239 q 92 246 100 244 q 72 268 72 251 q 83 304 72 274 q 106 369 93 335 q 131 426 119 404 q 163 538 154 478 q 171 564 165 551 q 179 601 178 582 q 195 723 183 654 q 224 826 207 792 q 243 853 231 843 q 276 864 256 864 l 286 864 q 338 868 313 864 q 388 872 364 872 l 465 872 q 506 838 482 872 q 538 764 529 804 q 574 672 551 704 q 603 599 596 640 q 595 583 603 588 q 588 569 588 578 q 599 512 589 539 q 608 445 608 485 q 628 369 608 406 q 681 154 653 317 q 714 7 699 53 q 728 -50 728 -26 q 720 -76 728 -68 q 706 -87 713 -83 q 694 -96 699 -92 q 689 -108 689 -100 l 689 -161 q 688 -214 689 -200 q 667 -247 683 -247 q 650 -225 656 -247 l 649 -151 q 642 -117 644 -126 q 631 -104 639 -107 q 605 -101 622 -101 q 557 -96 588 -100 l 551 -96 q 541 -102 543 -96 q 539 -124 539 -108 q 538 -165 539 -139 q 531 -183 536 -176 q 518 -189 525 -189 q 500 -176 510 -189 q 490 -150 490 -164 l 490 -143 q 485 -105 490 -124 q 479 -67 479 -86 l 481 -54 q 477 -40 481 -44 q 471 -31 474 -35 q 457 42 460 14 q 452 74 456 63 q 435 85 449 85 q 425 86 429 85 q 382 94 403 94 q 322 86 351 94 q 300 80 310 82 q 284 50 290 78 q 273 -13 278 22 q 263 -78 268 -49 q 260 -101 260 -89 l 260 -125 q 253 -160 260 -146 q 236 -174 246 -174 q 224 -167 228 -174 q 219 -150 219 -160 l 221 -124 q 197 -100 221 -101 q 187 -93 193 -100 q 171 -86 181 -86 q 149 -97 158 -86 q 126 -176 126 -137 l 126 -203 q 101 -260 126 -260 m 428 329 q 431 335 431 331 q 415 399 431 347 l 399 468 q 382 490 396 481 q 366 408 379 446 q 350 332 353 369 q 379 329 365 329 l 428 329 m 451 954 q 378 990 406 954 q 367 999 371 999 q 357 988 363 999 q 341 965 351 976 q 306 954 331 954 l 264 958 l 228 958 q 206 979 206 961 q 210 993 206 985 q 219 1010 215 1001 q 254 1056 232 1036 q 294 1102 276 1075 q 338 1150 311 1129 q 347 1160 343 1154 q 353 1171 350 1167 q 364 1175 357 1175 q 472 1054 389 1171 q 519 992 504 1008 q 528 982 528 988 q 524 968 526 974 q 513 962 521 963 q 500 960 506 961 q 451 954 475 954 z "},"":{"ha":756,"x_min":28,"x_max":728,"o":"m 101 -260 q 81 -194 81 -260 l 83 -146 q 76 -99 83 -126 q 66 -81 72 -87 q 51 -71 60 -75 q 35 -58 42 -67 q 28 -29 28 -50 q 51 68 28 7 q 78 167 68 118 q 99 235 85 201 l 100 239 q 92 246 100 244 q 72 268 72 251 q 83 304 72 274 q 106 369 93 335 q 131 426 119 404 q 163 538 154 478 q 171 564 165 551 q 179 601 178 582 q 195 723 183 654 q 224 826 207 792 q 243 853 231 843 q 276 864 256 864 l 286 864 q 338 868 313 864 q 388 872 364 872 l 465 872 q 506 838 482 872 q 538 764 529 804 q 574 672 551 704 q 603 599 596 640 q 595 583 603 588 q 588 569 588 578 q 599 512 589 539 q 608 445 608 485 q 628 369 608 406 q 681 154 653 317 q 714 7 699 53 q 728 -50 728 -26 q 720 -76 728 -68 q 706 -87 713 -83 q 694 -96 699 -92 q 689 -108 689 -100 l 689 -161 q 688 -214 689 -200 q 667 -247 683 -247 q 650 -225 656 -247 l 649 -151 q 642 -117 644 -126 q 631 -104 639 -107 q 605 -101 622 -101 q 557 -96 588 -100 l 551 -96 q 541 -102 543 -96 q 539 -124 539 -108 q 538 -165 539 -139 q 531 -183 536 -176 q 518 -189 525 -189 q 500 -176 510 -189 q 490 -150 490 -164 l 490 -143 q 485 -105 490 -124 q 479 -67 479 -86 l 481 -54 q 477 -40 481 -44 q 471 -31 474 -35 q 457 42 460 14 q 452 74 456 63 q 435 85 449 85 q 425 86 429 85 q 382 94 403 94 q 322 86 351 94 q 300 80 310 82 q 284 50 290 78 q 273 -13 278 22 q 263 -78 268 -49 q 260 -101 260 -89 l 260 -125 q 253 -160 260 -146 q 236 -174 246 -174 q 224 -167 228 -174 q 219 -150 219 -160 l 221 -124 q 197 -100 221 -101 q 187 -93 193 -100 q 171 -86 181 -86 q 149 -97 158 -86 q 126 -176 126 -137 l 126 -203 q 101 -260 126 -260 m 428 329 q 431 335 431 331 q 415 399 431 347 l 399 468 q 382 490 396 481 q 366 408 379 446 q 350 332 353 369 q 379 329 365 329 l 428 329 m 433 931 q 383 940 400 931 l 317 982 q 299 994 306 994 q 286 975 292 994 q 274 965 283 971 q 253 953 264 958 q 238 949 243 949 q 198 960 219 949 q 176 988 176 972 q 179 997 176 992 q 192 1028 189 1011 q 236 1096 203 1076 q 292 1115 261 1110 q 356 1095 339 1107 q 381 1070 372 1083 q 403 1044 389 1057 q 426 1031 417 1031 q 443 1043 438 1031 q 452 1069 449 1056 q 460 1086 456 1082 q 510 1106 483 1106 q 550 1088 542 1106 q 554 1063 554 1078 q 478 940 554 1004 q 433 931 460 931 z "},"":{"ha":756,"x_min":28,"x_max":728,"o":"m 101 -260 q 81 -194 81 -260 l 83 -146 q 76 -99 83 -126 q 66 -81 72 -87 q 51 -71 60 -75 q 35 -58 42 -67 q 28 -29 28 -50 q 51 68 28 7 q 78 167 68 118 q 99 235 85 201 l 100 239 q 92 246 100 244 q 72 268 72 251 q 83 304 72 274 q 106 369 93 335 q 131 426 119 404 q 163 538 154 478 q 171 564 165 551 q 179 601 178 582 q 195 723 183 654 q 224 826 207 792 q 243 853 231 843 q 276 864 256 864 l 286 864 q 338 868 313 864 q 388 872 364 872 l 465 872 q 506 838 482 872 q 538 764 529 804 q 574 672 551 704 q 603 599 596 640 q 595 583 603 588 q 588 569 588 578 q 599 512 589 539 q 608 445 608 485 q 628 369 608 406 q 681 154 653 317 q 714 7 699 53 q 728 -50 728 -26 q 720 -76 728 -68 q 706 -87 713 -83 q 694 -96 699 -92 q 689 -108 689 -100 l 689 -161 q 688 -214 689 -200 q 667 -247 683 -247 q 650 -225 656 -247 l 649 -151 q 642 -117 644 -126 q 631 -104 639 -107 q 605 -101 622 -101 q 557 -96 588 -100 l 551 -96 q 541 -102 543 -96 q 539 -124 539 -108 q 538 -165 539 -139 q 531 -183 536 -176 q 518 -189 525 -189 q 500 -176 510 -189 q 490 -150 490 -164 l 490 -143 q 485 -105 490 -124 q 479 -67 479 -86 l 481 -54 q 477 -40 481 -44 q 471 -31 474 -35 q 457 42 460 14 q 452 74 456 63 q 435 85 449 85 q 425 86 429 85 q 382 94 403 94 q 322 86 351 94 q 300 80 310 82 q 284 50 290 78 q 273 -13 278 22 q 263 -78 268 -49 q 260 -101 260 -89 l 260 -125 q 253 -160 260 -146 q 236 -174 246 -174 q 224 -167 228 -174 q 219 -150 219 -160 l 221 -124 q 197 -100 221 -101 q 187 -93 193 -100 q 171 -86 181 -86 q 149 -97 158 -86 q 126 -176 126 -137 l 126 -203 q 101 -260 126 -260 m 428 329 q 431 335 431 331 q 415 399 431 347 l 399 468 q 382 490 396 481 q 366 408 379 446 q 350 332 353 369 q 379 329 365 329 l 428 329 m 483 914 q 423 933 451 915 q 394 992 394 950 q 435 1069 394 1049 l 449 1079 q 474 1089 461 1089 q 496 1085 485 1089 l 504 1082 q 553 1049 533 1074 q 572 999 572 1024 q 563 968 572 982 l 553 954 q 500 918 535 922 l 483 914 m 263 917 q 202 938 226 917 q 178 996 178 958 l 178 1003 q 203 1056 178 1033 q 254 1079 228 1079 q 319 1052 299 1076 q 340 999 340 1028 q 319 942 340 968 q 263 917 299 917 z "},"":{"ha":756,"x_min":28,"x_max":728,"o":"m 101 -260 q 81 -194 81 -260 l 83 -146 q 76 -99 83 -126 q 66 -81 72 -87 q 51 -71 60 -75 q 35 -58 42 -67 q 28 -29 28 -50 q 51 68 28 7 q 78 167 68 118 q 99 235 85 201 l 100 239 q 92 246 100 244 q 72 268 72 251 q 83 304 72 274 q 106 369 93 335 q 131 426 119 404 q 163 538 154 478 q 171 564 165 551 q 179 601 178 582 q 195 723 183 654 q 224 826 207 792 q 243 853 231 843 q 276 864 256 864 l 286 864 q 338 868 313 864 q 388 872 364 872 l 465 872 q 506 838 482 872 q 538 764 529 804 q 574 672 551 704 q 603 599 596 640 q 595 583 603 588 q 588 569 588 578 q 599 512 589 539 q 608 445 608 485 q 628 369 608 406 q 681 154 653 317 q 714 7 699 53 q 728 -50 728 -26 q 720 -76 728 -68 q 706 -87 713 -83 q 694 -96 699 -92 q 689 -108 689 -100 l 689 -161 q 688 -214 689 -200 q 667 -247 683 -247 q 650 -225 656 -247 l 649 -151 q 642 -117 644 -126 q 631 -104 639 -107 q 605 -101 622 -101 q 557 -96 588 -100 l 551 -96 q 541 -102 543 -96 q 539 -124 539 -108 q 538 -165 539 -139 q 531 -183 536 -176 q 518 -189 525 -189 q 500 -176 510 -189 q 490 -150 490 -164 l 490 -143 q 485 -105 490 -124 q 479 -67 479 -86 l 481 -54 q 477 -40 481 -44 q 471 -31 474 -35 q 457 42 460 14 q 452 74 456 63 q 435 85 449 85 q 425 86 429 85 q 382 94 403 94 q 322 86 351 94 q 300 80 310 82 q 284 50 290 78 q 273 -13 278 22 q 263 -78 268 -49 q 260 -101 260 -89 l 260 -125 q 253 -160 260 -146 q 236 -174 246 -174 q 224 -167 228 -174 q 219 -150 219 -160 l 221 -124 q 197 -100 221 -101 q 187 -93 193 -100 q 171 -86 181 -86 q 149 -97 158 -86 q 126 -176 126 -137 l 126 -203 q 101 -260 126 -260 m 428 329 q 431 335 431 331 q 415 399 431 347 l 399 468 q 382 490 396 481 q 366 408 379 446 q 350 332 353 369 q 379 329 365 329 l 428 329 m 347 907 q 281 941 310 910 q 253 1013 253 972 q 285 1079 256 1049 q 351 1110 315 1110 q 420 1082 388 1110 q 453 1017 453 1054 l 453 1001 q 419 933 453 960 q 347 907 385 907 m 350 939 q 399 958 375 939 q 422 1004 422 976 l 422 1014 q 400 1059 422 1040 q 353 1078 378 1078 q 308 1057 329 1078 q 285 1013 288 1036 q 304 963 285 985 q 350 939 324 940 z "},"":{"ha":1614,"x_min":28,"x_max":1207,"o":"m 101 -260 q 81 -194 81 -260 l 83 -146 q 76 -99 83 -126 q 66 -81 72 -87 q 51 -71 60 -75 q 35 -58 42 -67 q 28 -29 28 -50 q 51 68 28 7 q 78 167 68 118 q 99 235 85 201 l 100 239 q 92 246 100 244 q 72 268 72 251 q 83 304 72 274 q 106 369 93 335 q 131 426 119 404 q 163 538 154 478 q 171 564 165 551 q 179 601 178 582 q 195 723 183 654 q 224 826 207 792 q 243 853 231 843 q 276 864 256 864 l 286 864 q 338 868 313 864 q 388 872 364 872 l 465 872 q 506 838 482 872 q 538 764 529 804 q 574 672 551 704 q 603 599 596 640 q 595 583 603 588 q 588 569 588 578 q 599 512 589 539 q 608 445 608 485 q 628 369 608 406 q 681 154 653 317 q 714 7 699 53 q 728 -50 728 -26 q 720 -76 728 -68 q 706 -87 713 -83 q 694 -96 699 -92 q 689 -108 689 -100 l 689 -161 q 688 -214 689 -200 q 667 -247 683 -247 q 650 -225 656 -247 l 649 -151 q 642 -117 644 -126 q 631 -104 639 -107 q 605 -101 622 -101 q 557 -96 588 -100 l 551 -96 q 541 -102 543 -96 q 539 -124 539 -108 q 538 -165 539 -139 q 531 -183 536 -176 q 518 -189 525 -189 q 500 -176 510 -189 q 490 -150 490 -164 l 490 -143 q 485 -105 490 -124 q 479 -67 479 -86 l 481 -54 q 477 -40 481 -44 q 471 -31 474 -35 q 457 42 460 14 q 452 74 456 63 q 435 85 449 85 q 425 86 429 85 q 382 94 403 94 q 322 86 351 94 q 300 80 310 82 q 284 50 290 78 q 273 -13 278 22 q 263 -78 268 -49 q 260 -101 260 -89 l 260 -125 q 253 -160 260 -146 q 236 -174 246 -174 q 224 -167 228 -174 q 219 -150 219 -160 l 221 -124 q 197 -100 221 -101 q 187 -93 193 -100 q 171 -86 181 -86 q 149 -97 158 -86 q 126 -176 126 -137 l 126 -203 q 101 -260 126 -260 m 428 329 q 431 335 431 331 q 415 399 431 347 l 399 468 q 382 490 396 481 q 366 408 379 446 q 350 332 353 369 q 379 329 365 329 l 428 329 m 660 -447 q 633 -393 633 -447 l 635 -371 q 619 -247 619 -296 l 619 -239 q 615 -180 619 -206 q 592 -133 610 -154 q 583 -122 585 -128 q 577 -105 581 -117 q 553 -36 574 -93 q 547 -12 547 -25 q 551 1 547 -6 q 565 38 561 18 q 569 88 568 57 q 581 204 571 129 q 578 241 581 228 q 575 267 575 254 l 576 335 q 581 455 579 393 q 583 539 582 517 q 580 572 583 556 q 576 603 576 588 l 578 611 q 579 622 578 619 q 569 629 578 629 l 564 629 q 550 651 550 629 q 560 729 550 675 q 565 771 565 757 l 565 778 q 572 814 565 796 q 604 846 578 832 q 678 863 642 863 q 726 860 700 863 q 833 854 764 854 q 897 856 867 854 q 997 858 926 858 q 1031 863 1015 858 q 1092 868 1047 868 q 1163 864 1119 868 q 1201 828 1194 858 q 1207 767 1207 799 l 1207 749 q 1201 701 1207 722 q 1189 656 1196 679 q 1153 492 1168 604 q 1146 463 1151 476 q 1124 449 1140 449 q 1100 499 1100 450 q 1103 548 1100 522 q 1106 592 1106 574 q 1093 626 1106 626 q 1083 624 1088 625 q 1068 622 1078 622 q 1044 625 1056 622 q 1021 628 1032 628 l 975 628 q 926 622 950 628 q 914 621 921 621 q 885 625 900 621 q 854 631 869 629 q 829 610 829 631 l 829 593 q 825 567 825 581 q 828 532 825 549 q 833 500 832 515 q 839 490 835 490 q 849 493 843 490 q 881 499 860 499 q 899 495 889 499 q 931 492 910 492 l 967 493 q 1008 483 990 493 q 1026 439 1026 474 l 1026 385 q 1010 304 1026 342 q 999 232 999 271 l 999 221 q 997 201 999 210 q 981 193 994 193 q 958 222 958 193 q 960 244 958 235 q 963 264 963 254 q 950 272 963 272 q 899 269 914 272 q 876 262 885 265 q 860 258 868 258 q 847 260 853 258 q 835 264 842 263 q 828 257 828 264 l 829 246 q 833 224 833 238 q 831 195 833 208 q 829 171 829 182 q 844 137 829 150 q 915 124 860 124 q 951 125 935 124 q 993 128 968 126 q 1078 122 1026 128 q 1151 103 1129 115 q 1193 56 1181 86 q 1206 -36 1206 26 q 1193 -232 1206 -106 q 1176 -278 1189 -264 q 1150 -293 1164 -293 q 1128 -283 1138 -293 q 1119 -257 1119 -274 q 1123 -235 1119 -247 q 1126 -210 1126 -222 q 1117 -158 1126 -183 q 1112 -138 1114 -147 q 1104 -127 1110 -129 q 1088 -125 1099 -125 q 1069 -124 1078 -125 q 1014 -121 1042 -121 q 988 -122 997 -121 q 968 -124 979 -124 q 945 -122 957 -124 q 919 -119 933 -119 q 847 -112 879 -119 q 799 -107 821 -107 q 752 -123 772 -107 q 717 -183 732 -139 q 693 -312 703 -228 l 692 -350 l 692 -360 q 685 -415 692 -387 q 660 -447 672 -447 z "},"":{"ha":717,"x_min":28,"x_max":688,"o":"m 140 -447 q 114 -393 114 -447 l 115 -371 q 100 -247 100 -296 l 100 -239 q 95 -180 100 -206 q 72 -133 90 -154 q 63 -122 65 -128 q 58 -105 61 -117 q 33 -36 54 -93 q 28 -12 28 -25 q 32 1 28 -6 q 45 38 42 18 q 50 88 49 57 q 61 204 51 129 q 58 241 61 228 q 56 267 56 254 l 57 335 q 61 455 60 393 q 64 539 63 517 q 60 572 64 556 q 57 603 57 588 l 58 611 q 60 622 58 619 q 50 629 58 629 l 44 629 q 31 651 31 629 q 40 729 31 675 q 46 771 46 757 l 46 778 q 52 814 46 796 q 85 846 58 832 q 158 863 122 863 q 207 860 181 863 q 314 854 244 854 q 377 856 347 854 q 478 858 407 858 q 512 863 496 858 q 572 868 528 868 q 643 864 600 868 q 681 828 675 858 q 688 767 688 799 l 688 749 q 682 701 688 722 q 669 656 676 679 q 633 492 649 604 q 626 463 632 476 q 604 449 621 449 q 581 499 581 450 q 583 548 581 522 q 586 592 586 574 q 574 626 586 626 q 563 624 568 625 q 549 622 558 622 q 524 625 536 622 q 501 628 513 628 l 456 628 q 407 622 431 628 q 394 621 401 621 q 365 625 381 621 q 335 631 350 629 q 310 610 310 631 l 310 593 q 306 567 306 581 q 309 532 306 549 q 314 500 313 515 q 319 490 315 490 q 329 493 324 490 q 361 499 340 499 q 380 495 369 499 q 411 492 390 492 l 447 493 q 489 483 471 493 q 507 439 507 474 l 507 385 q 490 304 507 342 q 479 232 479 271 l 479 221 q 477 201 479 210 q 461 193 475 193 q 439 222 439 193 q 441 244 439 235 q 443 264 443 254 q 431 272 443 272 q 380 269 394 272 q 357 262 365 265 q 340 258 349 258 q 328 260 333 258 q 315 264 322 263 q 308 257 308 264 l 310 246 q 314 224 314 238 q 312 195 314 208 q 310 171 310 182 q 325 137 310 150 q 396 124 340 124 q 432 125 415 124 q 474 128 449 126 q 558 122 507 128 q 632 103 610 115 q 674 56 661 86 q 686 -36 686 26 q 674 -232 686 -106 q 657 -278 669 -264 q 631 -293 644 -293 q 609 -283 618 -293 q 600 -257 600 -274 q 603 -235 600 -247 q 607 -210 607 -222 q 597 -158 607 -183 q 592 -138 594 -147 q 585 -127 590 -129 q 569 -125 579 -125 q 550 -124 558 -125 q 494 -121 522 -121 q 469 -122 478 -121 q 449 -124 460 -124 q 426 -122 438 -124 q 400 -119 414 -119 q 328 -112 360 -119 q 279 -107 301 -107 q 233 -123 253 -107 q 198 -183 213 -139 q 174 -312 183 -228 l 172 -350 l 172 -360 q 165 -415 172 -387 q 140 -447 153 -447 m 451 899 q 403 935 426 899 q 387 950 396 944 q 372 961 378 956 q 308 1041 329 1008 q 268 1088 288 1074 q 257 1100 257 1094 q 268 1114 257 1107 q 278 1121 272 1117 q 292 1129 283 1125 q 311 1133 300 1133 l 315 1133 q 333 1140 324 1140 q 351 1137 342 1140 q 372 1133 361 1133 q 385 1136 379 1133 q 397 1139 392 1139 q 434 1105 417 1139 q 469 1019 451 1071 q 488 986 476 1003 q 507 940 507 961 q 485 913 507 924 q 478 908 482 911 q 467 902 474 906 q 451 899 460 899 z "},"":{"ha":717,"x_min":28,"x_max":688,"o":"m 140 -447 q 114 -393 114 -447 l 115 -371 q 100 -247 100 -296 l 100 -239 q 95 -180 100 -206 q 72 -133 90 -154 q 63 -122 65 -128 q 58 -105 61 -117 q 33 -36 54 -93 q 28 -12 28 -25 q 32 1 28 -6 q 45 38 42 18 q 50 88 49 57 q 61 204 51 129 q 58 241 61 228 q 56 267 56 254 l 57 335 q 61 455 60 393 q 64 539 63 517 q 60 572 64 556 q 57 603 57 588 l 58 611 q 60 622 58 619 q 50 629 58 629 l 44 629 q 31 651 31 629 q 40 729 31 675 q 46 771 46 757 l 46 778 q 52 814 46 796 q 85 846 58 832 q 158 863 122 863 q 207 860 181 863 q 314 854 244 854 q 377 856 347 854 q 478 858 407 858 q 512 863 496 858 q 572 868 528 868 q 643 864 600 868 q 681 828 675 858 q 688 767 688 799 l 688 749 q 682 701 688 722 q 669 656 676 679 q 633 492 649 604 q 626 463 632 476 q 604 449 621 449 q 581 499 581 450 q 583 548 581 522 q 586 592 586 574 q 574 626 586 626 q 563 624 568 625 q 549 622 558 622 q 524 625 536 622 q 501 628 513 628 l 456 628 q 407 622 431 628 q 394 621 401 621 q 365 625 381 621 q 335 631 350 629 q 310 610 310 631 l 310 593 q 306 567 306 581 q 309 532 306 549 q 314 500 313 515 q 319 490 315 490 q 329 493 324 490 q 361 499 340 499 q 380 495 369 499 q 411 492 390 492 l 447 493 q 489 483 471 493 q 507 439 507 474 l 507 385 q 490 304 507 342 q 479 232 479 271 l 479 221 q 477 201 479 210 q 461 193 475 193 q 439 222 439 193 q 441 244 439 235 q 443 264 443 254 q 431 272 443 272 q 380 269 394 272 q 357 262 365 265 q 340 258 349 258 q 328 260 333 258 q 315 264 322 263 q 308 257 308 264 l 310 246 q 314 224 314 238 q 312 195 314 208 q 310 171 310 182 q 325 137 310 150 q 396 124 340 124 q 432 125 415 124 q 474 128 449 126 q 558 122 507 128 q 632 103 610 115 q 674 56 661 86 q 686 -36 686 26 q 674 -232 686 -106 q 657 -278 669 -264 q 631 -293 644 -293 q 609 -283 618 -293 q 600 -257 600 -274 q 603 -235 600 -247 q 607 -210 607 -222 q 597 -158 607 -183 q 592 -138 594 -147 q 585 -127 590 -129 q 569 -125 579 -125 q 550 -124 558 -125 q 494 -121 522 -121 q 469 -122 478 -121 q 449 -124 460 -124 q 426 -122 438 -124 q 400 -119 414 -119 q 328 -112 360 -119 q 279 -107 301 -107 q 233 -123 253 -107 q 198 -183 213 -139 q 174 -312 183 -228 l 172 -350 l 172 -360 q 165 -415 172 -387 q 140 -447 153 -447 m 399 913 q 383 916 390 913 q 372 922 376 919 q 365 926 368 925 q 343 954 343 938 q 363 1000 343 975 q 381 1033 374 1017 q 416 1119 399 1086 q 453 1153 433 1153 q 465 1150 458 1153 q 478 1147 471 1147 q 499 1151 489 1147 q 517 1154 508 1154 q 533 1147 526 1154 l 538 1147 q 558 1143 550 1147 q 572 1135 565 1139 q 582 1128 578 1131 q 593 1114 593 1121 q 582 1101 593 1108 q 542 1055 563 1088 q 478 975 521 1022 q 463 964 472 969 q 446 949 454 958 q 399 913 424 913 z "},"":{"ha":717,"x_min":28,"x_max":688,"o":"m 140 -447 q 114 -393 114 -447 l 115 -371 q 100 -247 100 -296 l 100 -239 q 95 -180 100 -206 q 72 -133 90 -154 q 63 -122 65 -128 q 58 -105 61 -117 q 33 -36 54 -93 q 28 -12 28 -25 q 32 1 28 -6 q 45 38 42 18 q 50 88 49 57 q 61 204 51 129 q 58 241 61 228 q 56 267 56 254 l 57 335 q 61 455 60 393 q 64 539 63 517 q 60 572 64 556 q 57 603 57 588 l 58 611 q 60 622 58 619 q 50 629 58 629 l 44 629 q 31 651 31 629 q 40 729 31 675 q 46 771 46 757 l 46 778 q 52 814 46 796 q 85 846 58 832 q 158 863 122 863 q 207 860 181 863 q 314 854 244 854 q 377 856 347 854 q 478 858 407 858 q 512 863 496 858 q 572 868 528 868 q 643 864 600 868 q 681 828 675 858 q 688 767 688 799 l 688 749 q 682 701 688 722 q 669 656 676 679 q 633 492 649 604 q 626 463 632 476 q 604 449 621 449 q 581 499 581 450 q 583 548 581 522 q 586 592 586 574 q 574 626 586 626 q 563 624 568 625 q 549 622 558 622 q 524 625 536 622 q 501 628 513 628 l 456 628 q 407 622 431 628 q 394 621 401 621 q 365 625 381 621 q 335 631 350 629 q 310 610 310 631 l 310 593 q 306 567 306 581 q 309 532 306 549 q 314 500 313 515 q 319 490 315 490 q 329 493 324 490 q 361 499 340 499 q 380 495 369 499 q 411 492 390 492 l 447 493 q 489 483 471 493 q 507 439 507 474 l 507 385 q 490 304 507 342 q 479 232 479 271 l 479 221 q 477 201 479 210 q 461 193 475 193 q 439 222 439 193 q 441 244 439 235 q 443 264 443 254 q 431 272 443 272 q 380 269 394 272 q 357 262 365 265 q 340 258 349 258 q 328 260 333 258 q 315 264 322 263 q 308 257 308 264 l 310 246 q 314 224 314 238 q 312 195 314 208 q 310 171 310 182 q 325 137 310 150 q 396 124 340 124 q 432 125 415 124 q 474 128 449 126 q 558 122 507 128 q 632 103 610 115 q 674 56 661 86 q 686 -36 686 26 q 674 -232 686 -106 q 657 -278 669 -264 q 631 -293 644 -293 q 609 -283 618 -293 q 600 -257 600 -274 q 603 -235 600 -247 q 607 -210 607 -222 q 597 -158 607 -183 q 592 -138 594 -147 q 585 -127 590 -129 q 569 -125 579 -125 q 550 -124 558 -125 q 494 -121 522 -121 q 469 -122 478 -121 q 449 -124 460 -124 q 426 -122 438 -124 q 400 -119 414 -119 q 328 -112 360 -119 q 279 -107 301 -107 q 233 -123 253 -107 q 198 -183 213 -139 q 174 -312 183 -228 l 172 -350 l 172 -360 q 165 -415 172 -387 q 140 -447 153 -447 m 497 932 q 424 968 451 932 q 413 976 417 976 q 403 965 408 976 q 387 943 397 954 q 351 932 376 932 l 310 936 l 274 936 q 251 957 251 939 q 256 971 251 963 q 265 988 261 979 q 300 1033 278 1014 q 340 1080 322 1053 q 383 1128 357 1107 q 392 1138 389 1132 q 399 1149 396 1144 q 410 1153 403 1153 q 518 1032 435 1149 q 565 969 550 986 q 574 960 574 965 q 569 946 572 951 q 559 940 567 940 q 546 938 551 939 q 497 932 521 932 z "},"":{"ha":717,"x_min":28,"x_max":688,"o":"m 140 -447 q 114 -393 114 -447 l 115 -371 q 100 -247 100 -296 l 100 -239 q 95 -180 100 -206 q 72 -133 90 -154 q 63 -122 65 -128 q 58 -105 61 -117 q 33 -36 54 -93 q 28 -12 28 -25 q 32 1 28 -6 q 45 38 42 18 q 50 88 49 57 q 61 204 51 129 q 58 241 61 228 q 56 267 56 254 l 57 335 q 61 455 60 393 q 64 539 63 517 q 60 572 64 556 q 57 603 57 588 l 58 611 q 60 622 58 619 q 50 629 58 629 l 44 629 q 31 651 31 629 q 40 729 31 675 q 46 771 46 757 l 46 778 q 52 814 46 796 q 85 846 58 832 q 158 863 122 863 q 207 860 181 863 q 314 854 244 854 q 377 856 347 854 q 478 858 407 858 q 512 863 496 858 q 572 868 528 868 q 643 864 600 868 q 681 828 675 858 q 688 767 688 799 l 688 749 q 682 701 688 722 q 669 656 676 679 q 633 492 649 604 q 626 463 632 476 q 604 449 621 449 q 581 499 581 450 q 583 548 581 522 q 586 592 586 574 q 574 626 586 626 q 563 624 568 625 q 549 622 558 622 q 524 625 536 622 q 501 628 513 628 l 456 628 q 407 622 431 628 q 394 621 401 621 q 365 625 381 621 q 335 631 350 629 q 310 610 310 631 l 310 593 q 306 567 306 581 q 309 532 306 549 q 314 500 313 515 q 319 490 315 490 q 329 493 324 490 q 361 499 340 499 q 380 495 369 499 q 411 492 390 492 l 447 493 q 489 483 471 493 q 507 439 507 474 l 507 385 q 490 304 507 342 q 479 232 479 271 l 479 221 q 477 201 479 210 q 461 193 475 193 q 439 222 439 193 q 441 244 439 235 q 443 264 443 254 q 431 272 443 272 q 380 269 394 272 q 357 262 365 265 q 340 258 349 258 q 328 260 333 258 q 315 264 322 263 q 308 257 308 264 l 310 246 q 314 224 314 238 q 312 195 314 208 q 310 171 310 182 q 325 137 310 150 q 396 124 340 124 q 432 125 415 124 q 474 128 449 126 q 558 122 507 128 q 632 103 610 115 q 674 56 661 86 q 686 -36 686 26 q 674 -232 686 -106 q 657 -278 669 -264 q 631 -293 644 -293 q 609 -283 618 -293 q 600 -257 600 -274 q 603 -235 600 -247 q 607 -210 607 -222 q 597 -158 607 -183 q 592 -138 594 -147 q 585 -127 590 -129 q 569 -125 579 -125 q 550 -124 558 -125 q 494 -121 522 -121 q 469 -122 478 -121 q 449 -124 460 -124 q 426 -122 438 -124 q 400 -119 414 -119 q 328 -112 360 -119 q 279 -107 301 -107 q 233 -123 253 -107 q 198 -183 213 -139 q 174 -312 183 -228 l 172 -350 l 172 -360 q 165 -415 172 -387 q 140 -447 153 -447 m 499 918 q 438 937 467 919 q 410 996 410 954 q 450 1074 410 1053 l 464 1083 q 489 1093 476 1093 q 511 1089 500 1093 l 519 1086 q 568 1053 549 1078 q 588 1003 588 1028 q 578 972 588 986 l 568 958 q 515 922 550 926 l 499 918 m 278 921 q 217 942 242 921 q 193 1000 193 963 l 193 1007 q 218 1060 193 1038 q 269 1083 243 1083 q 335 1056 314 1081 q 356 1003 356 1032 q 335 947 356 972 q 278 921 314 921 z "},"":{"ha":335,"x_min":15,"x_max":307,"o":"m 82 -312 q 66 -299 74 -312 q 58 -269 58 -286 l 58 -251 q 53 -200 57 -239 q 44 -118 49 -161 q 39 -58 39 -75 l 42 -3 q 46 142 46 68 q 44 194 46 178 l 44 203 q 46 221 44 213 q 47 239 47 229 l 47 269 q 44 399 44 321 l 44 531 q 36 552 44 544 q 28 578 28 560 l 29 600 q 38 699 38 663 q 33 757 38 739 l 32 781 q 40 815 32 793 q 65 853 49 836 q 104 869 81 869 q 138 865 118 869 q 185 860 158 860 q 212 862 203 860 q 233 865 221 864 q 269 841 258 865 q 281 790 281 817 q 277 765 281 776 q 274 714 274 754 q 277 599 274 667 q 281 482 281 531 q 278 433 281 446 q 276 411 276 421 q 290 342 276 376 q 300 279 299 311 l 307 224 q 288 199 307 204 q 275 185 275 194 l 276 163 q 274 119 276 140 q 271 78 271 99 q 283 3 274 31 q 290 -37 290 -19 q 278 -69 290 -56 q 275 -79 275 -74 l 275 -101 q 253 -244 275 -160 q 240 -257 249 -257 q 227 -249 235 -257 q 217 -219 219 -242 l 213 -179 q 205 -125 208 -128 q 188 -122 201 -122 l 131 -125 q 119 -133 122 -125 l 111 -162 q 97 -226 97 -194 l 99 -242 q 95 -297 99 -281 q 82 -312 92 -312 m 210 907 q 161 943 185 907 q 145 958 154 953 q 131 969 136 964 q 67 1049 88 1017 q 26 1096 46 1082 q 15 1108 15 1103 q 26 1122 15 1115 q 36 1129 31 1125 q 50 1138 42 1133 q 69 1142 58 1142 l 74 1142 q 92 1149 82 1149 q 110 1145 100 1149 q 131 1142 119 1142 q 144 1144 138 1142 q 156 1147 150 1147 q 192 1113 175 1147 q 228 1028 210 1079 q 246 994 235 1011 q 265 949 265 969 q 243 921 265 932 q 236 917 240 919 q 225 910 232 914 q 210 907 218 907 z "},"":{"ha":335,"x_min":28,"x_max":371,"o":"m 82 -312 q 66 -299 74 -312 q 58 -269 58 -286 l 58 -251 q 53 -200 57 -239 q 44 -118 49 -161 q 39 -58 39 -75 l 42 -3 q 46 142 46 68 q 44 194 46 178 l 44 203 q 46 221 44 213 q 47 239 47 229 l 47 269 q 44 399 44 321 l 44 531 q 36 552 44 544 q 28 578 28 560 l 29 600 q 38 699 38 663 q 33 757 38 739 l 32 781 q 40 815 32 793 q 65 853 49 836 q 104 869 81 869 q 138 865 118 869 q 185 860 158 860 q 212 862 203 860 q 233 865 221 864 q 269 841 258 865 q 281 790 281 817 q 277 765 281 776 q 274 714 274 754 q 277 599 274 667 q 281 482 281 531 q 278 433 281 446 q 276 411 276 421 q 290 342 276 376 q 300 279 299 311 l 307 224 q 288 199 307 204 q 275 185 275 194 l 276 163 q 274 119 276 140 q 271 78 271 99 q 283 3 274 31 q 290 -37 290 -19 q 278 -69 290 -56 q 275 -79 275 -74 l 275 -101 q 253 -244 275 -160 q 240 -257 249 -257 q 227 -249 235 -257 q 217 -219 219 -242 l 213 -179 q 205 -125 208 -128 q 188 -122 201 -122 l 131 -125 q 119 -133 122 -125 l 111 -162 q 97 -226 97 -194 l 99 -242 q 95 -297 99 -281 q 82 -312 92 -312 m 176 910 q 161 913 168 910 q 150 919 154 917 q 143 924 146 922 q 121 951 121 935 q 140 997 121 972 q 158 1031 151 1014 q 194 1117 176 1083 q 231 1150 211 1150 q 242 1147 236 1150 q 256 1144 249 1144 q 276 1148 267 1144 q 294 1151 286 1151 q 311 1144 304 1151 l 315 1144 q 335 1140 328 1144 q 349 1132 343 1136 q 360 1125 356 1128 q 371 1111 371 1118 q 360 1099 371 1106 q 319 1052 340 1085 q 256 972 299 1019 q 241 961 250 967 q 224 946 232 956 q 176 910 201 910 z "},"":{"ha":335,"x_min":7,"x_max":329,"o":"m 82 -312 q 66 -299 74 -312 q 58 -269 58 -286 l 58 -251 q 53 -200 57 -239 q 44 -118 49 -161 q 39 -58 39 -75 l 42 -3 q 46 142 46 68 q 44 194 46 178 l 44 203 q 46 221 44 213 q 47 239 47 229 l 47 269 q 44 399 44 321 l 44 531 q 36 552 44 544 q 28 578 28 560 l 29 600 q 38 699 38 663 q 33 757 38 739 l 32 781 q 40 815 32 793 q 65 853 49 836 q 104 869 81 869 q 138 865 118 869 q 185 860 158 860 q 212 862 203 860 q 233 865 221 864 q 269 841 258 865 q 281 790 281 817 q 277 765 281 776 q 274 714 274 754 q 277 599 274 667 q 281 482 281 531 q 278 433 281 446 q 276 411 276 421 q 290 342 276 376 q 300 279 299 311 l 307 224 q 288 199 307 204 q 275 185 275 194 l 276 163 q 274 119 276 140 q 271 78 271 99 q 283 3 274 31 q 290 -37 290 -19 q 278 -69 290 -56 q 275 -79 275 -74 l 275 -101 q 253 -244 275 -160 q 240 -257 249 -257 q 227 -249 235 -257 q 217 -219 219 -242 l 213 -179 q 205 -125 208 -128 q 188 -122 201 -122 l 131 -125 q 119 -133 122 -125 l 111 -162 q 97 -226 97 -194 l 99 -242 q 95 -297 99 -281 q 82 -312 92 -312 m 253 922 q 179 958 207 922 q 168 967 172 967 q 158 956 164 967 q 142 933 153 944 q 107 922 132 922 l 65 926 l 29 926 q 7 947 7 929 q 12 961 7 953 q 21 978 17 969 q 56 1024 33 1004 q 95 1070 78 1043 q 139 1118 113 1097 q 148 1128 144 1122 q 155 1139 151 1135 q 165 1143 158 1143 q 274 1022 190 1139 q 321 960 306 976 q 329 950 329 956 q 325 936 328 942 q 315 930 322 931 q 301 928 307 929 q 253 922 276 922 z "},"":{"ha":335,"x_min":-31,"x_max":364,"o":"m 82 -312 q 66 -299 74 -312 q 58 -269 58 -286 l 58 -251 q 53 -200 57 -239 q 44 -118 49 -161 q 39 -58 39 -75 l 42 -3 q 46 142 46 68 q 44 194 46 178 l 44 203 q 46 221 44 213 q 47 239 47 229 l 47 269 q 44 399 44 321 l 44 531 q 36 552 44 544 q 28 578 28 560 l 29 600 q 38 699 38 663 q 33 757 38 739 l 32 781 q 40 815 32 793 q 65 853 49 836 q 104 869 81 869 q 138 865 118 869 q 185 860 158 860 q 212 862 203 860 q 233 865 221 864 q 269 841 258 865 q 281 790 281 817 q 277 765 281 776 q 274 714 274 754 q 277 599 274 667 q 281 482 281 531 q 278 433 281 446 q 276 411 276 421 q 290 342 276 376 q 300 279 299 311 l 307 224 q 288 199 307 204 q 275 185 275 194 l 276 163 q 274 119 276 140 q 271 78 271 99 q 283 3 274 31 q 290 -37 290 -19 q 278 -69 290 -56 q 275 -79 275 -74 l 275 -101 q 253 -244 275 -160 q 240 -257 249 -257 q 227 -249 235 -257 q 217 -219 219 -242 l 213 -179 q 205 -125 208 -128 q 188 -122 201 -122 l 131 -125 q 119 -133 122 -125 l 111 -162 q 97 -226 97 -194 l 99 -242 q 95 -297 99 -281 q 82 -312 92 -312 m 275 922 q 215 941 243 924 q 186 1000 186 958 q 226 1078 186 1057 l 240 1088 q 265 1097 253 1097 q 288 1093 276 1097 l 296 1090 q 344 1057 325 1082 q 364 1007 364 1032 q 354 976 364 990 l 344 963 q 292 926 326 931 l 275 922 m 54 925 q -6 946 18 925 q -31 1004 -31 967 l -31 1011 q -6 1065 -31 1042 q 46 1088 19 1088 q 111 1060 90 1085 q 132 1007 132 1036 q 111 951 132 976 q 54 925 90 925 z "},"":{"ha":707,"x_min":28,"x_max":679,"o":"m 222 -286 q 192 -236 192 -286 l 193 -210 q 199 -112 199 -187 q 189 -103 199 -103 l 181 -104 q 156 -99 167 -104 q 129 -93 144 -93 q 101 -97 114 -93 q 78 -172 78 -104 q 80 -192 78 -183 q 82 -222 82 -201 q 65 -251 82 -251 q 42 -237 54 -251 q 31 -199 31 -224 q 33 -178 31 -189 q 44 -47 38 -153 q 56 190 51 60 q 61 403 61 319 q 60 464 61 443 l 58 465 q 56 476 58 472 q 45 481 54 479 q 32 494 36 482 q 28 519 28 506 q 31 547 28 535 q 44 749 44 632 q 51 835 44 808 q 92 867 58 863 q 161 872 126 872 q 221 875 190 872 q 264 853 240 875 q 294 813 288 832 q 317 726 308 756 q 331 683 325 697 q 341 662 336 669 q 351 643 346 654 q 363 610 356 632 q 380 570 369 589 q 397 535 390 551 q 436 463 408 493 q 442 469 442 465 q 439 521 439 496 q 436 567 439 556 q 432 643 432 621 q 438 685 432 661 q 444 751 443 710 q 463 860 444 828 q 496 879 472 879 l 504 879 q 521 878 508 878 l 554 879 q 592 874 572 879 l 600 872 q 615 874 607 872 q 631 876 622 876 q 668 858 658 875 q 678 814 678 842 q 674 751 678 789 q 665 635 668 703 q 661 456 664 511 l 660 392 q 662 344 660 365 q 668 239 664 322 q 674 200 668 217 q 679 175 678 193 l 679 96 q 677 90 678 93 q 675 86 676 88 q 658 61 658 79 l 658 47 q 660 14 660 35 q 638 -153 660 -36 q 618 -176 633 -176 q 603 -156 603 -175 l 604 -125 q 567 -89 604 -89 q 505 -117 518 -92 q 492 -181 492 -143 l 493 -215 q 478 -249 493 -249 q 464 -235 464 -249 l 465 -221 q 462 -172 465 -196 q 458 -124 458 -147 l 460 -103 q 456 -68 460 -86 q 454 -47 454 -58 q 439 -12 450 -29 l 419 24 q 400 63 411 43 q 394 51 396 57 q 389 40 392 44 q 379 36 386 36 q 363 58 363 36 q 355 88 363 64 q 321 193 347 113 q 310 238 311 222 q 286 279 310 253 l 282 283 l 282 201 q 281 191 282 192 q 281 189 281 190 q 265 143 265 167 l 267 124 q 264 61 267 81 q 261 -17 261 35 l 264 -53 q 251 -87 264 -78 q 238 -118 238 -96 l 239 -143 q 240 -203 240 -164 q 236 -274 240 -264 q 222 -286 232 -283 m 489 936 q 439 946 456 936 l 372 988 q 354 1000 361 1000 q 342 981 347 1000 q 329 970 339 976 q 309 959 319 964 q 293 954 299 954 q 253 966 275 954 q 232 993 232 978 q 235 1003 232 997 q 247 1033 244 1017 q 292 1101 258 1082 q 347 1121 317 1115 q 411 1101 394 1113 q 436 1076 428 1089 q 458 1049 444 1063 q 482 1036 472 1036 q 499 1049 493 1036 q 508 1074 504 1061 q 515 1092 511 1088 q 565 1111 539 1111 q 606 1093 597 1111 q 610 1068 610 1083 q 533 946 610 1010 q 489 936 515 936 z "},"":{"ha":765,"x_min":28,"x_max":738,"o":"m 617 -422 q 593 -312 593 -419 l 594 -212 q 588 -113 594 -156 q 557 -71 582 -71 q 529 -84 546 -71 q 483 -107 513 -97 q 381 -117 453 -117 q 253 -89 290 -110 q 219 -76 232 -76 q 197 -111 203 -76 l 192 -144 q 181 -226 181 -185 l 182 -237 q 161 -265 178 -265 q 140 -251 150 -265 q 129 -208 129 -237 l 131 -186 q 93 86 131 -81 l 79 147 q 67 218 69 197 q 63 242 64 239 q 58 246 61 246 q 28 290 28 246 q 40 374 28 324 q 67 483 51 424 q 99 604 83 542 q 117 651 103 618 q 149 719 131 683 q 189 779 168 756 q 309 865 254 851 q 414 879 364 879 l 463 879 q 549 847 499 879 q 625 782 599 815 q 706 619 674 724 q 738 381 738 514 q 710 150 738 272 q 708 120 708 140 q 707 79 708 100 q 701 43 706 58 q 683 28 696 28 q 674 30 678 28 q 664 33 669 32 q 660 31 661 33 q 658 27 658 29 q 657 24 658 25 q 642 -68 642 -32 q 638 -206 640 -142 q 635 -333 635 -271 l 636 -393 q 619 -424 636 -424 l 617 -422 m 382 97 q 446 133 413 97 q 506 422 506 199 q 483 603 506 529 q 449 633 478 615 q 426 640 436 640 q 374 591 383 628 q 365 518 365 554 l 365 492 q 364 464 365 476 q 347 446 361 446 q 329 460 333 446 q 325 489 325 474 q 315 533 324 514 l 307 463 q 304 432 304 447 q 306 395 304 417 q 307 343 307 374 l 313 285 q 308 260 313 271 q 304 240 304 249 q 315 213 304 225 q 327 189 321 203 q 333 151 333 175 q 349 113 333 128 q 382 97 364 97 m 453 925 q 404 961 428 925 q 388 976 397 971 q 374 988 379 982 q 310 1067 331 1035 q 269 1114 289 1100 q 258 1126 258 1121 q 269 1140 258 1133 q 279 1147 274 1143 q 293 1156 285 1151 q 313 1160 301 1160 l 317 1160 q 335 1167 325 1167 q 353 1163 343 1167 q 374 1160 363 1160 q 387 1163 381 1160 q 399 1165 393 1165 q 435 1131 418 1165 q 471 1046 453 1097 q 489 1013 478 1029 q 508 967 508 988 q 486 939 508 950 q 479 935 483 938 q 468 928 475 932 q 453 925 461 925 z "},"":{"ha":765,"x_min":28,"x_max":738,"o":"m 617 -422 q 593 -312 593 -419 l 594 -212 q 588 -113 594 -156 q 557 -71 582 -71 q 529 -84 546 -71 q 483 -107 513 -97 q 381 -117 453 -117 q 253 -89 290 -110 q 219 -76 232 -76 q 197 -111 203 -76 l 192 -144 q 181 -226 181 -185 l 182 -237 q 161 -265 178 -265 q 140 -251 150 -265 q 129 -208 129 -237 l 131 -186 q 93 86 131 -81 l 79 147 q 67 218 69 197 q 63 242 64 239 q 58 246 61 246 q 28 290 28 246 q 40 374 28 324 q 67 483 51 424 q 99 604 83 542 q 117 651 103 618 q 149 719 131 683 q 189 779 168 756 q 309 865 254 851 q 414 879 364 879 l 463 879 q 549 847 499 879 q 625 782 599 815 q 706 619 674 724 q 738 381 738 514 q 710 150 738 272 q 708 120 708 140 q 707 79 708 100 q 701 43 706 58 q 683 28 696 28 q 674 30 678 28 q 664 33 669 32 q 660 31 661 33 q 658 27 658 29 q 657 24 658 25 q 642 -68 642 -32 q 638 -206 640 -142 q 635 -333 635 -271 l 636 -393 q 619 -424 636 -424 l 617 -422 m 382 97 q 446 133 413 97 q 506 422 506 199 q 483 603 506 529 q 449 633 478 615 q 426 640 436 640 q 374 591 383 628 q 365 518 365 554 l 365 492 q 364 464 365 476 q 347 446 361 446 q 329 460 333 446 q 325 489 325 474 q 315 533 324 514 l 307 463 q 304 432 304 447 q 306 395 304 417 q 307 343 307 374 l 313 285 q 308 260 313 271 q 304 240 304 249 q 315 213 304 225 q 327 189 321 203 q 333 151 333 175 q 349 113 333 128 q 382 97 364 97 m 396 919 q 381 923 388 919 q 369 929 374 926 q 363 933 365 932 q 340 961 340 944 q 360 1007 340 982 q 378 1040 371 1024 q 413 1126 396 1093 q 450 1160 431 1160 q 462 1157 456 1160 q 475 1154 468 1154 q 496 1158 486 1154 q 514 1161 506 1161 q 531 1154 524 1161 l 535 1154 q 555 1150 547 1154 q 569 1142 563 1146 q 579 1135 575 1138 q 590 1121 590 1128 q 579 1108 590 1115 q 539 1062 560 1094 q 475 982 518 1029 q 460 971 469 976 q 443 956 451 965 q 396 919 421 919 z "},"":{"ha":765,"x_min":28,"x_max":738,"o":"m 617 -422 q 593 -312 593 -419 l 594 -212 q 588 -113 594 -156 q 557 -71 582 -71 q 529 -84 546 -71 q 483 -107 513 -97 q 381 -117 453 -117 q 253 -89 290 -110 q 219 -76 232 -76 q 197 -111 203 -76 l 192 -144 q 181 -226 181 -185 l 182 -237 q 161 -265 178 -265 q 140 -251 150 -265 q 129 -208 129 -237 l 131 -186 q 93 86 131 -81 l 79 147 q 67 218 69 197 q 63 242 64 239 q 58 246 61 246 q 28 290 28 246 q 40 374 28 324 q 67 483 51 424 q 99 604 83 542 q 117 651 103 618 q 149 719 131 683 q 189 779 168 756 q 309 865 254 851 q 414 879 364 879 l 463 879 q 549 847 499 879 q 625 782 599 815 q 706 619 674 724 q 738 381 738 514 q 710 150 738 272 q 708 120 708 140 q 707 79 708 100 q 701 43 706 58 q 683 28 696 28 q 674 30 678 28 q 664 33 669 32 q 660 31 661 33 q 658 27 658 29 q 657 24 658 25 q 642 -68 642 -32 q 638 -206 640 -142 q 635 -333 635 -271 l 636 -393 q 619 -424 636 -424 l 617 -422 m 382 97 q 446 133 413 97 q 506 422 506 199 q 483 603 506 529 q 449 633 478 615 q 426 640 436 640 q 374 591 383 628 q 365 518 365 554 l 365 492 q 364 464 365 476 q 347 446 361 446 q 329 460 333 446 q 325 489 325 474 q 315 533 324 514 l 307 463 q 304 432 304 447 q 306 395 304 417 q 307 343 307 374 l 313 285 q 308 260 313 271 q 304 240 304 249 q 315 213 304 225 q 327 189 321 203 q 333 151 333 175 q 349 113 333 128 q 382 97 364 97 m 490 932 q 417 968 444 932 q 406 976 410 976 q 396 965 401 976 q 380 943 390 954 q 344 932 369 932 l 303 936 l 267 936 q 244 957 244 939 q 249 971 244 963 q 258 988 254 979 q 293 1033 271 1014 q 333 1080 315 1053 q 376 1128 350 1107 q 385 1138 382 1132 q 392 1149 389 1144 q 403 1153 396 1153 q 511 1032 428 1149 q 558 969 543 986 q 567 960 567 965 q 563 946 565 951 q 552 940 560 940 q 539 938 544 939 q 490 932 514 932 z "},"":{"ha":765,"x_min":28,"x_max":738,"o":"m 617 -422 q 593 -312 593 -419 l 594 -212 q 588 -113 594 -156 q 557 -71 582 -71 q 529 -84 546 -71 q 483 -107 513 -97 q 381 -117 453 -117 q 253 -89 290 -110 q 219 -76 232 -76 q 197 -111 203 -76 l 192 -144 q 181 -226 181 -185 l 182 -237 q 161 -265 178 -265 q 140 -251 150 -265 q 129 -208 129 -237 l 131 -186 q 93 86 131 -81 l 79 147 q 67 218 69 197 q 63 242 64 239 q 58 246 61 246 q 28 290 28 246 q 40 374 28 324 q 67 483 51 424 q 99 604 83 542 q 117 651 103 618 q 149 719 131 683 q 189 779 168 756 q 309 865 254 851 q 414 879 364 879 l 463 879 q 549 847 499 879 q 625 782 599 815 q 706 619 674 724 q 738 381 738 514 q 710 150 738 272 q 708 120 708 140 q 707 79 708 100 q 701 43 706 58 q 683 28 696 28 q 674 30 678 28 q 664 33 669 32 q 660 31 661 33 q 658 27 658 29 q 657 24 658 25 q 642 -68 642 -32 q 638 -206 640 -142 q 635 -333 635 -271 l 636 -393 q 619 -424 636 -424 l 617 -422 m 382 97 q 446 133 413 97 q 506 422 506 199 q 483 603 506 529 q 449 633 478 615 q 426 640 436 640 q 374 591 383 628 q 365 518 365 554 l 365 492 q 364 464 365 476 q 347 446 361 446 q 329 460 333 446 q 325 489 325 474 q 315 533 324 514 l 307 463 q 304 432 304 447 q 306 395 304 417 q 307 343 307 374 l 313 285 q 308 260 313 271 q 304 240 304 249 q 315 213 304 225 q 327 189 321 203 q 333 151 333 175 q 349 113 333 128 q 382 97 364 97 m 476 928 q 426 938 443 928 l 360 979 q 342 992 349 992 q 329 972 335 992 q 317 962 326 968 q 297 951 307 956 q 281 946 286 946 q 241 958 263 946 q 219 985 219 969 q 222 994 219 989 q 235 1025 232 1008 q 279 1093 246 1074 q 335 1113 304 1107 q 399 1092 382 1104 q 424 1067 415 1081 q 446 1041 432 1054 q 469 1028 460 1028 q 486 1040 481 1028 q 495 1066 492 1053 q 503 1083 499 1079 q 553 1103 526 1103 q 593 1085 585 1103 q 597 1060 597 1075 q 521 938 597 1001 q 476 928 503 928 z "}}}
